<svg xmlns="http://www.w3.org/2000/svg" version="1.1" xmlns:xlink="http://www.w3.org/1999/xlink" xmlns:svgjs="http://svgjs.dev/svgjs" width="1440" height="560" preserveAspectRatio="none" viewBox="0 0 1440 560"><g mask="url(&quot;#SvgjsMask1408&quot;)" fill="none"><g mask="url(&quot;#SvgjsMask1409&quot;)"><path d="M808 328L824 312L840 312L856 312L872 312L888 312L904 312M824 328L840 328L856 328L872 328L888 328L904 328M648 312L664 328L680 328L696 328L712 328L728 328L744 328L760 328L776 328L792 328M504 296L520 312L536 312L552 312L568 312M872 344L888 360L904 360L920 360L936 360L952 360L968 360L984 360L1000 360L1016 360L1032 360L1048 360L1064 360L1080 360L1096 360L1112 360M1144 344L1160 328L1176 328L1192 328L1208 328L1224 328L1240 328L1256 328L1272 328L1288 328L1304 328M584 296L600 312L616 328L632 328L648 328M1160 344L1176 360L1192 360M216 296L232 280M200 296L216 280M1064 344L1080 328L1096 328L1112 328L1128 328L1144 328L1160 312M936 344L952 328L968 328L984 328L1000 328L1016 328L1032 328L1048 328L1064 328L1080 312L1096 296L1112 296L1128 280L1144 280L1160 280L1176 280L1192 280L1208 280L1224 280M680 312L696 296L712 296L728 296L744 280L760 280M312 296L328 280L344 280L360 280L376 280L392 280L408 280L424 280L440 280L456 280L472 280L488 280L504 280L520 280L536 280L552 280L568 280L584 280L600 280L616 280L632 280L648 280L664 280M456 296L472 312L488 312L504 312L520 328L536 328L552 328L568 328L584 328L600 328M760 312L776 296L792 296L808 296L824 296L840 296L856 296L872 296L888 296L904 296L920 296M264 296L280 280M920 344L936 328L952 312L968 312L984 312L1000 312L1016 312L1032 312L1048 296L1064 280L1080 280L1096 280L1112 280L1128 264L1144 264L1160 264L1176 264L1192 264M664 312L680 296L696 280M1224 344L1240 360L1256 360L1272 360L1288 360L1304 360L1320 360L1336 360L1352 360L1368 360L1384 360L1400 360L1416 360M-8 280L8 280L24 280L40 280L56 280L72 280L88 280L104 280L120 280L136 280L152 280L168 280L184 280L200 296L216 296L232 296L248 296L264 296L280 296L296 296L312 296L328 296L344 296L360 296L376 296L392 296L408 296L424 296L440 296L456 296L472 296L488 296L504 296L520 296L536 296L552 296L568 296L584 296L600 296L616 312L632 312L648 312L664 312L680 312L696 312L712 312L728 312L744 312L760 312L776 312L792 312L808 328L824 328L840 344L856 344L872 344L888 344L904 344L920 344L936 344L952 344L968 344L984 344L1000 344L1016 344L1032 344L1048 344L1064 344L1080 344L1096 344L1112 344L1128 344L1144 344L1160 344L1176 344L1192 344L1208 344L1224 344L1240 344L1256 344" stroke="rgba(251, 191, 36, 0.37)" stroke-width="2.67"></path><path d="M1252 344 a4 4 0 1 0 8 0 a4 4 0 1 0 -8 0zM900 312 a4 4 0 1 0 8 0 a4 4 0 1 0 -8 0zM900 328 a4 4 0 1 0 8 0 a4 4 0 1 0 -8 0zM788 328 a4 4 0 1 0 8 0 a4 4 0 1 0 -8 0zM564 312 a4 4 0 1 0 8 0 a4 4 0 1 0 -8 0zM1108 360 a4 4 0 1 0 8 0 a4 4 0 1 0 -8 0zM1300 328 a4 4 0 1 0 8 0 a4 4 0 1 0 -8 0zM644 328 a4 4 0 1 0 8 0 a4 4 0 1 0 -8 0zM1188 360 a4 4 0 1 0 8 0 a4 4 0 1 0 -8 0zM228 280 a4 4 0 1 0 8 0 a4 4 0 1 0 -8 0zM212 280 a4 4 0 1 0 8 0 a4 4 0 1 0 -8 0zM1156 312 a4 4 0 1 0 8 0 a4 4 0 1 0 -8 0zM1220 280 a4 4 0 1 0 8 0 a4 4 0 1 0 -8 0zM756 280 a4 4 0 1 0 8 0 a4 4 0 1 0 -8 0zM660 280 a4 4 0 1 0 8 0 a4 4 0 1 0 -8 0zM596 328 a4 4 0 1 0 8 0 a4 4 0 1 0 -8 0zM916 296 a4 4 0 1 0 8 0 a4 4 0 1 0 -8 0zM276 280 a4 4 0 1 0 8 0 a4 4 0 1 0 -8 0zM1188 264 a4 4 0 1 0 8 0 a4 4 0 1 0 -8 0zM692 280 a4 4 0 1 0 8 0 a4 4 0 1 0 -8 0zM1412 360 a4 4 0 1 0 8 0 a4 4 0 1 0 -8 0z" fill="rgba(251, 191, 36, 0.37)"></path><path d="M-8 296L8 296L24 296L40 296L56 296L72 296L88 296L104 296L120 296L136 296L152 296L168 296L184 296" stroke="rgba(253, 230, 138, 0.48)" stroke-width="2.67"></path><path d="M180 296 a4 4 0 1 0 8 0 a4 4 0 1 0 -8 0z" fill="rgba(253, 230, 138, 0.48)"></path><path d="M456 248L472 248L488 248L504 248L520 264L536 264M200 264L216 248L232 248L248 248L264 232L280 232L296 232L312 232L328 232L344 232M792 248L808 264L824 264M392 248L408 232L424 232L440 232L456 216L472 216L488 216L504 216L520 232L536 232L552 232L568 232L584 248L600 248L616 248L632 232L648 232L664 216L680 216M440 248L456 264L472 264L488 264M632 248L648 264L664 264L680 264L696 264L712 264L728 264L744 264L760 264L776 264M1256 264L1272 280L1288 280L1304 280L1320 280M1000 248L1016 232L1032 216L1048 216L1064 200L1080 200L1096 200L1112 200L1128 200L1144 200L1160 200L1176 184L1192 184L1208 168L1224 152L1240 152L1256 152L1272 152L1288 152L1304 152M888 248L904 264L920 264L936 264L952 264L968 264L984 264L1000 264L1016 264L1032 264L1048 264L1064 264L1080 264L1096 264L1112 264M664 248L680 232L696 232L712 232L728 232L744 232L760 232L776 232M920 248L936 232L952 232L968 232L984 232L1000 232M312 264L328 248L344 248M1160 248L1176 232M1240 264L1256 280L1272 296L1288 296L1304 296L1320 296L1336 296M616 264L632 264M1048 232L1064 248L1080 248L1096 248L1112 248M248 264L264 280M1272 264L1288 248L1304 248L1320 248L1336 248L1352 248L1368 248L1384 248L1400 248L1416 248M872 248L888 264L904 280L920 280L936 280L952 280M360 248L376 232L392 232L408 216L424 216L440 216L456 200L472 200L488 200M-8 264L8 264L24 264L40 264L56 264L72 264L88 264L104 264L120 264L136 264L152 264L168 264L184 264L200 264L216 264L232 264L248 264L264 264L280 264L296 264L312 264L328 264L344 264L360 248L376 248L392 248L408 248L424 248L440 248L456 248L472 232L488 232L504 232L520 248L536 248L552 264L568 264L584 264L600 264L616 264L632 248L648 248L664 248L680 248L696 248L712 248L728 248L744 248L760 248L776 248L792 248L808 248L824 248L840 248L856 248L872 248L888 248L904 248L920 248L936 248L952 248L968 248L984 248L1000 248L1016 248L1032 232L1048 232L1064 232L1080 232L1096 232L1112 232L1128 248L1144 248L1160 248L1176 248L1192 248L1208 264L1224 264L1240 264L1256 264L1272 264L1288 264" stroke="rgba(253, 230, 138, 0.48)" stroke-width="2.67"></path><path d="M1284 264 a4 4 0 1 0 8 0 a4 4 0 1 0 -8 0zM532 264 a4 4 0 1 0 8 0 a4 4 0 1 0 -8 0zM340 232 a4 4 0 1 0 8 0 a4 4 0 1 0 -8 0zM820 264 a4 4 0 1 0 8 0 a4 4 0 1 0 -8 0zM676 216 a4 4 0 1 0 8 0 a4 4 0 1 0 -8 0zM484 264 a4 4 0 1 0 8 0 a4 4 0 1 0 -8 0zM772 264 a4 4 0 1 0 8 0 a4 4 0 1 0 -8 0zM1316 280 a4 4 0 1 0 8 0 a4 4 0 1 0 -8 0zM1300 152 a4 4 0 1 0 8 0 a4 4 0 1 0 -8 0zM1108 264 a4 4 0 1 0 8 0 a4 4 0 1 0 -8 0zM772 232 a4 4 0 1 0 8 0 a4 4 0 1 0 -8 0zM996 232 a4 4 0 1 0 8 0 a4 4 0 1 0 -8 0zM340 248 a4 4 0 1 0 8 0 a4 4 0 1 0 -8 0zM1172 232 a4 4 0 1 0 8 0 a4 4 0 1 0 -8 0zM1332 296 a4 4 0 1 0 8 0 a4 4 0 1 0 -8 0zM628 264 a4 4 0 1 0 8 0 a4 4 0 1 0 -8 0zM1108 248 a4 4 0 1 0 8 0 a4 4 0 1 0 -8 0zM260 280 a4 4 0 1 0 8 0 a4 4 0 1 0 -8 0zM1412 248 a4 4 0 1 0 8 0 a4 4 0 1 0 -8 0zM948 280 a4 4 0 1 0 8 0 a4 4 0 1 0 -8 0zM484 200 a4 4 0 1 0 8 0 a4 4 0 1 0 -8 0z" fill="rgba(253, 230, 138, 0.48)"></path><path d="M232 328L248 312L264 312L280 312M408 312L424 312L440 312L456 312M616 344L632 360L648 360L664 360L680 360L696 360L712 360L728 360M504 344L520 360L536 360L552 360M344 328L360 312M376 312L392 328L408 328L424 344L440 344L456 344L472 360L488 360L504 360L520 376L536 376L552 376L568 376L584 376M120 312L136 328L152 328L168 328L184 328L200 328M1096 376L1112 392L1128 392L1144 392L1160 392L1176 392L1192 392L1208 392L1224 392L1240 376L1256 376L1272 376L1288 376L1304 376L1320 376L1336 376L1352 392M248 328L264 344L280 360L296 360L312 360M1048 376L1064 392L1080 392L1096 392M360 328L376 328L392 344L408 344L424 360L440 376L456 376L472 376L488 376L504 376M1016 392L1032 392L1048 392L1064 408L1080 408L1096 408L1112 408L1128 424L1144 424L1160 424L1176 424L1192 424L1208 424L1224 424L1240 424L1256 424L1272 424M328 328L344 344L360 344M776 344L792 360L808 360L824 360L840 376L856 376L872 392L888 392L904 392L920 408L936 424L952 424L968 424L984 424L1000 424L1016 440L1032 440L1048 440M936 392L952 408L968 408L984 408L1000 408L1016 408L1032 408M1000 392L1016 376M456 328L472 328L488 328L504 328M744 344L760 360L776 360L792 376L808 376L824 376L840 392L856 392L872 408L888 408L904 408L920 424L936 440L952 440L968 440L984 440L1000 440L1016 456L1032 456L1048 456L1064 456L1080 456L1096 456L1112 456L1128 456L1144 456M-8 312L8 312L24 312L40 312L56 312L72 312L88 312L104 312L120 312L136 312L152 312L168 312L184 312L200 312L216 328L232 328L248 328L264 328L280 344L296 344L312 344L328 328L344 328L360 328L376 312L392 312L408 312L424 328L440 328L456 328L472 344L488 344L504 344L520 344L536 344L552 344L568 344L584 344L600 344L616 344L632 344L648 344L664 344L680 344L696 344L712 344L728 344L744 344L760 344L776 344L792 344L808 344L824 344L840 360L856 360L872 376L888 376L904 376L920 392L936 392L952 392L968 392L984 392L1000 392L1016 392L1032 376L1048 376L1064 376L1080 376L1096 376L1112 376L1128 360L1144 360" stroke="rgba(253, 230, 138, 0.48)" stroke-width="2.67"></path><path d="M1140 360 a4 4 0 1 0 8 0 a4 4 0 1 0 -8 0zM276 312 a4 4 0 1 0 8 0 a4 4 0 1 0 -8 0zM452 312 a4 4 0 1 0 8 0 a4 4 0 1 0 -8 0zM724 360 a4 4 0 1 0 8 0 a4 4 0 1 0 -8 0zM548 360 a4 4 0 1 0 8 0 a4 4 0 1 0 -8 0zM356 312 a4 4 0 1 0 8 0 a4 4 0 1 0 -8 0zM580 376 a4 4 0 1 0 8 0 a4 4 0 1 0 -8 0zM196 328 a4 4 0 1 0 8 0 a4 4 0 1 0 -8 0zM1348 392 a4 4 0 1 0 8 0 a4 4 0 1 0 -8 0zM308 360 a4 4 0 1 0 8 0 a4 4 0 1 0 -8 0zM1092 392 a4 4 0 1 0 8 0 a4 4 0 1 0 -8 0zM500 376 a4 4 0 1 0 8 0 a4 4 0 1 0 -8 0zM1268 424 a4 4 0 1 0 8 0 a4 4 0 1 0 -8 0zM356 344 a4 4 0 1 0 8 0 a4 4 0 1 0 -8 0zM1044 440 a4 4 0 1 0 8 0 a4 4 0 1 0 -8 0zM1028 408 a4 4 0 1 0 8 0 a4 4 0 1 0 -8 0zM1012 376 a4 4 0 1 0 8 0 a4 4 0 1 0 -8 0zM500 328 a4 4 0 1 0 8 0 a4 4 0 1 0 -8 0zM1140 456 a4 4 0 1 0 8 0 a4 4 0 1 0 -8 0z" fill="rgba(253, 230, 138, 0.48)"></path><path d="M56 248L72 232L88 232L104 232M152 248L168 232L184 232L200 232M40 248L56 232M-8 248L8 248L24 248L40 248L56 248L72 248L88 248L104 248L120 248L136 248L152 248L168 248" stroke="rgba(251, 191, 36, 0.37)" stroke-width="2.67"></path><path d="M164 248 a4 4 0 1 0 8 0 a4 4 0 1 0 -8 0zM100 232 a4 4 0 1 0 8 0 a4 4 0 1 0 -8 0zM196 232 a4 4 0 1 0 8 0 a4 4 0 1 0 -8 0zM52 232 a4 4 0 1 0 8 0 a4 4 0 1 0 -8 0z" fill="rgba(251, 191, 36, 0.37)"></path><path d="M136 344L152 360L168 360L184 360L200 360M104 344L120 328M120 344L136 360M-8 328L8 328L24 328L40 328L56 328L72 328L88 328L104 344L120 344L136 344L152 344L168 344" stroke="rgba(251, 191, 36, 0.37)" stroke-width="2.67"></path><path d="M164 344 a4 4 0 1 0 8 0 a4 4 0 1 0 -8 0zM196 360 a4 4 0 1 0 8 0 a4 4 0 1 0 -8 0zM116 328 a4 4 0 1 0 8 0 a4 4 0 1 0 -8 0zM132 360 a4 4 0 1 0 8 0 a4 4 0 1 0 -8 0z" fill="rgba(251, 191, 36, 0.37)"></path><path d="M456 184L472 168L488 168M584 152L600 168L616 184L632 184L648 184L664 184L680 168L696 168L712 168L728 152L744 152M392 184L408 200M344 200L360 216L376 216L392 216M568 152L584 168L600 184L616 200L632 200L648 200L664 200L680 200L696 200L712 200L728 200L744 200L760 200L776 200L792 200L808 200M248 216L264 200L280 200M504 168L520 168L536 168L552 168L568 184L584 184L600 200L616 216L632 216L648 216M168 200L184 216L200 216L216 216L232 232L248 232M24 232L40 232M424 184L440 200M-8 232L8 232L24 232L40 216L56 216L72 216L88 216L104 216L120 216L136 216L152 216L168 200L184 200L200 200L216 200L232 216L248 216L264 216L280 216L296 216L312 216L328 200L344 200L360 200L376 184L392 184L408 184L424 184L440 184L456 184L472 184L488 184L504 168L520 152L536 152L552 152L568 152L584 152L600 152L616 168" stroke="rgba(251, 191, 36, 0.37)" stroke-width="2.67"></path><path d="M612 168 a4 4 0 1 0 8 0 a4 4 0 1 0 -8 0zM484 168 a4 4 0 1 0 8 0 a4 4 0 1 0 -8 0zM740 152 a4 4 0 1 0 8 0 a4 4 0 1 0 -8 0zM404 200 a4 4 0 1 0 8 0 a4 4 0 1 0 -8 0zM388 216 a4 4 0 1 0 8 0 a4 4 0 1 0 -8 0zM804 200 a4 4 0 1 0 8 0 a4 4 0 1 0 -8 0zM276 200 a4 4 0 1 0 8 0 a4 4 0 1 0 -8 0zM644 216 a4 4 0 1 0 8 0 a4 4 0 1 0 -8 0zM244 232 a4 4 0 1 0 8 0 a4 4 0 1 0 -8 0zM36 232 a4 4 0 1 0 8 0 a4 4 0 1 0 -8 0zM436 200 a4 4 0 1 0 8 0 a4 4 0 1 0 -8 0z" fill="rgba(251, 191, 36, 0.37)"></path><path d="M-8 344L8 344L24 344L40 344L56 344L72 344L88 344L104 360" stroke="rgba(253, 230, 138, 0.48)" stroke-width="2.67"></path><path d="M100 360 a4 4 0 1 0 8 0 a4 4 0 1 0 -8 0z" fill="rgba(253, 230, 138, 0.48)"></path><path d="M440 168L456 168M824 104L840 88L856 88M312 168L328 184L344 184L360 184M424 168L440 152M792 120L808 104L824 88L840 72L856 72M680 136L696 152L712 152M584 136L600 120L616 120L632 120L648 120L664 120M872 88L888 104L904 104L920 104L936 104M408 168L424 152M616 136L632 152L648 152L664 152L680 152M728 136L744 136L760 136L776 136L792 136L808 136L824 136M392 168L408 152M696 136L712 120L728 120M840 104L856 120L872 120M280 168L296 184L312 200M-8 216L8 216L24 216L40 200L56 200L72 200L88 200L104 200L120 200L136 200L152 200L168 184L184 184L200 184L216 184L232 168L248 168L264 168L280 168L296 168L312 168L328 168L344 168L360 168L376 168L392 168L408 168L424 168L440 168L456 152L472 152L488 152L504 152L520 136L536 136L552 136L568 136L584 136L600 136L616 136L632 136L648 136L664 136L680 136L696 136L712 136L728 136L744 120L760 120L776 120L792 120L808 120L824 104L840 104L856 104L872 88L888 88L904 88L920 88L936 88" stroke="rgba(251, 191, 36, 0.37)" stroke-width="2.67"></path><path d="M932 88 a4 4 0 1 0 8 0 a4 4 0 1 0 -8 0zM452 168 a4 4 0 1 0 8 0 a4 4 0 1 0 -8 0zM852 88 a4 4 0 1 0 8 0 a4 4 0 1 0 -8 0zM356 184 a4 4 0 1 0 8 0 a4 4 0 1 0 -8 0zM436 152 a4 4 0 1 0 8 0 a4 4 0 1 0 -8 0zM852 72 a4 4 0 1 0 8 0 a4 4 0 1 0 -8 0zM708 152 a4 4 0 1 0 8 0 a4 4 0 1 0 -8 0zM660 120 a4 4 0 1 0 8 0 a4 4 0 1 0 -8 0zM932 104 a4 4 0 1 0 8 0 a4 4 0 1 0 -8 0zM420 152 a4 4 0 1 0 8 0 a4 4 0 1 0 -8 0zM676 152 a4 4 0 1 0 8 0 a4 4 0 1 0 -8 0zM820 136 a4 4 0 1 0 8 0 a4 4 0 1 0 -8 0zM404 152 a4 4 0 1 0 8 0 a4 4 0 1 0 -8 0zM724 120 a4 4 0 1 0 8 0 a4 4 0 1 0 -8 0zM868 120 a4 4 0 1 0 8 0 a4 4 0 1 0 -8 0zM308 200 a4 4 0 1 0 8 0 a4 4 0 1 0 -8 0z" fill="rgba(251, 191, 36, 0.37)"></path><path d="M24 360L40 376L56 376M72 360L88 376M-8 360L8 360L24 360L40 360L56 360L72 360L88 360L104 376L120 376L136 376L152 376" stroke="rgba(251, 191, 36, 0.37)" stroke-width="2.67"></path><path d="M148 376 a4 4 0 1 0 8 0 a4 4 0 1 0 -8 0zM52 376 a4 4 0 1 0 8 0 a4 4 0 1 0 -8 0zM84 376 a4 4 0 1 0 8 0 a4 4 0 1 0 -8 0z" fill="rgba(251, 191, 36, 0.37)"></path><path d="M296 152L312 136L328 136M696 104L712 88L728 88L744 88L760 88L776 88L792 88L808 88M664 104L680 88L696 88M680 104L696 120M264 152L280 136L296 136M568 104L584 120M376 152L392 152M232 152L248 136L264 136M-8 200L8 200L24 200L40 184L56 184L72 184L88 184L104 184L120 184L136 184L152 184L168 168L184 168L200 168L216 168L232 152L248 152L264 152L280 152L296 152L312 152L328 152L344 152L360 152L376 152L392 136L408 136L424 136L440 136L456 136L472 136L488 136L504 136L520 120L536 120L552 120L568 104L584 104L600 104L616 104L632 104L648 104L664 104L680 104L696 104L712 104L728 104L744 104L760 104" stroke="rgba(251, 191, 36, 0.37)" stroke-width="2.67"></path><path d="M756 104 a4 4 0 1 0 8 0 a4 4 0 1 0 -8 0zM324 136 a4 4 0 1 0 8 0 a4 4 0 1 0 -8 0zM804 88 a4 4 0 1 0 8 0 a4 4 0 1 0 -8 0zM692 88 a4 4 0 1 0 8 0 a4 4 0 1 0 -8 0zM692 120 a4 4 0 1 0 8 0 a4 4 0 1 0 -8 0zM292 136 a4 4 0 1 0 8 0 a4 4 0 1 0 -8 0zM580 120 a4 4 0 1 0 8 0 a4 4 0 1 0 -8 0zM388 152 a4 4 0 1 0 8 0 a4 4 0 1 0 -8 0zM260 136 a4 4 0 1 0 8 0 a4 4 0 1 0 -8 0z" fill="rgba(251, 191, 36, 0.37)"></path><path d="M552 392L568 408L584 408L600 408L616 408L632 408L648 424L664 424L680 424L696 424L712 440L728 440L744 440M216 376L232 392M520 392L536 408L552 408L568 424L584 424L600 424L616 424L632 424L648 440L664 440L680 440L696 440L712 456L728 456M664 408L680 392L696 392M232 376L248 360L264 360M440 408L456 392M280 392L296 376L312 376L328 376L344 376L360 376L376 376L392 376L408 360M760 424L776 408L792 392L808 392L824 392L840 408L856 424L872 424L888 424L904 440L920 440L936 456L952 456L968 456L984 456L1000 472L1016 472L1032 472L1048 472L1064 472L1080 472L1096 472L1112 472L1128 472M360 408L376 392L392 392M248 376L264 392L280 408L296 408M104 392L120 408L136 408L152 408L168 408L184 408L200 408L216 408L232 408L248 408L264 408L280 424M328 392L344 392M408 408L424 392L440 392M728 424L744 408L760 392L776 392M-8 376L8 376L24 392L40 392L56 392L72 392L88 392L104 392L120 392L136 392L152 392L168 376L184 376L200 376L216 376L232 376L248 376L264 376L280 392L296 392L312 392L328 392L344 408L360 408L376 408L392 408L408 408L424 408L440 408L456 408L472 392L488 392L504 392L520 392L536 392L552 392L568 392L584 392L600 392L616 392L632 392L648 408L664 408L680 408L696 408L712 424L728 424L744 424L760 424L776 424L792 408L808 408L824 424L840 424L856 440L872 440" stroke="rgba(253, 230, 138, 0.48)" stroke-width="2.67"></path><path d="M868 440 a4 4 0 1 0 8 0 a4 4 0 1 0 -8 0zM740 440 a4 4 0 1 0 8 0 a4 4 0 1 0 -8 0zM228 392 a4 4 0 1 0 8 0 a4 4 0 1 0 -8 0zM724 456 a4 4 0 1 0 8 0 a4 4 0 1 0 -8 0zM692 392 a4 4 0 1 0 8 0 a4 4 0 1 0 -8 0zM260 360 a4 4 0 1 0 8 0 a4 4 0 1 0 -8 0zM452 392 a4 4 0 1 0 8 0 a4 4 0 1 0 -8 0zM404 360 a4 4 0 1 0 8 0 a4 4 0 1 0 -8 0zM1124 472 a4 4 0 1 0 8 0 a4 4 0 1 0 -8 0zM388 392 a4 4 0 1 0 8 0 a4 4 0 1 0 -8 0zM292 408 a4 4 0 1 0 8 0 a4 4 0 1 0 -8 0zM276 424 a4 4 0 1 0 8 0 a4 4 0 1 0 -8 0zM340 392 a4 4 0 1 0 8 0 a4 4 0 1 0 -8 0zM436 392 a4 4 0 1 0 8 0 a4 4 0 1 0 -8 0zM772 392 a4 4 0 1 0 8 0 a4 4 0 1 0 -8 0z" fill="rgba(253, 230, 138, 0.48)"></path><path d="M184 152L200 136L216 136M88 168L104 152M-8 184L8 184L24 184L40 168L56 168L72 168L88 168L104 168L120 168L136 168L152 168L168 152L184 152L200 152" stroke="rgba(253, 230, 138, 0.48)" stroke-width="2.67"></path><path d="M196 152 a4 4 0 1 0 8 0 a4 4 0 1 0 -8 0zM212 136 a4 4 0 1 0 8 0 a4 4 0 1 0 -8 0zM100 152 a4 4 0 1 0 8 0 a4 4 0 1 0 -8 0z" fill="rgba(253, 230, 138, 0.48)"></path><path d="M456 424L472 440L488 456L504 472L520 472M408 424L424 440M376 424L392 440L408 440L424 456L440 472M56 424L72 408L88 408L104 408L120 424M232 440L248 424M136 440L152 424L168 424L184 424L200 424L216 424L232 424M8 408L24 408L40 408M344 424L360 440M-8 392L8 408L24 424L40 424L56 424L72 424L88 440L104 440L120 440L136 440L152 440L168 440L184 440L200 440L216 440L232 440L248 440L264 440L280 440L296 440L312 440L328 440L344 424L360 424L376 424L392 424L408 424L424 424L440 424L456 424L472 424L488 440L504 456L520 456" stroke="rgba(251, 191, 36, 0.37)" stroke-width="2.67"></path><path d="M516 456 a4 4 0 1 0 8 0 a4 4 0 1 0 -8 0zM516 472 a4 4 0 1 0 8 0 a4 4 0 1 0 -8 0zM420 440 a4 4 0 1 0 8 0 a4 4 0 1 0 -8 0zM436 472 a4 4 0 1 0 8 0 a4 4 0 1 0 -8 0zM116 424 a4 4 0 1 0 8 0 a4 4 0 1 0 -8 0zM244 424 a4 4 0 1 0 8 0 a4 4 0 1 0 -8 0zM228 424 a4 4 0 1 0 8 0 a4 4 0 1 0 -8 0zM36 408 a4 4 0 1 0 8 0 a4 4 0 1 0 -8 0zM356 440 a4 4 0 1 0 8 0 a4 4 0 1 0 -8 0z" fill="rgba(251, 191, 36, 0.37)"></path><path d="M136 136L152 152M8 168L24 152M120 136L136 152M-8 168L8 168L24 168L40 152L56 152L72 152L88 136L104 136L120 136L136 136L152 136L168 136" stroke="rgba(253, 230, 138, 0.48)" stroke-width="2.67"></path><path d="M164 136 a4 4 0 1 0 8 0 a4 4 0 1 0 -8 0zM148 152 a4 4 0 1 0 8 0 a4 4 0 1 0 -8 0zM20 152 a4 4 0 1 0 8 0 a4 4 0 1 0 -8 0zM132 152 a4 4 0 1 0 8 0 a4 4 0 1 0 -8 0z" fill="rgba(253, 230, 138, 0.48)"></path><path d="M40 440L56 456L72 456M168 456L184 472L200 472L216 472M264 456L280 472M152 456L168 472L184 488L200 488L216 488M-8 408L8 424L24 440L40 440L56 440L72 440L88 456L104 456L120 456L136 456L152 456L168 456L184 456L200 456L216 456L232 456L248 456L264 456L280 456" stroke="rgba(251, 191, 36, 0.37)" stroke-width="2.67"></path><path d="M276 456 a4 4 0 1 0 8 0 a4 4 0 1 0 -8 0zM68 456 a4 4 0 1 0 8 0 a4 4 0 1 0 -8 0zM212 472 a4 4 0 1 0 8 0 a4 4 0 1 0 -8 0zM276 472 a4 4 0 1 0 8 0 a4 4 0 1 0 -8 0zM212 488 a4 4 0 1 0 8 0 a4 4 0 1 0 -8 0z" fill="rgba(251, 191, 36, 0.37)"></path><path d="M744 72L760 56L776 40L792 40L808 40L824 40L840 40L856 40L872 40L888 40L904 40M344 120L360 120L376 120M696 72L712 56M1208 56L1224 40L1240 40L1256 40M792 56L808 72L824 72M600 88L616 72L632 72L648 56L664 56L680 56L696 40L712 40L728 40M200 120L216 104L232 104L248 104L264 104L280 104L296 104L312 104L328 104L344 104L360 104L376 104L392 104L408 104L424 104L440 104L456 104L472 104L488 104L504 104L520 88L536 88L552 88L568 72L584 72L600 72M648 88L664 88M1320 40L1336 40L1352 40L1368 40L1384 40L1400 40L1416 40M1160 56L1176 40L1192 40L1208 40M920 72L936 56L952 56L968 56L984 56M104 120L120 104L136 104L152 104M1128 72L1144 72L1160 72L1176 72L1192 72L1208 72L1224 88M8 136L24 120L40 120L56 120L72 120L88 104L104 104L120 88L136 88L152 88L168 88L184 88M1400 56L1416 72M1288 56L1304 56L1320 56M904 72L920 56L936 40L952 40L968 40L984 40L1000 40L1016 40L1032 40L1048 40M728 72L744 56L760 40M1352 56L1368 72L1384 72L1400 72L1416 88M952 72L968 88L984 88L1000 88L1016 88M1096 88L1112 88M1240 56L1256 72L1272 72L1288 72L1304 72L1320 72L1336 88L1352 88L1368 88L1384 88M-8 152L8 136L24 136L40 136L56 136L72 136L88 120L104 120L120 120L136 120L152 120L168 120L184 120L200 120L216 120L232 120L248 120L264 120L280 120L296 120L312 120L328 120L344 120L360 136L376 136L392 120L408 120L424 120L440 120L456 120L472 120L488 120L504 120L520 104L536 104L552 104L568 88L584 88L600 88L616 88L632 88L648 88L664 72L680 72L696 72L712 72L728 72L744 72L760 72L776 56L792 56L808 56L824 56L840 56L856 56L872 72L888 72L904 72L920 72L936 72L952 72L968 72L984 72L1000 72L1016 72L1032 72L1048 72L1064 88L1080 88L1096 88L1112 72L1128 72L1144 56L1160 56L1176 56L1192 56L1208 56L1224 56L1240 56L1256 56L1272 56L1288 56L1304 40L1320 40L1336 56L1352 56L1368 56L1384 56L1400 56L1416 56" stroke="rgba(251, 191, 36, 0.37)" stroke-width="2.67"></path><path d="M1412 56 a4 4 0 1 0 8 0 a4 4 0 1 0 -8 0zM900 40 a4 4 0 1 0 8 0 a4 4 0 1 0 -8 0zM372 120 a4 4 0 1 0 8 0 a4 4 0 1 0 -8 0zM708 56 a4 4 0 1 0 8 0 a4 4 0 1 0 -8 0zM1252 40 a4 4 0 1 0 8 0 a4 4 0 1 0 -8 0zM820 72 a4 4 0 1 0 8 0 a4 4 0 1 0 -8 0zM724 40 a4 4 0 1 0 8 0 a4 4 0 1 0 -8 0zM596 72 a4 4 0 1 0 8 0 a4 4 0 1 0 -8 0zM660 88 a4 4 0 1 0 8 0 a4 4 0 1 0 -8 0zM1412 40 a4 4 0 1 0 8 0 a4 4 0 1 0 -8 0zM1204 40 a4 4 0 1 0 8 0 a4 4 0 1 0 -8 0zM980 56 a4 4 0 1 0 8 0 a4 4 0 1 0 -8 0zM148 104 a4 4 0 1 0 8 0 a4 4 0 1 0 -8 0zM1220 88 a4 4 0 1 0 8 0 a4 4 0 1 0 -8 0zM180 88 a4 4 0 1 0 8 0 a4 4 0 1 0 -8 0zM1412 72 a4 4 0 1 0 8 0 a4 4 0 1 0 -8 0zM1316 56 a4 4 0 1 0 8 0 a4 4 0 1 0 -8 0zM1044 40 a4 4 0 1 0 8 0 a4 4 0 1 0 -8 0zM756 40 a4 4 0 1 0 8 0 a4 4 0 1 0 -8 0zM1412 88 a4 4 0 1 0 8 0 a4 4 0 1 0 -8 0zM1012 88 a4 4 0 1 0 8 0 a4 4 0 1 0 -8 0zM1108 88 a4 4 0 1 0 8 0 a4 4 0 1 0 -8 0zM1380 88 a4 4 0 1 0 8 0 a4 4 0 1 0 -8 0z" fill="rgba(251, 191, 36, 0.37)"></path></g></g><defs><mask id="SvgjsMask1408"><rect width="1440" height="560" fill="#ffffff"></rect></mask><mask id="SvgjsMask1409"><rect width="1440" height="560" fill="white"></rect><path d="M1254 344 a2 2 0 1 0 4 0 a2 2 0 1 0 -4 0zM902 312 a2 2 0 1 0 4 0 a2 2 0 1 0 -4 0zM902 328 a2 2 0 1 0 4 0 a2 2 0 1 0 -4 0zM790 328 a2 2 0 1 0 4 0 a2 2 0 1 0 -4 0zM566 312 a2 2 0 1 0 4 0 a2 2 0 1 0 -4 0zM1110 360 a2 2 0 1 0 4 0 a2 2 0 1 0 -4 0zM1302 328 a2 2 0 1 0 4 0 a2 2 0 1 0 -4 0zM646 328 a2 2 0 1 0 4 0 a2 2 0 1 0 -4 0zM1190 360 a2 2 0 1 0 4 0 a2 2 0 1 0 -4 0zM230 280 a2 2 0 1 0 4 0 a2 2 0 1 0 -4 0zM214 280 a2 2 0 1 0 4 0 a2 2 0 1 0 -4 0zM1158 312 a2 2 0 1 0 4 0 a2 2 0 1 0 -4 0zM1222 280 a2 2 0 1 0 4 0 a2 2 0 1 0 -4 0zM758 280 a2 2 0 1 0 4 0 a2 2 0 1 0 -4 0zM662 280 a2 2 0 1 0 4 0 a2 2 0 1 0 -4 0zM598 328 a2 2 0 1 0 4 0 a2 2 0 1 0 -4 0zM918 296 a2 2 0 1 0 4 0 a2 2 0 1 0 -4 0zM278 280 a2 2 0 1 0 4 0 a2 2 0 1 0 -4 0zM1190 264 a2 2 0 1 0 4 0 a2 2 0 1 0 -4 0zM694 280 a2 2 0 1 0 4 0 a2 2 0 1 0 -4 0zM1414 360 a2 2 0 1 0 4 0 a2 2 0 1 0 -4 0z" fill="black"></path><path d="M182 296 a2 2 0 1 0 4 0 a2 2 0 1 0 -4 0z" fill="black"></path><path d="M1286 264 a2 2 0 1 0 4 0 a2 2 0 1 0 -4 0zM534 264 a2 2 0 1 0 4 0 a2 2 0 1 0 -4 0zM342 232 a2 2 0 1 0 4 0 a2 2 0 1 0 -4 0zM822 264 a2 2 0 1 0 4 0 a2 2 0 1 0 -4 0zM678 216 a2 2 0 1 0 4 0 a2 2 0 1 0 -4 0zM486 264 a2 2 0 1 0 4 0 a2 2 0 1 0 -4 0zM774 264 a2 2 0 1 0 4 0 a2 2 0 1 0 -4 0zM1318 280 a2 2 0 1 0 4 0 a2 2 0 1 0 -4 0zM1302 152 a2 2 0 1 0 4 0 a2 2 0 1 0 -4 0zM1110 264 a2 2 0 1 0 4 0 a2 2 0 1 0 -4 0zM774 232 a2 2 0 1 0 4 0 a2 2 0 1 0 -4 0zM998 232 a2 2 0 1 0 4 0 a2 2 0 1 0 -4 0zM342 248 a2 2 0 1 0 4 0 a2 2 0 1 0 -4 0zM1174 232 a2 2 0 1 0 4 0 a2 2 0 1 0 -4 0zM1334 296 a2 2 0 1 0 4 0 a2 2 0 1 0 -4 0zM630 264 a2 2 0 1 0 4 0 a2 2 0 1 0 -4 0zM1110 248 a2 2 0 1 0 4 0 a2 2 0 1 0 -4 0zM262 280 a2 2 0 1 0 4 0 a2 2 0 1 0 -4 0zM1414 248 a2 2 0 1 0 4 0 a2 2 0 1 0 -4 0zM950 280 a2 2 0 1 0 4 0 a2 2 0 1 0 -4 0zM486 200 a2 2 0 1 0 4 0 a2 2 0 1 0 -4 0z" fill="black"></path><path d="M1142 360 a2 2 0 1 0 4 0 a2 2 0 1 0 -4 0zM278 312 a2 2 0 1 0 4 0 a2 2 0 1 0 -4 0zM454 312 a2 2 0 1 0 4 0 a2 2 0 1 0 -4 0zM726 360 a2 2 0 1 0 4 0 a2 2 0 1 0 -4 0zM550 360 a2 2 0 1 0 4 0 a2 2 0 1 0 -4 0zM358 312 a2 2 0 1 0 4 0 a2 2 0 1 0 -4 0zM582 376 a2 2 0 1 0 4 0 a2 2 0 1 0 -4 0zM198 328 a2 2 0 1 0 4 0 a2 2 0 1 0 -4 0zM1350 392 a2 2 0 1 0 4 0 a2 2 0 1 0 -4 0zM310 360 a2 2 0 1 0 4 0 a2 2 0 1 0 -4 0zM1094 392 a2 2 0 1 0 4 0 a2 2 0 1 0 -4 0zM502 376 a2 2 0 1 0 4 0 a2 2 0 1 0 -4 0zM1270 424 a2 2 0 1 0 4 0 a2 2 0 1 0 -4 0zM358 344 a2 2 0 1 0 4 0 a2 2 0 1 0 -4 0zM1046 440 a2 2 0 1 0 4 0 a2 2 0 1 0 -4 0zM1030 408 a2 2 0 1 0 4 0 a2 2 0 1 0 -4 0zM1014 376 a2 2 0 1 0 4 0 a2 2 0 1 0 -4 0zM502 328 a2 2 0 1 0 4 0 a2 2 0 1 0 -4 0zM1142 456 a2 2 0 1 0 4 0 a2 2 0 1 0 -4 0z" fill="black"></path><path d="M166 248 a2 2 0 1 0 4 0 a2 2 0 1 0 -4 0zM102 232 a2 2 0 1 0 4 0 a2 2 0 1 0 -4 0zM198 232 a2 2 0 1 0 4 0 a2 2 0 1 0 -4 0zM54 232 a2 2 0 1 0 4 0 a2 2 0 1 0 -4 0z" fill="black"></path><path d="M166 344 a2 2 0 1 0 4 0 a2 2 0 1 0 -4 0zM198 360 a2 2 0 1 0 4 0 a2 2 0 1 0 -4 0zM118 328 a2 2 0 1 0 4 0 a2 2 0 1 0 -4 0zM134 360 a2 2 0 1 0 4 0 a2 2 0 1 0 -4 0z" fill="black"></path><path d="M614 168 a2 2 0 1 0 4 0 a2 2 0 1 0 -4 0zM486 168 a2 2 0 1 0 4 0 a2 2 0 1 0 -4 0zM742 152 a2 2 0 1 0 4 0 a2 2 0 1 0 -4 0zM406 200 a2 2 0 1 0 4 0 a2 2 0 1 0 -4 0zM390 216 a2 2 0 1 0 4 0 a2 2 0 1 0 -4 0zM806 200 a2 2 0 1 0 4 0 a2 2 0 1 0 -4 0zM278 200 a2 2 0 1 0 4 0 a2 2 0 1 0 -4 0zM646 216 a2 2 0 1 0 4 0 a2 2 0 1 0 -4 0zM246 232 a2 2 0 1 0 4 0 a2 2 0 1 0 -4 0zM38 232 a2 2 0 1 0 4 0 a2 2 0 1 0 -4 0zM438 200 a2 2 0 1 0 4 0 a2 2 0 1 0 -4 0z" fill="black"></path><path d="M102 360 a2 2 0 1 0 4 0 a2 2 0 1 0 -4 0z" fill="black"></path><path d="M934 88 a2 2 0 1 0 4 0 a2 2 0 1 0 -4 0zM454 168 a2 2 0 1 0 4 0 a2 2 0 1 0 -4 0zM854 88 a2 2 0 1 0 4 0 a2 2 0 1 0 -4 0zM358 184 a2 2 0 1 0 4 0 a2 2 0 1 0 -4 0zM438 152 a2 2 0 1 0 4 0 a2 2 0 1 0 -4 0zM854 72 a2 2 0 1 0 4 0 a2 2 0 1 0 -4 0zM710 152 a2 2 0 1 0 4 0 a2 2 0 1 0 -4 0zM662 120 a2 2 0 1 0 4 0 a2 2 0 1 0 -4 0zM934 104 a2 2 0 1 0 4 0 a2 2 0 1 0 -4 0zM422 152 a2 2 0 1 0 4 0 a2 2 0 1 0 -4 0zM678 152 a2 2 0 1 0 4 0 a2 2 0 1 0 -4 0zM822 136 a2 2 0 1 0 4 0 a2 2 0 1 0 -4 0zM406 152 a2 2 0 1 0 4 0 a2 2 0 1 0 -4 0zM726 120 a2 2 0 1 0 4 0 a2 2 0 1 0 -4 0zM870 120 a2 2 0 1 0 4 0 a2 2 0 1 0 -4 0zM310 200 a2 2 0 1 0 4 0 a2 2 0 1 0 -4 0z" fill="black"></path><path d="M150 376 a2 2 0 1 0 4 0 a2 2 0 1 0 -4 0zM54 376 a2 2 0 1 0 4 0 a2 2 0 1 0 -4 0zM86 376 a2 2 0 1 0 4 0 a2 2 0 1 0 -4 0z" fill="black"></path><path d="M758 104 a2 2 0 1 0 4 0 a2 2 0 1 0 -4 0zM326 136 a2 2 0 1 0 4 0 a2 2 0 1 0 -4 0zM806 88 a2 2 0 1 0 4 0 a2 2 0 1 0 -4 0zM694 88 a2 2 0 1 0 4 0 a2 2 0 1 0 -4 0zM694 120 a2 2 0 1 0 4 0 a2 2 0 1 0 -4 0zM294 136 a2 2 0 1 0 4 0 a2 2 0 1 0 -4 0zM582 120 a2 2 0 1 0 4 0 a2 2 0 1 0 -4 0zM390 152 a2 2 0 1 0 4 0 a2 2 0 1 0 -4 0zM262 136 a2 2 0 1 0 4 0 a2 2 0 1 0 -4 0z" fill="black"></path><path d="M870 440 a2 2 0 1 0 4 0 a2 2 0 1 0 -4 0zM742 440 a2 2 0 1 0 4 0 a2 2 0 1 0 -4 0zM230 392 a2 2 0 1 0 4 0 a2 2 0 1 0 -4 0zM726 456 a2 2 0 1 0 4 0 a2 2 0 1 0 -4 0zM694 392 a2 2 0 1 0 4 0 a2 2 0 1 0 -4 0zM262 360 a2 2 0 1 0 4 0 a2 2 0 1 0 -4 0zM454 392 a2 2 0 1 0 4 0 a2 2 0 1 0 -4 0zM406 360 a2 2 0 1 0 4 0 a2 2 0 1 0 -4 0zM1126 472 a2 2 0 1 0 4 0 a2 2 0 1 0 -4 0zM390 392 a2 2 0 1 0 4 0 a2 2 0 1 0 -4 0zM294 408 a2 2 0 1 0 4 0 a2 2 0 1 0 -4 0zM278 424 a2 2 0 1 0 4 0 a2 2 0 1 0 -4 0zM342 392 a2 2 0 1 0 4 0 a2 2 0 1 0 -4 0zM438 392 a2 2 0 1 0 4 0 a2 2 0 1 0 -4 0zM774 392 a2 2 0 1 0 4 0 a2 2 0 1 0 -4 0z" fill="black"></path><path d="M198 152 a2 2 0 1 0 4 0 a2 2 0 1 0 -4 0zM214 136 a2 2 0 1 0 4 0 a2 2 0 1 0 -4 0zM102 152 a2 2 0 1 0 4 0 a2 2 0 1 0 -4 0z" fill="black"></path><path d="M518 456 a2 2 0 1 0 4 0 a2 2 0 1 0 -4 0zM518 472 a2 2 0 1 0 4 0 a2 2 0 1 0 -4 0zM422 440 a2 2 0 1 0 4 0 a2 2 0 1 0 -4 0zM438 472 a2 2 0 1 0 4 0 a2 2 0 1 0 -4 0zM118 424 a2 2 0 1 0 4 0 a2 2 0 1 0 -4 0zM246 424 a2 2 0 1 0 4 0 a2 2 0 1 0 -4 0zM230 424 a2 2 0 1 0 4 0 a2 2 0 1 0 -4 0zM38 408 a2 2 0 1 0 4 0 a2 2 0 1 0 -4 0zM358 440 a2 2 0 1 0 4 0 a2 2 0 1 0 -4 0z" fill="black"></path><path d="M166 136 a2 2 0 1 0 4 0 a2 2 0 1 0 -4 0zM150 152 a2 2 0 1 0 4 0 a2 2 0 1 0 -4 0zM22 152 a2 2 0 1 0 4 0 a2 2 0 1 0 -4 0zM134 152 a2 2 0 1 0 4 0 a2 2 0 1 0 -4 0z" fill="black"></path><path d="M278 456 a2 2 0 1 0 4 0 a2 2 0 1 0 -4 0zM70 456 a2 2 0 1 0 4 0 a2 2 0 1 0 -4 0zM214 472 a2 2 0 1 0 4 0 a2 2 0 1 0 -4 0zM278 472 a2 2 0 1 0 4 0 a2 2 0 1 0 -4 0zM214 488 a2 2 0 1 0 4 0 a2 2 0 1 0 -4 0z" fill="black"></path><path d="M1414 56 a2 2 0 1 0 4 0 a2 2 0 1 0 -4 0zM902 40 a2 2 0 1 0 4 0 a2 2 0 1 0 -4 0zM374 120 a2 2 0 1 0 4 0 a2 2 0 1 0 -4 0zM710 56 a2 2 0 1 0 4 0 a2 2 0 1 0 -4 0zM1254 40 a2 2 0 1 0 4 0 a2 2 0 1 0 -4 0zM822 72 a2 2 0 1 0 4 0 a2 2 0 1 0 -4 0zM726 40 a2 2 0 1 0 4 0 a2 2 0 1 0 -4 0zM598 72 a2 2 0 1 0 4 0 a2 2 0 1 0 -4 0zM662 88 a2 2 0 1 0 4 0 a2 2 0 1 0 -4 0zM1414 40 a2 2 0 1 0 4 0 a2 2 0 1 0 -4 0zM1206 40 a2 2 0 1 0 4 0 a2 2 0 1 0 -4 0zM982 56 a2 2 0 1 0 4 0 a2 2 0 1 0 -4 0zM150 104 a2 2 0 1 0 4 0 a2 2 0 1 0 -4 0zM1222 88 a2 2 0 1 0 4 0 a2 2 0 1 0 -4 0zM182 88 a2 2 0 1 0 4 0 a2 2 0 1 0 -4 0zM1414 72 a2 2 0 1 0 4 0 a2 2 0 1 0 -4 0zM1318 56 a2 2 0 1 0 4 0 a2 2 0 1 0 -4 0zM1046 40 a2 2 0 1 0 4 0 a2 2 0 1 0 -4 0zM758 40 a2 2 0 1 0 4 0 a2 2 0 1 0 -4 0zM1414 88 a2 2 0 1 0 4 0 a2 2 0 1 0 -4 0zM1014 88 a2 2 0 1 0 4 0 a2 2 0 1 0 -4 0zM1110 88 a2 2 0 1 0 4 0 a2 2 0 1 0 -4 0zM1382 88 a2 2 0 1 0 4 0 a2 2 0 1 0 -4 0z" fill="black"></path></mask></defs></svg>