<svg xmlns="http://www.w3.org/2000/svg" version="1.1" xmlns:xlink="http://www.w3.org/1999/xlink" xmlns:svgjs="http://svgjs.dev/svgjs" width="1440" height="560" preserveAspectRatio="none" viewBox="0 0 1440 560">
    <g mask="url(&quot;#SvgjsMask1864&quot;)" fill="none">
        <g mask="url(&quot;#SvgjsMask1865&quot;)">
            <path d="M1303.5 269.5L1292.5 280.5L1281.5 280.5L1270.5 280.5L1259.5 280.5L1248.5 280.5L1237.5 280.5L1226.5 280.5L1215.5 280.5L1204.5 280.5L1193.5 280.5L1182.5 280.5M951.5 291.5L940.5 302.5L929.5 302.5L918.5 302.5M1314.5 269.5L1303.5 280.5M1094.5 269.5L1083.5 269.5L1072.5 269.5L1061.5 269.5M973.5 280.5L962.5 269.5L951.5 269.5L940.5 269.5L929.5 269.5L918.5 269.5L907.5 269.5L896.5 269.5L885.5 269.5L874.5 269.5L863.5 269.5L852.5 269.5L841.5 269.5L830.5 269.5L819.5 269.5L808.5 269.5L797.5 269.5L786.5 269.5L775.5 269.5L764.5 269.5L753.5 269.5L742.5 258.5L731.5 258.5L720.5 258.5L709.5 258.5L698.5 247.5L687.5 247.5L676.5 247.5L665.5 236.5L654.5 236.5L643.5 236.5L632.5 225.5L621.5 214.5L610.5 214.5L599.5 214.5L588.5 214.5L577.5 214.5L566.5 214.5L555.5 214.5M687.5 324.5L676.5 313.5L665.5 313.5L654.5 313.5L643.5 302.5M1138.5 269.5L1127.5 258.5L1116.5 258.5L1105.5 258.5L1094.5 258.5L1083.5 258.5L1072.5 258.5L1061.5 258.5L1050.5 258.5L1039.5 258.5L1028.5 247.5L1017.5 247.5L1006.5 236.5L995.5 236.5L984.5 236.5L973.5 236.5L962.5 247.5L951.5 258.5L940.5 258.5L929.5 258.5L918.5 258.5L907.5 258.5L896.5 258.5L885.5 258.5L874.5 258.5L863.5 258.5L852.5 258.5M720.5 302.5L709.5 291.5L698.5 291.5L687.5 291.5L676.5 302.5L665.5 302.5L654.5 302.5L643.5 291.5M1336.5 280.5L1325.5 280.5L1314.5 280.5M1083.5 280.5L1072.5 291.5L1061.5 291.5L1050.5 291.5L1039.5 291.5L1028.5 291.5L1017.5 291.5L1006.5 291.5L995.5 291.5L984.5 291.5L973.5 291.5L962.5 291.5L951.5 302.5L940.5 313.5L929.5 313.5L918.5 313.5L907.5 313.5L896.5 313.5M995.5 280.5L984.5 269.5M544.5 313.5L533.5 313.5L522.5 313.5L511.5 313.5L500.5 313.5L489.5 313.5L478.5 313.5L467.5 313.5L456.5 302.5L445.5 302.5L434.5 302.5M786.5 313.5L775.5 324.5L764.5 324.5L753.5 324.5L742.5 313.5M1006.5 280.5L995.5 269.5L984.5 258.5L973.5 258.5L962.5 258.5M1028.5 280.5L1017.5 269.5L1006.5 269.5L995.5 258.5L984.5 247.5M500.5 335.5L489.5 324.5L478.5 324.5L467.5 324.5L456.5 324.5L445.5 313.5L434.5 313.5L423.5 313.5L412.5 313.5L401.5 313.5L390.5 313.5M775.5 313.5L764.5 302.5M632.5 313.5L621.5 324.5L610.5 324.5L599.5 324.5L588.5 324.5M654.5 324.5L643.5 324.5L632.5 324.5L621.5 335.5L610.5 335.5L599.5 335.5L588.5 335.5L577.5 335.5L566.5 335.5L555.5 335.5L544.5 335.5L533.5 335.5L522.5 335.5M1160.5 280.5L1149.5 280.5L1138.5 280.5L1127.5 280.5L1116.5 280.5M962.5 280.5L951.5 280.5M918.5 291.5L907.5 291.5L896.5 291.5L885.5 291.5L874.5 291.5L863.5 280.5L852.5 280.5L841.5 280.5L830.5 280.5L819.5 280.5L808.5 280.5L797.5 280.5L786.5 280.5M1358.5 280.5L1347.5 269.5L1336.5 269.5M1446.5 280.5L1435.5 280.5L1424.5 280.5L1413.5 280.5L1402.5 280.5L1391.5 280.5L1380.5 280.5L1369.5 280.5L1358.5 280.5L1347.5 280.5L1336.5 280.5L1325.5 269.5L1314.5 269.5L1303.5 269.5L1292.5 269.5L1281.5 269.5L1270.5 269.5L1259.5 269.5L1248.5 269.5L1237.5 269.5L1226.5 269.5L1215.5 269.5L1204.5 269.5L1193.5 269.5L1182.5 269.5L1171.5 280.5L1160.5 280.5L1149.5 269.5L1138.5 269.5L1127.5 269.5L1116.5 269.5L1105.5 269.5L1094.5 269.5L1083.5 280.5L1072.5 280.5L1061.5 280.5L1050.5 269.5L1039.5 269.5L1028.5 280.5L1017.5 280.5L1006.5 280.5L995.5 280.5L984.5 280.5L973.5 280.5L962.5 280.5L951.5 291.5L940.5 291.5L929.5 291.5L918.5 291.5L907.5 302.5L896.5 302.5L885.5 313.5L874.5 313.5L863.5 313.5L852.5 313.5L841.5 313.5L830.5 313.5L819.5 313.5L808.5 313.5L797.5 313.5L786.5 313.5L775.5 313.5L764.5 313.5L753.5 302.5L742.5 302.5L731.5 302.5L720.5 302.5L709.5 302.5L698.5 313.5L687.5 324.5L676.5 324.5L665.5 324.5L654.5 324.5L643.5 313.5L632.5 313.5L621.5 313.5L610.5 313.5L599.5 313.5L588.5 313.5L577.5 313.5L566.5 313.5L555.5 313.5L544.5 313.5L533.5 324.5L522.5 324.5L511.5 335.5L500.5 335.5L489.5 335.5L478.5 335.5L467.5 335.5L456.5 335.5L445.5 324.5L434.5 324.5L423.5 324.5" stroke="rgba(251, 191, 36, 0.37)" stroke-width="1.83"></path>
            <path d="M420.75 324.5 a2.75 2.75 0 1 0 5.5 0 a2.75 2.75 0 1 0 -5.5 0zM1179.75 280.5 a2.75 2.75 0 1 0 5.5 0 a2.75 2.75 0 1 0 -5.5 0zM915.75 302.5 a2.75 2.75 0 1 0 5.5 0 a2.75 2.75 0 1 0 -5.5 0zM1300.75 280.5 a2.75 2.75 0 1 0 5.5 0 a2.75 2.75 0 1 0 -5.5 0zM1058.75 269.5 a2.75 2.75 0 1 0 5.5 0 a2.75 2.75 0 1 0 -5.5 0zM552.75 214.5 a2.75 2.75 0 1 0 5.5 0 a2.75 2.75 0 1 0 -5.5 0zM640.75 302.5 a2.75 2.75 0 1 0 5.5 0 a2.75 2.75 0 1 0 -5.5 0zM849.75 258.5 a2.75 2.75 0 1 0 5.5 0 a2.75 2.75 0 1 0 -5.5 0zM640.75 291.5 a2.75 2.75 0 1 0 5.5 0 a2.75 2.75 0 1 0 -5.5 0zM1311.75 280.5 a2.75 2.75 0 1 0 5.5 0 a2.75 2.75 0 1 0 -5.5 0zM893.75 313.5 a2.75 2.75 0 1 0 5.5 0 a2.75 2.75 0 1 0 -5.5 0zM981.75 269.5 a2.75 2.75 0 1 0 5.5 0 a2.75 2.75 0 1 0 -5.5 0zM431.75 302.5 a2.75 2.75 0 1 0 5.5 0 a2.75 2.75 0 1 0 -5.5 0zM739.75 313.5 a2.75 2.75 0 1 0 5.5 0 a2.75 2.75 0 1 0 -5.5 0zM959.75 258.5 a2.75 2.75 0 1 0 5.5 0 a2.75 2.75 0 1 0 -5.5 0zM981.75 247.5 a2.75 2.75 0 1 0 5.5 0 a2.75 2.75 0 1 0 -5.5 0zM387.75 313.5 a2.75 2.75 0 1 0 5.5 0 a2.75 2.75 0 1 0 -5.5 0zM761.75 302.5 a2.75 2.75 0 1 0 5.5 0 a2.75 2.75 0 1 0 -5.5 0zM585.75 324.5 a2.75 2.75 0 1 0 5.5 0 a2.75 2.75 0 1 0 -5.5 0zM519.75 335.5 a2.75 2.75 0 1 0 5.5 0 a2.75 2.75 0 1 0 -5.5 0zM1113.75 280.5 a2.75 2.75 0 1 0 5.5 0 a2.75 2.75 0 1 0 -5.5 0zM948.75 280.5 a2.75 2.75 0 1 0 5.5 0 a2.75 2.75 0 1 0 -5.5 0zM783.75 280.5 a2.75 2.75 0 1 0 5.5 0 a2.75 2.75 0 1 0 -5.5 0zM1333.75 269.5 a2.75 2.75 0 1 0 5.5 0 a2.75 2.75 0 1 0 -5.5 0z" fill="rgba(251, 191, 36, 0.37)"></path>
            <path d="M1380.5 269.5L1369.5 269.5L1358.5 269.5M1215.5 258.5L1204.5 247.5M1171.5 258.5L1160.5 258.5L1149.5 258.5L1138.5 258.5M1193.5 258.5L1182.5 247.5M1325.5 258.5L1314.5 247.5M1237.5 258.5L1226.5 247.5L1215.5 247.5M1446.5 269.5L1435.5 269.5L1424.5 269.5L1413.5 269.5L1402.5 269.5L1391.5 269.5L1380.5 269.5L1369.5 258.5L1358.5 258.5L1347.5 258.5L1336.5 258.5L1325.5 258.5L1314.5 258.5L1303.5 258.5L1292.5 258.5L1281.5 258.5L1270.5 258.5L1259.5 258.5L1248.5 258.5L1237.5 258.5L1226.5 258.5L1215.5 258.5L1204.5 258.5L1193.5 258.5L1182.5 258.5L1171.5 258.5L1160.5 269.5" stroke="rgba(253, 230, 138, 0.48)" stroke-width="1.83"></path>
            <path d="M1157.75 269.5 a2.75 2.75 0 1 0 5.5 0 a2.75 2.75 0 1 0 -5.5 0zM1355.75 269.5 a2.75 2.75 0 1 0 5.5 0 a2.75 2.75 0 1 0 -5.5 0zM1201.75 247.5 a2.75 2.75 0 1 0 5.5 0 a2.75 2.75 0 1 0 -5.5 0zM1135.75 258.5 a2.75 2.75 0 1 0 5.5 0 a2.75 2.75 0 1 0 -5.5 0zM1179.75 247.5 a2.75 2.75 0 1 0 5.5 0 a2.75 2.75 0 1 0 -5.5 0zM1311.75 247.5 a2.75 2.75 0 1 0 5.5 0 a2.75 2.75 0 1 0 -5.5 0zM1212.75 247.5 a2.75 2.75 0 1 0 5.5 0 a2.75 2.75 0 1 0 -5.5 0z" fill="rgba(253, 230, 138, 0.48)"></path>
            <path d="M1292.5 291.5L1281.5 302.5L1270.5 302.5L1259.5 302.5M1303.5 291.5L1292.5 302.5M1193.5 291.5L1182.5 302.5L1171.5 302.5L1160.5 302.5M1347.5 291.5L1336.5 302.5L1325.5 302.5L1314.5 302.5M1226.5 291.5L1215.5 302.5L1204.5 313.5L1193.5 313.5L1182.5 313.5M1248.5 291.5L1237.5 302.5L1226.5 302.5M1446.5 291.5L1435.5 291.5L1424.5 291.5L1413.5 291.5L1402.5 291.5L1391.5 291.5L1380.5 291.5L1369.5 291.5L1358.5 291.5L1347.5 291.5L1336.5 291.5L1325.5 291.5L1314.5 291.5L1303.5 291.5L1292.5 291.5L1281.5 291.5L1270.5 291.5L1259.5 291.5L1248.5 291.5L1237.5 291.5L1226.5 291.5L1215.5 291.5L1204.5 291.5L1193.5 291.5L1182.5 291.5" stroke="rgba(253, 230, 138, 0.48)" stroke-width="1.83"></path>
            <path d="M1179.75 291.5 a2.75 2.75 0 1 0 5.5 0 a2.75 2.75 0 1 0 -5.5 0zM1256.75 302.5 a2.75 2.75 0 1 0 5.5 0 a2.75 2.75 0 1 0 -5.5 0zM1289.75 302.5 a2.75 2.75 0 1 0 5.5 0 a2.75 2.75 0 1 0 -5.5 0zM1157.75 302.5 a2.75 2.75 0 1 0 5.5 0 a2.75 2.75 0 1 0 -5.5 0zM1311.75 302.5 a2.75 2.75 0 1 0 5.5 0 a2.75 2.75 0 1 0 -5.5 0zM1179.75 313.5 a2.75 2.75 0 1 0 5.5 0 a2.75 2.75 0 1 0 -5.5 0zM1223.75 302.5 a2.75 2.75 0 1 0 5.5 0 a2.75 2.75 0 1 0 -5.5 0z" fill="rgba(253, 230, 138, 0.48)"></path>
            <path d="M1028.5 225.5L1017.5 236.5M841.5 225.5L830.5 225.5L819.5 225.5M929.5 236.5L918.5 247.5L907.5 247.5L896.5 247.5M1226.5 236.5L1215.5 225.5L1204.5 225.5L1193.5 225.5L1182.5 225.5L1171.5 225.5L1160.5 225.5L1149.5 225.5L1138.5 225.5L1127.5 236.5L1116.5 236.5L1105.5 236.5L1094.5 236.5M1303.5 247.5L1292.5 236.5L1281.5 236.5L1270.5 225.5L1259.5 225.5L1248.5 225.5L1237.5 225.5L1226.5 225.5M786.5 214.5L775.5 225.5M676.5 225.5L665.5 225.5L654.5 225.5M1050.5 236.5L1039.5 236.5L1028.5 236.5M731.5 225.5L720.5 236.5L709.5 236.5L698.5 236.5L687.5 236.5M698.5 225.5L687.5 214.5L676.5 214.5L665.5 203.5M940.5 236.5L929.5 247.5M1149.5 247.5L1138.5 236.5M742.5 225.5L731.5 236.5M709.5 225.5L698.5 214.5L687.5 203.5M1171.5 247.5L1160.5 236.5L1149.5 236.5M808.5 214.5L797.5 225.5L786.5 236.5L775.5 247.5L764.5 247.5L753.5 247.5L742.5 247.5L731.5 247.5L720.5 247.5L709.5 247.5M885.5 225.5L874.5 236.5L863.5 236.5L852.5 236.5L841.5 236.5L830.5 236.5L819.5 236.5L808.5 236.5L797.5 236.5L786.5 247.5L775.5 258.5L764.5 258.5L753.5 258.5M720.5 225.5L709.5 214.5L698.5 203.5M1446.5 258.5L1435.5 258.5L1424.5 258.5L1413.5 258.5L1402.5 258.5L1391.5 258.5L1380.5 258.5L1369.5 247.5L1358.5 247.5L1347.5 247.5L1336.5 236.5L1325.5 236.5L1314.5 236.5L1303.5 247.5L1292.5 247.5L1281.5 247.5L1270.5 247.5L1259.5 247.5L1248.5 247.5L1237.5 236.5L1226.5 236.5L1215.5 236.5L1204.5 236.5L1193.5 236.5L1182.5 236.5L1171.5 247.5L1160.5 247.5L1149.5 247.5L1138.5 247.5L1127.5 247.5L1116.5 247.5L1105.5 247.5L1094.5 247.5L1083.5 247.5L1072.5 247.5L1061.5 247.5L1050.5 236.5L1039.5 225.5L1028.5 225.5L1017.5 225.5L1006.5 225.5L995.5 225.5L984.5 225.5L973.5 225.5L962.5 236.5L951.5 236.5L940.5 236.5L929.5 236.5L918.5 236.5L907.5 236.5L896.5 225.5L885.5 225.5L874.5 225.5L863.5 225.5L852.5 225.5L841.5 225.5L830.5 214.5L819.5 214.5L808.5 214.5L797.5 214.5L786.5 214.5L775.5 214.5L764.5 225.5L753.5 225.5L742.5 225.5L731.5 225.5L720.5 225.5L709.5 225.5L698.5 225.5L687.5 225.5L676.5 225.5L665.5 214.5" stroke="rgba(253, 230, 138, 0.48)" stroke-width="1.83"></path>
            <path d="M662.75 214.5 a2.75 2.75 0 1 0 5.5 0 a2.75 2.75 0 1 0 -5.5 0zM1014.75 236.5 a2.75 2.75 0 1 0 5.5 0 a2.75 2.75 0 1 0 -5.5 0zM816.75 225.5 a2.75 2.75 0 1 0 5.5 0 a2.75 2.75 0 1 0 -5.5 0zM893.75 247.5 a2.75 2.75 0 1 0 5.5 0 a2.75 2.75 0 1 0 -5.5 0zM1091.75 236.5 a2.75 2.75 0 1 0 5.5 0 a2.75 2.75 0 1 0 -5.5 0zM1223.75 225.5 a2.75 2.75 0 1 0 5.5 0 a2.75 2.75 0 1 0 -5.5 0zM772.75 225.5 a2.75 2.75 0 1 0 5.5 0 a2.75 2.75 0 1 0 -5.5 0zM651.75 225.5 a2.75 2.75 0 1 0 5.5 0 a2.75 2.75 0 1 0 -5.5 0zM1025.75 236.5 a2.75 2.75 0 1 0 5.5 0 a2.75 2.75 0 1 0 -5.5 0zM684.75 236.5 a2.75 2.75 0 1 0 5.5 0 a2.75 2.75 0 1 0 -5.5 0zM662.75 203.5 a2.75 2.75 0 1 0 5.5 0 a2.75 2.75 0 1 0 -5.5 0zM926.75 247.5 a2.75 2.75 0 1 0 5.5 0 a2.75 2.75 0 1 0 -5.5 0zM1135.75 236.5 a2.75 2.75 0 1 0 5.5 0 a2.75 2.75 0 1 0 -5.5 0zM728.75 236.5 a2.75 2.75 0 1 0 5.5 0 a2.75 2.75 0 1 0 -5.5 0zM684.75 203.5 a2.75 2.75 0 1 0 5.5 0 a2.75 2.75 0 1 0 -5.5 0zM1146.75 236.5 a2.75 2.75 0 1 0 5.5 0 a2.75 2.75 0 1 0 -5.5 0zM706.75 247.5 a2.75 2.75 0 1 0 5.5 0 a2.75 2.75 0 1 0 -5.5 0zM750.75 258.5 a2.75 2.75 0 1 0 5.5 0 a2.75 2.75 0 1 0 -5.5 0zM695.75 203.5 a2.75 2.75 0 1 0 5.5 0 a2.75 2.75 0 1 0 -5.5 0z" fill="rgba(253, 230, 138, 0.48)"></path>
            <path d="M1270.5 324.5L1259.5 313.5M1281.5 313.5L1270.5 313.5M1248.5 313.5L1237.5 324.5L1226.5 324.5L1215.5 324.5L1204.5 324.5M1259.5 324.5L1248.5 324.5M1446.5 302.5L1435.5 302.5L1424.5 302.5L1413.5 302.5L1402.5 302.5L1391.5 302.5L1380.5 302.5L1369.5 302.5L1358.5 302.5L1347.5 313.5L1336.5 313.5L1325.5 313.5L1314.5 313.5L1303.5 313.5L1292.5 313.5L1281.5 313.5L1270.5 324.5L1259.5 324.5L1248.5 313.5L1237.5 313.5" stroke="rgba(251, 191, 36, 0.37)" stroke-width="1.83"></path>
            <path d="M1234.75 313.5 a2.75 2.75 0 1 0 5.5 0 a2.75 2.75 0 1 0 -5.5 0zM1256.75 313.5 a2.75 2.75 0 1 0 5.5 0 a2.75 2.75 0 1 0 -5.5 0zM1267.75 313.5 a2.75 2.75 0 1 0 5.5 0 a2.75 2.75 0 1 0 -5.5 0zM1201.75 324.5 a2.75 2.75 0 1 0 5.5 0 a2.75 2.75 0 1 0 -5.5 0zM1245.75 324.5 a2.75 2.75 0 1 0 5.5 0 a2.75 2.75 0 1 0 -5.5 0z" fill="rgba(251, 191, 36, 0.37)"></path>
            <path d="M1446.5 247.5L1435.5 247.5L1424.5 247.5L1413.5 247.5L1402.5 247.5L1391.5 247.5L1380.5 247.5L1369.5 236.5L1358.5 236.5L1347.5 236.5" stroke="rgba(253, 230, 138, 0.48)" stroke-width="1.83"></path>
            <path d="M1344.75 236.5 a2.75 2.75 0 1 0 5.5 0 a2.75 2.75 0 1 0 -5.5 0z" fill="rgba(253, 230, 138, 0.48)"></path>
            <path d="M555.5 346.5L544.5 357.5L533.5 357.5L522.5 357.5L511.5 357.5L500.5 357.5L489.5 357.5L478.5 357.5L467.5 357.5L456.5 357.5L445.5 357.5L434.5 357.5L423.5 357.5M687.5 335.5L676.5 335.5L665.5 335.5L654.5 335.5L643.5 335.5M621.5 346.5L610.5 357.5L599.5 357.5L588.5 357.5L577.5 357.5L566.5 357.5L555.5 357.5L544.5 368.5L533.5 368.5L522.5 368.5L511.5 368.5L500.5 368.5L489.5 368.5L478.5 368.5L467.5 379.5L456.5 379.5L445.5 379.5L434.5 379.5L423.5 368.5L412.5 368.5L401.5 368.5L390.5 368.5L379.5 379.5L368.5 379.5L357.5 379.5L346.5 379.5L335.5 379.5L324.5 379.5L313.5 368.5L302.5 368.5M1149.5 335.5L1138.5 324.5L1127.5 324.5L1116.5 324.5L1105.5 313.5L1094.5 313.5L1083.5 313.5L1072.5 313.5L1061.5 313.5L1050.5 313.5L1039.5 313.5L1028.5 313.5L1017.5 313.5L1006.5 313.5L995.5 313.5L984.5 313.5L973.5 313.5M1105.5 324.5L1094.5 335.5L1083.5 346.5L1072.5 346.5M742.5 335.5L731.5 324.5L720.5 324.5L709.5 324.5L698.5 324.5M1028.5 324.5L1017.5 335.5L1006.5 335.5L995.5 335.5M698.5 335.5L687.5 346.5M819.5 335.5L808.5 324.5L797.5 324.5L786.5 324.5M841.5 324.5L830.5 324.5L819.5 324.5M456.5 346.5L445.5 346.5L434.5 346.5M665.5 346.5L654.5 357.5L643.5 357.5L632.5 357.5L621.5 357.5L610.5 368.5L599.5 368.5L588.5 368.5L577.5 368.5L566.5 368.5L555.5 368.5M412.5 346.5L401.5 357.5M731.5 335.5L720.5 346.5L709.5 346.5M1050.5 324.5L1039.5 335.5L1028.5 335.5M1061.5 324.5L1050.5 335.5M1160.5 335.5L1149.5 324.5L1138.5 313.5L1127.5 313.5M1116.5 335.5L1105.5 335.5L1094.5 346.5M1083.5 324.5L1072.5 335.5L1061.5 335.5L1050.5 346.5M390.5 357.5L379.5 346.5L368.5 346.5L357.5 357.5L346.5 357.5L335.5 368.5L324.5 368.5L313.5 357.5M962.5 324.5L951.5 313.5M1171.5 335.5L1160.5 324.5L1149.5 313.5L1138.5 302.5L1127.5 302.5L1116.5 302.5L1105.5 302.5L1094.5 302.5L1083.5 302.5L1072.5 302.5L1061.5 302.5L1050.5 302.5L1039.5 302.5L1028.5 302.5L1017.5 302.5L1006.5 302.5L995.5 302.5L984.5 302.5L973.5 302.5L962.5 302.5M401.5 346.5L390.5 346.5L379.5 335.5L368.5 324.5L357.5 324.5L346.5 324.5L335.5 335.5L324.5 335.5L313.5 335.5L302.5 335.5L291.5 335.5L280.5 346.5L269.5 346.5L258.5 346.5L247.5 346.5L236.5 346.5L225.5 346.5L214.5 357.5L203.5 357.5L192.5 357.5L181.5 357.5L170.5 357.5L159.5 357.5L148.5 357.5L137.5 357.5L126.5 357.5M1193.5 335.5L1182.5 324.5L1171.5 324.5L1160.5 313.5M1446.5 313.5L1435.5 313.5L1424.5 313.5L1413.5 313.5L1402.5 313.5L1391.5 313.5L1380.5 313.5L1369.5 313.5L1358.5 313.5L1347.5 324.5L1336.5 324.5L1325.5 324.5L1314.5 324.5L1303.5 324.5L1292.5 324.5L1281.5 324.5L1270.5 335.5L1259.5 335.5L1248.5 335.5L1237.5 335.5L1226.5 335.5L1215.5 335.5L1204.5 335.5L1193.5 335.5L1182.5 335.5L1171.5 335.5L1160.5 335.5L1149.5 335.5L1138.5 335.5L1127.5 335.5L1116.5 335.5L1105.5 324.5L1094.5 324.5L1083.5 324.5L1072.5 324.5L1061.5 324.5L1050.5 324.5L1039.5 324.5L1028.5 324.5L1017.5 324.5L1006.5 324.5L995.5 324.5L984.5 324.5L973.5 324.5L962.5 324.5L951.5 324.5L940.5 324.5L929.5 324.5L918.5 324.5L907.5 324.5L896.5 324.5L885.5 324.5L874.5 324.5L863.5 324.5L852.5 324.5L841.5 324.5L830.5 335.5L819.5 335.5L808.5 335.5L797.5 335.5L786.5 335.5L775.5 335.5L764.5 335.5L753.5 335.5L742.5 335.5L731.5 335.5L720.5 335.5L709.5 335.5L698.5 335.5L687.5 335.5L676.5 346.5L665.5 346.5L654.5 346.5L643.5 346.5L632.5 346.5L621.5 346.5L610.5 346.5L599.5 346.5L588.5 346.5L577.5 346.5L566.5 346.5L555.5 346.5L544.5 346.5L533.5 346.5L522.5 346.5L511.5 346.5L500.5 346.5L489.5 346.5L478.5 346.5L467.5 346.5L456.5 346.5L445.5 335.5L434.5 335.5L423.5 346.5L412.5 346.5L401.5 346.5L390.5 357.5L379.5 357.5" stroke="rgba(253, 230, 138, 0.48)" stroke-width="1.83"></path>
            <path d="M376.75 357.5 a2.75 2.75 0 1 0 5.5 0 a2.75 2.75 0 1 0 -5.5 0zM420.75 357.5 a2.75 2.75 0 1 0 5.5 0 a2.75 2.75 0 1 0 -5.5 0zM640.75 335.5 a2.75 2.75 0 1 0 5.5 0 a2.75 2.75 0 1 0 -5.5 0zM299.75 368.5 a2.75 2.75 0 1 0 5.5 0 a2.75 2.75 0 1 0 -5.5 0zM970.75 313.5 a2.75 2.75 0 1 0 5.5 0 a2.75 2.75 0 1 0 -5.5 0zM1069.75 346.5 a2.75 2.75 0 1 0 5.5 0 a2.75 2.75 0 1 0 -5.5 0zM695.75 324.5 a2.75 2.75 0 1 0 5.5 0 a2.75 2.75 0 1 0 -5.5 0zM992.75 335.5 a2.75 2.75 0 1 0 5.5 0 a2.75 2.75 0 1 0 -5.5 0zM684.75 346.5 a2.75 2.75 0 1 0 5.5 0 a2.75 2.75 0 1 0 -5.5 0zM783.75 324.5 a2.75 2.75 0 1 0 5.5 0 a2.75 2.75 0 1 0 -5.5 0zM816.75 324.5 a2.75 2.75 0 1 0 5.5 0 a2.75 2.75 0 1 0 -5.5 0zM431.75 346.5 a2.75 2.75 0 1 0 5.5 0 a2.75 2.75 0 1 0 -5.5 0zM552.75 368.5 a2.75 2.75 0 1 0 5.5 0 a2.75 2.75 0 1 0 -5.5 0zM398.75 357.5 a2.75 2.75 0 1 0 5.5 0 a2.75 2.75 0 1 0 -5.5 0zM706.75 346.5 a2.75 2.75 0 1 0 5.5 0 a2.75 2.75 0 1 0 -5.5 0zM1025.75 335.5 a2.75 2.75 0 1 0 5.5 0 a2.75 2.75 0 1 0 -5.5 0zM1047.75 335.5 a2.75 2.75 0 1 0 5.5 0 a2.75 2.75 0 1 0 -5.5 0zM1124.75 313.5 a2.75 2.75 0 1 0 5.5 0 a2.75 2.75 0 1 0 -5.5 0zM1091.75 346.5 a2.75 2.75 0 1 0 5.5 0 a2.75 2.75 0 1 0 -5.5 0zM1047.75 346.5 a2.75 2.75 0 1 0 5.5 0 a2.75 2.75 0 1 0 -5.5 0zM310.75 357.5 a2.75 2.75 0 1 0 5.5 0 a2.75 2.75 0 1 0 -5.5 0zM948.75 313.5 a2.75 2.75 0 1 0 5.5 0 a2.75 2.75 0 1 0 -5.5 0zM959.75 302.5 a2.75 2.75 0 1 0 5.5 0 a2.75 2.75 0 1 0 -5.5 0zM123.75 357.5 a2.75 2.75 0 1 0 5.5 0 a2.75 2.75 0 1 0 -5.5 0zM1157.75 313.5 a2.75 2.75 0 1 0 5.5 0 a2.75 2.75 0 1 0 -5.5 0z" fill="rgba(253, 230, 138, 0.48)"></path>
            <path d="M1446.5 236.5L1435.5 236.5L1424.5 236.5L1413.5 236.5L1402.5 236.5L1391.5 236.5L1380.5 225.5L1369.5 225.5L1358.5 225.5L1347.5 225.5L1336.5 225.5L1325.5 225.5L1314.5 225.5" stroke="rgba(253, 230, 138, 0.48)" stroke-width="1.83"></path>
            <path d="M1311.75 225.5 a2.75 2.75 0 1 0 5.5 0 a2.75 2.75 0 1 0 -5.5 0z" fill="rgba(253, 230, 138, 0.48)"></path>
            <path d="M830.5 346.5L819.5 357.5L808.5 357.5L797.5 357.5L786.5 357.5L775.5 357.5L764.5 357.5L753.5 357.5M1259.5 346.5L1248.5 357.5L1237.5 357.5L1226.5 357.5M984.5 335.5L973.5 346.5L962.5 346.5L951.5 346.5L940.5 357.5L929.5 357.5L918.5 357.5L907.5 357.5L896.5 357.5L885.5 357.5L874.5 357.5L863.5 357.5L852.5 357.5L841.5 357.5L830.5 357.5M1006.5 346.5L995.5 357.5L984.5 357.5L973.5 357.5L962.5 357.5L951.5 357.5L940.5 368.5L929.5 368.5L918.5 368.5M1017.5 346.5L1006.5 357.5L995.5 368.5L984.5 368.5L973.5 368.5L962.5 368.5L951.5 368.5M885.5 335.5L874.5 346.5L863.5 346.5L852.5 346.5L841.5 346.5M929.5 335.5L918.5 346.5L907.5 346.5L896.5 346.5L885.5 346.5M1039.5 346.5L1028.5 357.5L1017.5 357.5L1006.5 368.5M1050.5 357.5L1039.5 357.5L1028.5 368.5L1017.5 368.5M1160.5 346.5L1149.5 357.5L1138.5 357.5L1127.5 357.5M1380.5 324.5L1369.5 335.5L1358.5 335.5M1127.5 346.5L1116.5 346.5L1105.5 346.5M995.5 346.5L984.5 346.5M940.5 335.5L929.5 346.5M1446.5 324.5L1435.5 324.5L1424.5 324.5L1413.5 324.5L1402.5 324.5L1391.5 324.5L1380.5 324.5L1369.5 324.5L1358.5 324.5L1347.5 335.5L1336.5 335.5L1325.5 335.5L1314.5 335.5L1303.5 335.5L1292.5 335.5L1281.5 335.5L1270.5 346.5L1259.5 346.5L1248.5 346.5L1237.5 346.5L1226.5 346.5L1215.5 346.5L1204.5 346.5L1193.5 346.5L1182.5 346.5L1171.5 346.5L1160.5 346.5L1149.5 346.5L1138.5 346.5L1127.5 346.5L1116.5 357.5L1105.5 357.5L1094.5 357.5L1083.5 357.5L1072.5 357.5L1061.5 357.5L1050.5 357.5L1039.5 346.5L1028.5 346.5L1017.5 346.5L1006.5 346.5L995.5 346.5L984.5 335.5L973.5 335.5L962.5 335.5L951.5 335.5L940.5 335.5L929.5 335.5L918.5 335.5L907.5 335.5L896.5 335.5L885.5 335.5L874.5 335.5L863.5 335.5L852.5 335.5L841.5 335.5L830.5 346.5L819.5 346.5L808.5 346.5L797.5 346.5L786.5 346.5L775.5 346.5L764.5 346.5L753.5 346.5L742.5 346.5" stroke="rgba(251, 191, 36, 0.37)" stroke-width="1.83"></path>
            <path d="M739.75 346.5 a2.75 2.75 0 1 0 5.5 0 a2.75 2.75 0 1 0 -5.5 0zM750.75 357.5 a2.75 2.75 0 1 0 5.5 0 a2.75 2.75 0 1 0 -5.5 0zM1223.75 357.5 a2.75 2.75 0 1 0 5.5 0 a2.75 2.75 0 1 0 -5.5 0zM827.75 357.5 a2.75 2.75 0 1 0 5.5 0 a2.75 2.75 0 1 0 -5.5 0zM915.75 368.5 a2.75 2.75 0 1 0 5.5 0 a2.75 2.75 0 1 0 -5.5 0zM948.75 368.5 a2.75 2.75 0 1 0 5.5 0 a2.75 2.75 0 1 0 -5.5 0zM838.75 346.5 a2.75 2.75 0 1 0 5.5 0 a2.75 2.75 0 1 0 -5.5 0zM882.75 346.5 a2.75 2.75 0 1 0 5.5 0 a2.75 2.75 0 1 0 -5.5 0zM1003.75 368.5 a2.75 2.75 0 1 0 5.5 0 a2.75 2.75 0 1 0 -5.5 0zM1014.75 368.5 a2.75 2.75 0 1 0 5.5 0 a2.75 2.75 0 1 0 -5.5 0zM1124.75 357.5 a2.75 2.75 0 1 0 5.5 0 a2.75 2.75 0 1 0 -5.5 0zM1355.75 335.5 a2.75 2.75 0 1 0 5.5 0 a2.75 2.75 0 1 0 -5.5 0zM1102.75 346.5 a2.75 2.75 0 1 0 5.5 0 a2.75 2.75 0 1 0 -5.5 0zM981.75 346.5 a2.75 2.75 0 1 0 5.5 0 a2.75 2.75 0 1 0 -5.5 0zM926.75 346.5 a2.75 2.75 0 1 0 5.5 0 a2.75 2.75 0 1 0 -5.5 0z" fill="rgba(251, 191, 36, 0.37)"></path>
            <path d="M1072.5 203.5L1061.5 214.5L1050.5 225.5M1061.5 203.5L1050.5 203.5L1039.5 203.5L1028.5 203.5L1017.5 203.5M951.5 214.5L940.5 225.5L929.5 225.5L918.5 225.5L907.5 225.5M632.5 181.5L621.5 192.5L610.5 192.5M764.5 203.5L753.5 214.5L742.5 214.5L731.5 214.5M1116.5 214.5L1105.5 225.5L1094.5 225.5L1083.5 236.5L1072.5 236.5L1061.5 236.5M797.5 192.5L786.5 203.5M940.5 214.5L929.5 203.5L918.5 203.5L907.5 203.5L896.5 203.5L885.5 203.5L874.5 203.5L863.5 203.5M852.5 214.5L841.5 203.5L830.5 192.5M984.5 214.5L973.5 203.5L962.5 203.5L951.5 203.5M720.5 192.5L709.5 203.5M1127.5 214.5L1116.5 225.5M1105.5 214.5L1094.5 203.5L1083.5 203.5M808.5 203.5L797.5 203.5M1083.5 214.5L1072.5 225.5L1061.5 225.5M654.5 181.5L643.5 192.5L632.5 203.5L621.5 203.5L610.5 203.5L599.5 203.5L588.5 203.5L577.5 192.5L566.5 192.5L555.5 192.5L544.5 181.5L533.5 181.5L522.5 181.5L511.5 181.5L500.5 181.5L489.5 181.5L478.5 181.5L467.5 181.5L456.5 181.5L445.5 181.5L434.5 181.5L423.5 181.5L412.5 181.5L401.5 170.5L390.5 170.5L379.5 170.5L368.5 170.5L357.5 170.5L346.5 170.5L335.5 170.5L324.5 170.5L313.5 170.5L302.5 159.5L291.5 159.5M665.5 181.5L654.5 192.5L643.5 203.5L632.5 214.5M1006.5 214.5L995.5 203.5L984.5 203.5L973.5 192.5L962.5 192.5M731.5 203.5L720.5 203.5M1446.5 225.5L1435.5 225.5L1424.5 225.5L1413.5 225.5L1402.5 225.5L1391.5 225.5L1380.5 214.5L1369.5 214.5L1358.5 214.5L1347.5 214.5L1336.5 214.5L1325.5 214.5L1314.5 214.5L1303.5 214.5L1292.5 214.5L1281.5 214.5L1270.5 214.5L1259.5 214.5L1248.5 214.5L1237.5 214.5L1226.5 214.5L1215.5 214.5L1204.5 214.5L1193.5 214.5L1182.5 214.5L1171.5 214.5L1160.5 214.5L1149.5 214.5L1138.5 214.5L1127.5 214.5L1116.5 214.5L1105.5 214.5L1094.5 214.5L1083.5 214.5L1072.5 203.5L1061.5 203.5L1050.5 214.5L1039.5 214.5L1028.5 214.5L1017.5 214.5L1006.5 214.5L995.5 214.5L984.5 214.5L973.5 214.5L962.5 214.5L951.5 214.5L940.5 214.5L929.5 214.5L918.5 214.5L907.5 214.5L896.5 214.5L885.5 214.5L874.5 214.5L863.5 214.5L852.5 214.5L841.5 214.5L830.5 203.5L819.5 203.5L808.5 203.5L797.5 192.5L786.5 192.5L775.5 203.5L764.5 203.5L753.5 203.5L742.5 203.5L731.5 203.5L720.5 192.5L709.5 192.5L698.5 192.5L687.5 192.5L676.5 192.5L665.5 181.5L654.5 181.5L643.5 181.5L632.5 181.5L621.5 181.5L610.5 181.5L599.5 181.5" stroke="rgba(251, 191, 36, 0.37)" stroke-width="1.83"></path>
            <path d="M596.75 181.5 a2.75 2.75 0 1 0 5.5 0 a2.75 2.75 0 1 0 -5.5 0zM1047.75 225.5 a2.75 2.75 0 1 0 5.5 0 a2.75 2.75 0 1 0 -5.5 0zM1014.75 203.5 a2.75 2.75 0 1 0 5.5 0 a2.75 2.75 0 1 0 -5.5 0zM904.75 225.5 a2.75 2.75 0 1 0 5.5 0 a2.75 2.75 0 1 0 -5.5 0zM607.75 192.5 a2.75 2.75 0 1 0 5.5 0 a2.75 2.75 0 1 0 -5.5 0zM728.75 214.5 a2.75 2.75 0 1 0 5.5 0 a2.75 2.75 0 1 0 -5.5 0zM1058.75 236.5 a2.75 2.75 0 1 0 5.5 0 a2.75 2.75 0 1 0 -5.5 0zM783.75 203.5 a2.75 2.75 0 1 0 5.5 0 a2.75 2.75 0 1 0 -5.5 0zM860.75 203.5 a2.75 2.75 0 1 0 5.5 0 a2.75 2.75 0 1 0 -5.5 0zM827.75 192.5 a2.75 2.75 0 1 0 5.5 0 a2.75 2.75 0 1 0 -5.5 0zM948.75 203.5 a2.75 2.75 0 1 0 5.5 0 a2.75 2.75 0 1 0 -5.5 0zM706.75 203.5 a2.75 2.75 0 1 0 5.5 0 a2.75 2.75 0 1 0 -5.5 0zM1113.75 225.5 a2.75 2.75 0 1 0 5.5 0 a2.75 2.75 0 1 0 -5.5 0zM1080.75 203.5 a2.75 2.75 0 1 0 5.5 0 a2.75 2.75 0 1 0 -5.5 0zM794.75 203.5 a2.75 2.75 0 1 0 5.5 0 a2.75 2.75 0 1 0 -5.5 0zM1058.75 225.5 a2.75 2.75 0 1 0 5.5 0 a2.75 2.75 0 1 0 -5.5 0zM288.75 159.5 a2.75 2.75 0 1 0 5.5 0 a2.75 2.75 0 1 0 -5.5 0zM629.75 214.5 a2.75 2.75 0 1 0 5.5 0 a2.75 2.75 0 1 0 -5.5 0zM959.75 192.5 a2.75 2.75 0 1 0 5.5 0 a2.75 2.75 0 1 0 -5.5 0zM717.75 203.5 a2.75 2.75 0 1 0 5.5 0 a2.75 2.75 0 1 0 -5.5 0z" fill="rgba(251, 191, 36, 0.37)"></path>
            <path d="M808.5 368.5L797.5 379.5L786.5 379.5M841.5 368.5L830.5 379.5L819.5 379.5L808.5 379.5L797.5 390.5L786.5 390.5L775.5 390.5L764.5 401.5L753.5 401.5L742.5 401.5L731.5 401.5L720.5 401.5L709.5 401.5L698.5 390.5L687.5 390.5L676.5 401.5L665.5 401.5L654.5 401.5L643.5 401.5L632.5 401.5L621.5 412.5L610.5 412.5M434.5 390.5L423.5 390.5L412.5 401.5L401.5 401.5L390.5 401.5L379.5 412.5L368.5 412.5L357.5 412.5L346.5 412.5L335.5 412.5L324.5 412.5L313.5 412.5L302.5 412.5L291.5 412.5L280.5 412.5L269.5 412.5L258.5 412.5L247.5 412.5L236.5 412.5M852.5 368.5L841.5 379.5L830.5 390.5L819.5 390.5L808.5 390.5L797.5 401.5L786.5 401.5L775.5 401.5M456.5 390.5L445.5 401.5L434.5 412.5L423.5 412.5L412.5 423.5L401.5 423.5L390.5 423.5L379.5 423.5L368.5 423.5L357.5 423.5L346.5 423.5M1160.5 368.5L1149.5 379.5L1138.5 379.5L1127.5 379.5L1116.5 379.5L1105.5 379.5L1094.5 379.5L1083.5 379.5L1072.5 379.5L1061.5 379.5L1050.5 379.5M676.5 390.5L665.5 379.5L654.5 379.5L643.5 379.5L632.5 379.5L621.5 379.5L610.5 379.5L599.5 379.5L588.5 379.5L577.5 379.5L566.5 390.5L555.5 390.5L544.5 390.5L533.5 390.5L522.5 390.5L511.5 390.5L500.5 390.5L489.5 390.5L478.5 390.5L467.5 390.5M1270.5 357.5L1259.5 357.5M1391.5 335.5L1380.5 335.5M731.5 379.5L720.5 368.5L709.5 368.5L698.5 368.5L687.5 368.5L676.5 368.5L665.5 368.5L654.5 368.5L643.5 368.5L632.5 368.5L621.5 368.5M720.5 379.5L709.5 390.5M764.5 368.5L753.5 379.5L742.5 379.5L731.5 390.5L720.5 390.5M467.5 401.5L456.5 401.5L445.5 412.5L434.5 423.5M1204.5 357.5L1193.5 368.5L1182.5 368.5M918.5 379.5L907.5 379.5L896.5 379.5L885.5 379.5L874.5 379.5L863.5 379.5L852.5 379.5L841.5 390.5L830.5 401.5L819.5 401.5L808.5 401.5M610.5 401.5L599.5 390.5L588.5 390.5L577.5 390.5M929.5 379.5L918.5 390.5L907.5 390.5L896.5 390.5L885.5 390.5L874.5 390.5L863.5 390.5L852.5 390.5L841.5 401.5M566.5 401.5L555.5 412.5L544.5 412.5L533.5 412.5L522.5 412.5L511.5 412.5L500.5 412.5L489.5 412.5L478.5 412.5L467.5 423.5L456.5 423.5L445.5 434.5L434.5 434.5L423.5 434.5L412.5 445.5L401.5 445.5L390.5 445.5L379.5 445.5L368.5 445.5L357.5 445.5L346.5 445.5L335.5 434.5L324.5 434.5L313.5 434.5L302.5 434.5L291.5 434.5L280.5 434.5L269.5 434.5L258.5 434.5L247.5 434.5L236.5 423.5L225.5 423.5L214.5 423.5L203.5 423.5L192.5 423.5M412.5 379.5L401.5 390.5L390.5 390.5L379.5 401.5L368.5 401.5L357.5 401.5L346.5 401.5L335.5 401.5L324.5 401.5L313.5 401.5L302.5 401.5L291.5 401.5L280.5 401.5L269.5 401.5L258.5 390.5L247.5 390.5L236.5 390.5L225.5 390.5L214.5 390.5M940.5 379.5L929.5 390.5M588.5 401.5L577.5 412.5M1171.5 357.5L1160.5 357.5M1050.5 368.5L1039.5 368.5M775.5 368.5L764.5 379.5L753.5 390.5L742.5 390.5M1446.5 335.5L1435.5 335.5L1424.5 335.5L1413.5 335.5L1402.5 335.5L1391.5 335.5L1380.5 346.5L1369.5 346.5L1358.5 346.5L1347.5 346.5L1336.5 346.5L1325.5 346.5L1314.5 346.5L1303.5 346.5L1292.5 346.5L1281.5 346.5L1270.5 357.5L1259.5 368.5L1248.5 368.5L1237.5 368.5L1226.5 368.5L1215.5 357.5L1204.5 357.5L1193.5 357.5L1182.5 357.5L1171.5 357.5L1160.5 368.5L1149.5 368.5L1138.5 368.5L1127.5 368.5L1116.5 368.5L1105.5 368.5L1094.5 368.5L1083.5 368.5L1072.5 368.5L1061.5 368.5L1050.5 368.5L1039.5 379.5L1028.5 379.5L1017.5 379.5L1006.5 379.5L995.5 379.5L984.5 379.5L973.5 379.5L962.5 379.5L951.5 379.5L940.5 379.5L929.5 379.5L918.5 379.5L907.5 368.5L896.5 368.5L885.5 368.5L874.5 368.5L863.5 368.5L852.5 368.5L841.5 368.5L830.5 368.5L819.5 368.5L808.5 368.5L797.5 368.5L786.5 368.5L775.5 368.5L764.5 368.5L753.5 368.5L742.5 368.5L731.5 379.5L720.5 379.5L709.5 379.5L698.5 379.5L687.5 379.5L676.5 390.5L665.5 390.5L654.5 390.5L643.5 390.5L632.5 390.5L621.5 401.5L610.5 401.5L599.5 401.5L588.5 401.5L577.5 401.5L566.5 401.5L555.5 401.5L544.5 401.5L533.5 401.5L522.5 401.5L511.5 401.5L500.5 401.5L489.5 401.5L478.5 401.5L467.5 401.5L456.5 390.5L445.5 390.5L434.5 390.5L423.5 379.5L412.5 379.5L401.5 379.5" stroke="rgba(251, 191, 36, 0.37)" stroke-width="1.83"></path>
            <path d="M398.75 379.5 a2.75 2.75 0 1 0 5.5 0 a2.75 2.75 0 1 0 -5.5 0zM783.75 379.5 a2.75 2.75 0 1 0 5.5 0 a2.75 2.75 0 1 0 -5.5 0zM607.75 412.5 a2.75 2.75 0 1 0 5.5 0 a2.75 2.75 0 1 0 -5.5 0zM233.75 412.5 a2.75 2.75 0 1 0 5.5 0 a2.75 2.75 0 1 0 -5.5 0zM772.75 401.5 a2.75 2.75 0 1 0 5.5 0 a2.75 2.75 0 1 0 -5.5 0zM343.75 423.5 a2.75 2.75 0 1 0 5.5 0 a2.75 2.75 0 1 0 -5.5 0zM1047.75 379.5 a2.75 2.75 0 1 0 5.5 0 a2.75 2.75 0 1 0 -5.5 0zM464.75 390.5 a2.75 2.75 0 1 0 5.5 0 a2.75 2.75 0 1 0 -5.5 0zM1256.75 357.5 a2.75 2.75 0 1 0 5.5 0 a2.75 2.75 0 1 0 -5.5 0zM1377.75 335.5 a2.75 2.75 0 1 0 5.5 0 a2.75 2.75 0 1 0 -5.5 0zM618.75 368.5 a2.75 2.75 0 1 0 5.5 0 a2.75 2.75 0 1 0 -5.5 0zM706.75 390.5 a2.75 2.75 0 1 0 5.5 0 a2.75 2.75 0 1 0 -5.5 0zM717.75 390.5 a2.75 2.75 0 1 0 5.5 0 a2.75 2.75 0 1 0 -5.5 0zM431.75 423.5 a2.75 2.75 0 1 0 5.5 0 a2.75 2.75 0 1 0 -5.5 0zM1179.75 368.5 a2.75 2.75 0 1 0 5.5 0 a2.75 2.75 0 1 0 -5.5 0zM805.75 401.5 a2.75 2.75 0 1 0 5.5 0 a2.75 2.75 0 1 0 -5.5 0zM574.75 390.5 a2.75 2.75 0 1 0 5.5 0 a2.75 2.75 0 1 0 -5.5 0zM838.75 401.5 a2.75 2.75 0 1 0 5.5 0 a2.75 2.75 0 1 0 -5.5 0zM189.75 423.5 a2.75 2.75 0 1 0 5.5 0 a2.75 2.75 0 1 0 -5.5 0zM211.75 390.5 a2.75 2.75 0 1 0 5.5 0 a2.75 2.75 0 1 0 -5.5 0zM926.75 390.5 a2.75 2.75 0 1 0 5.5 0 a2.75 2.75 0 1 0 -5.5 0zM574.75 412.5 a2.75 2.75 0 1 0 5.5 0 a2.75 2.75 0 1 0 -5.5 0zM1157.75 357.5 a2.75 2.75 0 1 0 5.5 0 a2.75 2.75 0 1 0 -5.5 0zM1036.75 368.5 a2.75 2.75 0 1 0 5.5 0 a2.75 2.75 0 1 0 -5.5 0zM739.75 390.5 a2.75 2.75 0 1 0 5.5 0 a2.75 2.75 0 1 0 -5.5 0z" fill="rgba(251, 191, 36, 0.37)"></path>
            <path d="M632.5 170.5L621.5 159.5L610.5 159.5L599.5 159.5L588.5 148.5L577.5 137.5M819.5 192.5L808.5 181.5L797.5 170.5L786.5 170.5L775.5 170.5L764.5 170.5L753.5 170.5L742.5 170.5L731.5 170.5L720.5 170.5L709.5 170.5L698.5 170.5L687.5 170.5L676.5 170.5L665.5 159.5L654.5 159.5L643.5 159.5L632.5 159.5L621.5 148.5L610.5 148.5L599.5 148.5L588.5 137.5M764.5 192.5L753.5 181.5L742.5 181.5L731.5 181.5M995.5 181.5L984.5 192.5M577.5 148.5L566.5 159.5L555.5 159.5L544.5 159.5L533.5 159.5L522.5 159.5L511.5 170.5L500.5 170.5L489.5 170.5L478.5 170.5L467.5 159.5L456.5 159.5L445.5 159.5L434.5 159.5L423.5 159.5L412.5 159.5L401.5 159.5L390.5 159.5L379.5 159.5L368.5 159.5L357.5 159.5L346.5 159.5L335.5 159.5L324.5 159.5L313.5 159.5L302.5 148.5L291.5 148.5L280.5 148.5L269.5 148.5L258.5 148.5L247.5 148.5L236.5 148.5M775.5 192.5L764.5 181.5M566.5 148.5L555.5 137.5L544.5 137.5L533.5 137.5L522.5 137.5L511.5 137.5L500.5 137.5L489.5 137.5L478.5 137.5L467.5 137.5L456.5 137.5L445.5 137.5L434.5 137.5L423.5 137.5L412.5 137.5L401.5 137.5L390.5 137.5L379.5 137.5L368.5 137.5L357.5 137.5M786.5 181.5L775.5 181.5M1116.5 203.5L1105.5 203.5M907.5 181.5L896.5 192.5M1226.5 203.5L1215.5 192.5M588.5 159.5L577.5 170.5L566.5 170.5L555.5 170.5L544.5 170.5L533.5 170.5L522.5 170.5M599.5 170.5L588.5 170.5L577.5 181.5L566.5 181.5L555.5 181.5M1336.5 203.5L1325.5 192.5L1314.5 192.5L1303.5 192.5L1292.5 192.5M852.5 181.5L841.5 192.5M874.5 181.5L863.5 192.5L852.5 192.5M918.5 181.5L907.5 192.5M951.5 181.5L940.5 192.5L929.5 192.5L918.5 192.5M1248.5 203.5L1237.5 192.5L1226.5 192.5L1215.5 181.5M1050.5 192.5L1039.5 192.5L1028.5 192.5L1017.5 192.5L1006.5 192.5L995.5 192.5M841.5 181.5L830.5 170.5L819.5 170.5L808.5 170.5L797.5 159.5M1446.5 214.5L1435.5 214.5L1424.5 214.5L1413.5 214.5L1402.5 214.5L1391.5 214.5L1380.5 203.5L1369.5 203.5L1358.5 203.5L1347.5 203.5L1336.5 203.5L1325.5 203.5L1314.5 203.5L1303.5 203.5L1292.5 203.5L1281.5 203.5L1270.5 203.5L1259.5 203.5L1248.5 203.5L1237.5 203.5L1226.5 203.5L1215.5 203.5L1204.5 203.5L1193.5 203.5L1182.5 203.5L1171.5 203.5L1160.5 203.5L1149.5 203.5L1138.5 203.5L1127.5 203.5L1116.5 203.5L1105.5 192.5L1094.5 192.5L1083.5 192.5L1072.5 192.5L1061.5 192.5L1050.5 192.5L1039.5 181.5L1028.5 181.5L1017.5 181.5L1006.5 181.5L995.5 181.5L984.5 181.5L973.5 181.5L962.5 181.5L951.5 181.5L940.5 181.5L929.5 181.5L918.5 181.5L907.5 181.5L896.5 181.5L885.5 181.5L874.5 181.5L863.5 181.5L852.5 181.5L841.5 181.5L830.5 181.5L819.5 192.5L808.5 192.5L797.5 181.5L786.5 181.5L775.5 192.5L764.5 192.5L753.5 192.5L742.5 192.5L731.5 192.5L720.5 181.5L709.5 181.5L698.5 181.5L687.5 181.5L676.5 181.5L665.5 170.5L654.5 170.5L643.5 170.5L632.5 170.5L621.5 170.5L610.5 170.5L599.5 170.5L588.5 159.5L577.5 148.5L566.5 148.5L555.5 148.5L544.5 148.5L533.5 148.5L522.5 148.5L511.5 159.5" stroke="rgba(253, 230, 138, 0.48)" stroke-width="1.83"></path>
            <path d="M508.75 159.5 a2.75 2.75 0 1 0 5.5 0 a2.75 2.75 0 1 0 -5.5 0zM574.75 137.5 a2.75 2.75 0 1 0 5.5 0 a2.75 2.75 0 1 0 -5.5 0zM585.75 137.5 a2.75 2.75 0 1 0 5.5 0 a2.75 2.75 0 1 0 -5.5 0zM728.75 181.5 a2.75 2.75 0 1 0 5.5 0 a2.75 2.75 0 1 0 -5.5 0zM981.75 192.5 a2.75 2.75 0 1 0 5.5 0 a2.75 2.75 0 1 0 -5.5 0zM233.75 148.5 a2.75 2.75 0 1 0 5.5 0 a2.75 2.75 0 1 0 -5.5 0zM761.75 181.5 a2.75 2.75 0 1 0 5.5 0 a2.75 2.75 0 1 0 -5.5 0zM354.75 137.5 a2.75 2.75 0 1 0 5.5 0 a2.75 2.75 0 1 0 -5.5 0zM772.75 181.5 a2.75 2.75 0 1 0 5.5 0 a2.75 2.75 0 1 0 -5.5 0zM1102.75 203.5 a2.75 2.75 0 1 0 5.5 0 a2.75 2.75 0 1 0 -5.5 0zM893.75 192.5 a2.75 2.75 0 1 0 5.5 0 a2.75 2.75 0 1 0 -5.5 0zM1212.75 192.5 a2.75 2.75 0 1 0 5.5 0 a2.75 2.75 0 1 0 -5.5 0zM519.75 170.5 a2.75 2.75 0 1 0 5.5 0 a2.75 2.75 0 1 0 -5.5 0zM552.75 181.5 a2.75 2.75 0 1 0 5.5 0 a2.75 2.75 0 1 0 -5.5 0zM1289.75 192.5 a2.75 2.75 0 1 0 5.5 0 a2.75 2.75 0 1 0 -5.5 0zM838.75 192.5 a2.75 2.75 0 1 0 5.5 0 a2.75 2.75 0 1 0 -5.5 0zM849.75 192.5 a2.75 2.75 0 1 0 5.5 0 a2.75 2.75 0 1 0 -5.5 0zM904.75 192.5 a2.75 2.75 0 1 0 5.5 0 a2.75 2.75 0 1 0 -5.5 0zM915.75 192.5 a2.75 2.75 0 1 0 5.5 0 a2.75 2.75 0 1 0 -5.5 0zM1212.75 181.5 a2.75 2.75 0 1 0 5.5 0 a2.75 2.75 0 1 0 -5.5 0zM992.75 192.5 a2.75 2.75 0 1 0 5.5 0 a2.75 2.75 0 1 0 -5.5 0zM794.75 159.5 a2.75 2.75 0 1 0 5.5 0 a2.75 2.75 0 1 0 -5.5 0z" fill="rgba(253, 230, 138, 0.48)"></path>
            <path d="M962.5 390.5L951.5 401.5L940.5 412.5L929.5 412.5L918.5 412.5L907.5 412.5L896.5 412.5L885.5 412.5L874.5 412.5M1050.5 390.5L1039.5 401.5L1028.5 401.5L1017.5 401.5M1083.5 390.5L1072.5 401.5L1061.5 401.5L1050.5 401.5M522.5 423.5L511.5 434.5L500.5 434.5L489.5 434.5L478.5 434.5L467.5 434.5L456.5 434.5L445.5 445.5L434.5 445.5L423.5 445.5M621.5 423.5L610.5 434.5L599.5 434.5L588.5 434.5L577.5 434.5L566.5 434.5L555.5 434.5L544.5 434.5L533.5 434.5L522.5 434.5L511.5 445.5L500.5 445.5L489.5 456.5L478.5 456.5L467.5 456.5L456.5 456.5L445.5 456.5L434.5 456.5L423.5 456.5L412.5 456.5L401.5 456.5L390.5 456.5L379.5 456.5L368.5 456.5L357.5 456.5L346.5 456.5L335.5 456.5L324.5 456.5L313.5 456.5L302.5 456.5L291.5 456.5L280.5 456.5L269.5 456.5M654.5 423.5L643.5 412.5L632.5 412.5M698.5 412.5L687.5 401.5M874.5 401.5L863.5 401.5L852.5 401.5M1204.5 390.5L1193.5 379.5L1182.5 379.5L1171.5 379.5L1160.5 379.5M984.5 390.5L973.5 401.5L962.5 401.5L951.5 412.5M665.5 412.5L654.5 412.5M599.5 423.5L588.5 412.5M951.5 390.5L940.5 390.5M1006.5 390.5L995.5 401.5L984.5 401.5L973.5 412.5L962.5 412.5M1171.5 390.5L1160.5 401.5M1105.5 401.5L1094.5 401.5L1083.5 401.5L1072.5 412.5L1061.5 412.5L1050.5 412.5L1039.5 412.5L1028.5 412.5L1017.5 412.5L1006.5 412.5L995.5 412.5L984.5 412.5M1215.5 390.5L1204.5 379.5M1127.5 390.5L1116.5 390.5L1105.5 390.5M1446.5 346.5L1435.5 346.5L1424.5 346.5L1413.5 346.5L1402.5 346.5L1391.5 346.5L1380.5 357.5L1369.5 357.5L1358.5 357.5L1347.5 357.5L1336.5 357.5L1325.5 357.5L1314.5 357.5L1303.5 357.5L1292.5 357.5L1281.5 357.5L1270.5 368.5L1259.5 379.5L1248.5 379.5L1237.5 379.5L1226.5 379.5L1215.5 390.5L1204.5 390.5L1193.5 390.5L1182.5 390.5L1171.5 390.5L1160.5 390.5L1149.5 390.5L1138.5 390.5L1127.5 390.5L1116.5 401.5L1105.5 401.5L1094.5 390.5L1083.5 390.5L1072.5 390.5L1061.5 390.5L1050.5 390.5L1039.5 390.5L1028.5 390.5L1017.5 390.5L1006.5 390.5L995.5 390.5L984.5 390.5L973.5 390.5L962.5 390.5L951.5 390.5L940.5 401.5L929.5 401.5L918.5 401.5L907.5 401.5L896.5 401.5L885.5 401.5L874.5 401.5L863.5 412.5L852.5 412.5L841.5 412.5L830.5 412.5L819.5 412.5L808.5 412.5L797.5 412.5L786.5 412.5L775.5 412.5L764.5 412.5L753.5 412.5L742.5 412.5L731.5 412.5L720.5 412.5L709.5 412.5L698.5 412.5L687.5 412.5L676.5 412.5L665.5 412.5L654.5 423.5L643.5 423.5L632.5 423.5L621.5 423.5L610.5 423.5L599.5 423.5L588.5 423.5L577.5 423.5L566.5 423.5L555.5 423.5L544.5 423.5L533.5 423.5L522.5 423.5L511.5 423.5L500.5 423.5L489.5 423.5" stroke="rgba(251, 191, 36, 0.37)" stroke-width="1.83"></path>
            <path d="M486.75 423.5 a2.75 2.75 0 1 0 5.5 0 a2.75 2.75 0 1 0 -5.5 0zM871.75 412.5 a2.75 2.75 0 1 0 5.5 0 a2.75 2.75 0 1 0 -5.5 0zM1014.75 401.5 a2.75 2.75 0 1 0 5.5 0 a2.75 2.75 0 1 0 -5.5 0zM1047.75 401.5 a2.75 2.75 0 1 0 5.5 0 a2.75 2.75 0 1 0 -5.5 0zM420.75 445.5 a2.75 2.75 0 1 0 5.5 0 a2.75 2.75 0 1 0 -5.5 0zM266.75 456.5 a2.75 2.75 0 1 0 5.5 0 a2.75 2.75 0 1 0 -5.5 0zM629.75 412.5 a2.75 2.75 0 1 0 5.5 0 a2.75 2.75 0 1 0 -5.5 0zM684.75 401.5 a2.75 2.75 0 1 0 5.5 0 a2.75 2.75 0 1 0 -5.5 0zM849.75 401.5 a2.75 2.75 0 1 0 5.5 0 a2.75 2.75 0 1 0 -5.5 0zM1157.75 379.5 a2.75 2.75 0 1 0 5.5 0 a2.75 2.75 0 1 0 -5.5 0zM948.75 412.5 a2.75 2.75 0 1 0 5.5 0 a2.75 2.75 0 1 0 -5.5 0zM651.75 412.5 a2.75 2.75 0 1 0 5.5 0 a2.75 2.75 0 1 0 -5.5 0zM585.75 412.5 a2.75 2.75 0 1 0 5.5 0 a2.75 2.75 0 1 0 -5.5 0zM937.75 390.5 a2.75 2.75 0 1 0 5.5 0 a2.75 2.75 0 1 0 -5.5 0zM959.75 412.5 a2.75 2.75 0 1 0 5.5 0 a2.75 2.75 0 1 0 -5.5 0zM1157.75 401.5 a2.75 2.75 0 1 0 5.5 0 a2.75 2.75 0 1 0 -5.5 0zM981.75 412.5 a2.75 2.75 0 1 0 5.5 0 a2.75 2.75 0 1 0 -5.5 0zM1201.75 379.5 a2.75 2.75 0 1 0 5.5 0 a2.75 2.75 0 1 0 -5.5 0zM1102.75 390.5 a2.75 2.75 0 1 0 5.5 0 a2.75 2.75 0 1 0 -5.5 0z" fill="rgba(251, 191, 36, 0.37)"></path>
            <path d="M1369.5 192.5L1358.5 192.5L1347.5 192.5L1336.5 192.5M1446.5 203.5L1435.5 203.5L1424.5 203.5L1413.5 203.5L1402.5 203.5L1391.5 203.5L1380.5 192.5L1369.5 192.5L1358.5 181.5L1347.5 181.5L1336.5 181.5L1325.5 181.5" stroke="rgba(251, 191, 36, 0.37)" stroke-width="1.83"></path>
            <path d="M1322.75 181.5 a2.75 2.75 0 1 0 5.5 0 a2.75 2.75 0 1 0 -5.5 0zM1333.75 192.5 a2.75 2.75 0 1 0 5.5 0 a2.75 2.75 0 1 0 -5.5 0z" fill="rgba(251, 191, 36, 0.37)"></path>
            <path d="M1149.5 401.5L1138.5 412.5M1160.5 412.5L1149.5 412.5M1138.5 401.5L1127.5 401.5M1182.5 401.5L1171.5 401.5M1446.5 357.5L1435.5 357.5L1424.5 357.5L1413.5 357.5L1402.5 357.5L1391.5 357.5L1380.5 368.5L1369.5 368.5L1358.5 368.5L1347.5 368.5L1336.5 368.5L1325.5 368.5L1314.5 368.5L1303.5 368.5L1292.5 368.5L1281.5 368.5L1270.5 379.5L1259.5 390.5L1248.5 390.5L1237.5 390.5L1226.5 390.5L1215.5 401.5L1204.5 401.5L1193.5 401.5L1182.5 401.5L1171.5 412.5L1160.5 412.5L1149.5 401.5L1138.5 401.5L1127.5 412.5L1116.5 412.5L1105.5 412.5" stroke="rgba(251, 191, 36, 0.37)" stroke-width="1.83"></path>
            <path d="M1102.75 412.5 a2.75 2.75 0 1 0 5.5 0 a2.75 2.75 0 1 0 -5.5 0zM1135.75 412.5 a2.75 2.75 0 1 0 5.5 0 a2.75 2.75 0 1 0 -5.5 0zM1146.75 412.5 a2.75 2.75 0 1 0 5.5 0 a2.75 2.75 0 1 0 -5.5 0zM1124.75 401.5 a2.75 2.75 0 1 0 5.5 0 a2.75 2.75 0 1 0 -5.5 0zM1168.75 401.5 a2.75 2.75 0 1 0 5.5 0 a2.75 2.75 0 1 0 -5.5 0z" fill="rgba(251, 191, 36, 0.37)"></path>
            <path d="M1149.5 192.5L1138.5 181.5L1127.5 181.5M1215.5 170.5L1204.5 170.5M1270.5 170.5L1259.5 181.5L1248.5 181.5L1237.5 181.5L1226.5 181.5M1237.5 170.5L1226.5 159.5L1215.5 159.5M1017.5 170.5L1006.5 159.5L995.5 159.5L984.5 159.5L973.5 159.5L962.5 159.5L951.5 159.5L940.5 159.5L929.5 159.5L918.5 159.5L907.5 159.5M1039.5 170.5L1028.5 159.5L1017.5 159.5M1105.5 181.5L1094.5 170.5L1083.5 170.5L1072.5 159.5L1061.5 159.5L1050.5 159.5L1039.5 159.5M1072.5 181.5L1061.5 170.5M1314.5 170.5L1303.5 181.5M896.5 170.5L885.5 159.5L874.5 159.5L863.5 159.5L852.5 159.5L841.5 159.5L830.5 159.5L819.5 159.5L808.5 159.5L797.5 148.5L786.5 148.5L775.5 148.5M1193.5 192.5L1182.5 181.5L1171.5 181.5L1160.5 181.5L1149.5 181.5L1138.5 170.5L1127.5 159.5L1116.5 159.5L1105.5 159.5L1094.5 159.5L1083.5 159.5M1204.5 181.5L1193.5 181.5L1182.5 170.5L1171.5 170.5L1160.5 170.5L1149.5 170.5L1138.5 159.5M1281.5 170.5L1270.5 181.5L1259.5 192.5L1248.5 192.5M1446.5 192.5L1435.5 192.5L1424.5 192.5L1413.5 192.5L1402.5 192.5L1391.5 192.5L1380.5 181.5L1369.5 181.5L1358.5 170.5L1347.5 170.5L1336.5 170.5L1325.5 170.5L1314.5 170.5L1303.5 170.5L1292.5 170.5L1281.5 170.5L1270.5 170.5L1259.5 170.5L1248.5 170.5L1237.5 170.5L1226.5 170.5L1215.5 170.5L1204.5 181.5L1193.5 192.5L1182.5 192.5L1171.5 192.5L1160.5 192.5L1149.5 192.5L1138.5 192.5L1127.5 192.5L1116.5 192.5L1105.5 181.5L1094.5 181.5L1083.5 181.5L1072.5 181.5L1061.5 181.5L1050.5 181.5L1039.5 170.5L1028.5 170.5L1017.5 170.5L1006.5 170.5L995.5 170.5L984.5 170.5L973.5 170.5L962.5 170.5L951.5 170.5L940.5 170.5L929.5 170.5L918.5 170.5L907.5 170.5L896.5 170.5L885.5 170.5" stroke="rgba(253, 230, 138, 0.48)" stroke-width="1.83"></path>
            <path d="M882.75 170.5 a2.75 2.75 0 1 0 5.5 0 a2.75 2.75 0 1 0 -5.5 0zM1124.75 181.5 a2.75 2.75 0 1 0 5.5 0 a2.75 2.75 0 1 0 -5.5 0zM1201.75 170.5 a2.75 2.75 0 1 0 5.5 0 a2.75 2.75 0 1 0 -5.5 0zM1223.75 181.5 a2.75 2.75 0 1 0 5.5 0 a2.75 2.75 0 1 0 -5.5 0zM1212.75 159.5 a2.75 2.75 0 1 0 5.5 0 a2.75 2.75 0 1 0 -5.5 0zM904.75 159.5 a2.75 2.75 0 1 0 5.5 0 a2.75 2.75 0 1 0 -5.5 0zM1014.75 159.5 a2.75 2.75 0 1 0 5.5 0 a2.75 2.75 0 1 0 -5.5 0zM1036.75 159.5 a2.75 2.75 0 1 0 5.5 0 a2.75 2.75 0 1 0 -5.5 0zM1058.75 170.5 a2.75 2.75 0 1 0 5.5 0 a2.75 2.75 0 1 0 -5.5 0zM1300.75 181.5 a2.75 2.75 0 1 0 5.5 0 a2.75 2.75 0 1 0 -5.5 0zM772.75 148.5 a2.75 2.75 0 1 0 5.5 0 a2.75 2.75 0 1 0 -5.5 0zM1080.75 159.5 a2.75 2.75 0 1 0 5.5 0 a2.75 2.75 0 1 0 -5.5 0zM1135.75 159.5 a2.75 2.75 0 1 0 5.5 0 a2.75 2.75 0 1 0 -5.5 0zM1245.75 192.5 a2.75 2.75 0 1 0 5.5 0 a2.75 2.75 0 1 0 -5.5 0z" fill="rgba(253, 230, 138, 0.48)"></path>
            <path d="M764.5 423.5L753.5 434.5L742.5 434.5L731.5 434.5L720.5 434.5L709.5 434.5L698.5 434.5L687.5 434.5L676.5 445.5L665.5 445.5L654.5 445.5L643.5 445.5L632.5 445.5L621.5 445.5L610.5 445.5L599.5 445.5L588.5 445.5L577.5 445.5L566.5 445.5L555.5 445.5L544.5 445.5L533.5 445.5M995.5 423.5L984.5 434.5L973.5 434.5L962.5 434.5M1369.5 379.5L1358.5 390.5L1347.5 390.5L1336.5 390.5L1325.5 390.5L1314.5 390.5L1303.5 390.5L1292.5 390.5L1281.5 390.5M1094.5 423.5L1083.5 412.5M808.5 423.5L797.5 434.5L786.5 434.5L775.5 434.5L764.5 434.5L753.5 445.5L742.5 445.5L731.5 445.5L720.5 445.5L709.5 445.5L698.5 445.5M676.5 423.5L665.5 434.5M819.5 423.5L808.5 434.5L797.5 445.5L786.5 445.5L775.5 445.5L764.5 445.5L753.5 456.5L742.5 456.5L731.5 467.5L720.5 467.5M830.5 423.5L819.5 434.5L808.5 445.5L797.5 456.5L786.5 456.5L775.5 456.5L764.5 467.5L753.5 467.5M1413.5 368.5L1402.5 379.5M852.5 423.5L841.5 434.5L830.5 434.5M1435.5 368.5L1424.5 379.5L1413.5 379.5M1237.5 401.5L1226.5 412.5M863.5 423.5L852.5 434.5L841.5 445.5L830.5 445.5L819.5 445.5L808.5 456.5L797.5 467.5L786.5 467.5L775.5 467.5L764.5 478.5M1380.5 379.5L1369.5 390.5M1446.5 368.5L1435.5 368.5L1424.5 368.5L1413.5 368.5L1402.5 368.5L1391.5 368.5L1380.5 379.5L1369.5 379.5L1358.5 379.5L1347.5 379.5L1336.5 379.5L1325.5 379.5L1314.5 379.5L1303.5 379.5L1292.5 379.5L1281.5 379.5L1270.5 390.5L1259.5 401.5L1248.5 401.5L1237.5 401.5L1226.5 401.5L1215.5 412.5L1204.5 412.5L1193.5 412.5L1182.5 412.5L1171.5 423.5L1160.5 423.5L1149.5 423.5L1138.5 423.5L1127.5 423.5L1116.5 423.5L1105.5 423.5L1094.5 423.5L1083.5 423.5L1072.5 423.5L1061.5 423.5L1050.5 423.5L1039.5 423.5L1028.5 423.5L1017.5 423.5L1006.5 423.5L995.5 423.5L984.5 423.5L973.5 423.5L962.5 423.5L951.5 423.5L940.5 423.5L929.5 423.5L918.5 423.5L907.5 423.5L896.5 423.5L885.5 423.5L874.5 423.5L863.5 423.5L852.5 423.5L841.5 423.5L830.5 423.5L819.5 423.5L808.5 423.5L797.5 423.5L786.5 423.5L775.5 423.5L764.5 423.5L753.5 423.5L742.5 423.5L731.5 423.5L720.5 423.5L709.5 423.5L698.5 423.5L687.5 423.5L676.5 423.5L665.5 423.5L654.5 434.5L643.5 434.5L632.5 434.5" stroke="rgba(251, 191, 36, 0.37)" stroke-width="1.83"></path>
            <path d="M629.75 434.5 a2.75 2.75 0 1 0 5.5 0 a2.75 2.75 0 1 0 -5.5 0zM530.75 445.5 a2.75 2.75 0 1 0 5.5 0 a2.75 2.75 0 1 0 -5.5 0zM959.75 434.5 a2.75 2.75 0 1 0 5.5 0 a2.75 2.75 0 1 0 -5.5 0zM1278.75 390.5 a2.75 2.75 0 1 0 5.5 0 a2.75 2.75 0 1 0 -5.5 0zM1080.75 412.5 a2.75 2.75 0 1 0 5.5 0 a2.75 2.75 0 1 0 -5.5 0zM695.75 445.5 a2.75 2.75 0 1 0 5.5 0 a2.75 2.75 0 1 0 -5.5 0zM662.75 434.5 a2.75 2.75 0 1 0 5.5 0 a2.75 2.75 0 1 0 -5.5 0zM717.75 467.5 a2.75 2.75 0 1 0 5.5 0 a2.75 2.75 0 1 0 -5.5 0zM750.75 467.5 a2.75 2.75 0 1 0 5.5 0 a2.75 2.75 0 1 0 -5.5 0zM1399.75 379.5 a2.75 2.75 0 1 0 5.5 0 a2.75 2.75 0 1 0 -5.5 0zM827.75 434.5 a2.75 2.75 0 1 0 5.5 0 a2.75 2.75 0 1 0 -5.5 0zM1410.75 379.5 a2.75 2.75 0 1 0 5.5 0 a2.75 2.75 0 1 0 -5.5 0zM1223.75 412.5 a2.75 2.75 0 1 0 5.5 0 a2.75 2.75 0 1 0 -5.5 0zM761.75 478.5 a2.75 2.75 0 1 0 5.5 0 a2.75 2.75 0 1 0 -5.5 0zM1366.75 390.5 a2.75 2.75 0 1 0 5.5 0 a2.75 2.75 0 1 0 -5.5 0z" fill="rgba(251, 191, 36, 0.37)"></path>
            <path d="M1446.5 181.5L1435.5 181.5L1424.5 181.5" stroke="rgba(253, 230, 138, 0.48)" stroke-width="1.83"></path>
            <path d="M1421.75 181.5 a2.75 2.75 0 1 0 5.5 0 a2.75 2.75 0 1 0 -5.5 0z" fill="rgba(253, 230, 138, 0.48)"></path>
            <path d="M1402.5 390.5L1391.5 390.5M1446.5 379.5L1435.5 390.5L1424.5 390.5L1413.5 390.5L1402.5 390.5L1391.5 379.5" stroke="rgba(251, 191, 36, 0.37)" stroke-width="1.83"></path>
            <path d="M1388.75 379.5 a2.75 2.75 0 1 0 5.5 0 a2.75 2.75 0 1 0 -5.5 0zM1388.75 390.5 a2.75 2.75 0 1 0 5.5 0 a2.75 2.75 0 1 0 -5.5 0z" fill="rgba(251, 191, 36, 0.37)"></path>
            <path d="M1215.5 137.5L1204.5 148.5L1193.5 148.5L1182.5 148.5M1303.5 148.5L1292.5 159.5L1281.5 159.5L1270.5 159.5L1259.5 159.5M984.5 148.5L973.5 148.5L962.5 148.5M1259.5 137.5L1248.5 148.5M951.5 137.5L940.5 148.5M995.5 148.5L984.5 137.5M1039.5 148.5L1028.5 137.5L1017.5 137.5L1006.5 137.5L995.5 137.5M1094.5 148.5L1083.5 137.5L1072.5 137.5L1061.5 137.5L1050.5 137.5M1149.5 137.5L1138.5 137.5M1314.5 159.5L1303.5 159.5M1160.5 137.5L1149.5 148.5M1226.5 137.5L1215.5 148.5M1446.5 170.5L1435.5 170.5L1424.5 170.5L1413.5 181.5L1402.5 181.5L1391.5 181.5L1380.5 170.5L1369.5 170.5L1358.5 159.5L1347.5 159.5L1336.5 159.5L1325.5 159.5L1314.5 159.5L1303.5 148.5L1292.5 148.5L1281.5 148.5L1270.5 137.5L1259.5 137.5L1248.5 137.5L1237.5 137.5L1226.5 137.5L1215.5 137.5L1204.5 137.5L1193.5 137.5L1182.5 137.5L1171.5 137.5L1160.5 137.5L1149.5 137.5L1138.5 148.5L1127.5 148.5L1116.5 148.5L1105.5 148.5L1094.5 148.5L1083.5 148.5L1072.5 148.5L1061.5 148.5L1050.5 148.5L1039.5 148.5L1028.5 148.5L1017.5 148.5L1006.5 148.5L995.5 148.5L984.5 148.5L973.5 137.5L962.5 137.5L951.5 137.5L940.5 137.5L929.5 137.5L918.5 126.5" stroke="rgba(253, 230, 138, 0.48)" stroke-width="1.83"></path>
            <path d="M915.75 126.5 a2.75 2.75 0 1 0 5.5 0 a2.75 2.75 0 1 0 -5.5 0zM1179.75 148.5 a2.75 2.75 0 1 0 5.5 0 a2.75 2.75 0 1 0 -5.5 0zM1256.75 159.5 a2.75 2.75 0 1 0 5.5 0 a2.75 2.75 0 1 0 -5.5 0zM959.75 148.5 a2.75 2.75 0 1 0 5.5 0 a2.75 2.75 0 1 0 -5.5 0zM1245.75 148.5 a2.75 2.75 0 1 0 5.5 0 a2.75 2.75 0 1 0 -5.5 0zM937.75 148.5 a2.75 2.75 0 1 0 5.5 0 a2.75 2.75 0 1 0 -5.5 0zM981.75 137.5 a2.75 2.75 0 1 0 5.5 0 a2.75 2.75 0 1 0 -5.5 0zM992.75 137.5 a2.75 2.75 0 1 0 5.5 0 a2.75 2.75 0 1 0 -5.5 0zM1047.75 137.5 a2.75 2.75 0 1 0 5.5 0 a2.75 2.75 0 1 0 -5.5 0zM1135.75 137.5 a2.75 2.75 0 1 0 5.5 0 a2.75 2.75 0 1 0 -5.5 0zM1300.75 159.5 a2.75 2.75 0 1 0 5.5 0 a2.75 2.75 0 1 0 -5.5 0zM1146.75 148.5 a2.75 2.75 0 1 0 5.5 0 a2.75 2.75 0 1 0 -5.5 0zM1212.75 148.5 a2.75 2.75 0 1 0 5.5 0 a2.75 2.75 0 1 0 -5.5 0z" fill="rgba(253, 230, 138, 0.48)"></path>
            <path d="M1226.5 126.5L1215.5 115.5L1204.5 115.5L1193.5 115.5L1182.5 115.5L1171.5 115.5L1160.5 115.5L1149.5 115.5L1138.5 115.5L1127.5 115.5L1116.5 115.5L1105.5 115.5L1094.5 115.5L1083.5 115.5M610.5 126.5L599.5 137.5M588.5 126.5L577.5 115.5L566.5 115.5L555.5 115.5L544.5 115.5L533.5 115.5L522.5 115.5L511.5 115.5L500.5 115.5L489.5 115.5L478.5 104.5L467.5 104.5L456.5 104.5L445.5 104.5L434.5 104.5L423.5 104.5L412.5 104.5L401.5 104.5L390.5 104.5L379.5 104.5L368.5 104.5L357.5 104.5L346.5 93.5L335.5 93.5L324.5 93.5L313.5 93.5M346.5 115.5L335.5 126.5L324.5 126.5L313.5 126.5L302.5 126.5L291.5 126.5L280.5 126.5L269.5 126.5L258.5 126.5L247.5 126.5L236.5 126.5L225.5 126.5L214.5 126.5L203.5 126.5L192.5 126.5L181.5 126.5L170.5 137.5L159.5 137.5L148.5 137.5L137.5 137.5L126.5 137.5M698.5 115.5L687.5 104.5L676.5 104.5L665.5 104.5L654.5 104.5L643.5 104.5L632.5 115.5L621.5 115.5L610.5 115.5L599.5 115.5L588.5 115.5L577.5 104.5L566.5 104.5L555.5 104.5L544.5 104.5L533.5 104.5L522.5 104.5L511.5 93.5L500.5 93.5L489.5 93.5L478.5 93.5L467.5 93.5M170.5 104.5L159.5 115.5L148.5 115.5L137.5 115.5L126.5 115.5M478.5 126.5L467.5 115.5L456.5 115.5L445.5 115.5L434.5 115.5L423.5 115.5M1402.5 170.5L1391.5 159.5M379.5 115.5L368.5 126.5L357.5 126.5L346.5 126.5L335.5 137.5L324.5 137.5L313.5 137.5M841.5 115.5L830.5 104.5L819.5 104.5L808.5 104.5L797.5 104.5L786.5 104.5L775.5 104.5L764.5 104.5L753.5 104.5L742.5 104.5L731.5 104.5L720.5 104.5L709.5 104.5L698.5 104.5L687.5 93.5L676.5 93.5L665.5 93.5L654.5 93.5L643.5 93.5M797.5 115.5L786.5 126.5L775.5 126.5L764.5 137.5L753.5 137.5L742.5 137.5L731.5 137.5L720.5 137.5L709.5 137.5L698.5 137.5M632.5 126.5L621.5 137.5L610.5 137.5M1424.5 159.5L1413.5 159.5L1402.5 159.5M214.5 115.5L203.5 104.5L192.5 104.5L181.5 104.5L170.5 93.5L159.5 93.5L148.5 93.5L137.5 93.5L126.5 104.5M830.5 115.5L819.5 126.5L808.5 126.5L797.5 126.5L786.5 137.5L775.5 137.5M676.5 115.5L665.5 126.5L654.5 126.5L643.5 137.5M390.5 115.5L379.5 126.5M1259.5 126.5L1248.5 115.5L1237.5 115.5L1226.5 115.5M302.5 115.5L291.5 104.5L280.5 104.5L269.5 104.5L258.5 93.5L247.5 93.5L236.5 93.5L225.5 93.5L214.5 93.5L203.5 93.5L192.5 93.5L181.5 93.5L170.5 82.5L159.5 71.5M753.5 126.5L742.5 115.5L731.5 115.5L720.5 115.5M324.5 115.5L313.5 104.5L302.5 104.5L291.5 93.5L280.5 93.5L269.5 93.5L258.5 82.5L247.5 82.5L236.5 82.5L225.5 82.5L214.5 82.5L203.5 82.5L192.5 82.5L181.5 82.5L170.5 71.5L159.5 60.5L148.5 60.5L137.5 60.5L126.5 60.5M247.5 115.5L236.5 104.5L225.5 104.5L214.5 104.5M654.5 115.5L643.5 115.5M1105.5 137.5L1094.5 137.5M1138.5 126.5L1127.5 126.5L1116.5 126.5L1105.5 126.5M412.5 115.5L401.5 126.5L390.5 126.5M896.5 115.5L885.5 126.5L874.5 126.5L863.5 126.5L852.5 126.5L841.5 126.5L830.5 126.5L819.5 137.5L808.5 137.5L797.5 137.5M775.5 115.5L764.5 115.5L753.5 115.5M423.5 126.5L412.5 126.5M1446.5 159.5L1435.5 159.5L1424.5 159.5L1413.5 170.5L1402.5 170.5L1391.5 170.5L1380.5 159.5L1369.5 159.5L1358.5 148.5L1347.5 148.5L1336.5 148.5L1325.5 148.5L1314.5 148.5L1303.5 137.5L1292.5 137.5L1281.5 137.5L1270.5 126.5L1259.5 126.5L1248.5 126.5L1237.5 126.5L1226.5 126.5L1215.5 126.5L1204.5 126.5L1193.5 126.5L1182.5 126.5L1171.5 126.5L1160.5 126.5L1149.5 126.5L1138.5 126.5L1127.5 137.5L1116.5 137.5L1105.5 137.5L1094.5 126.5L1083.5 126.5L1072.5 126.5L1061.5 126.5L1050.5 126.5L1039.5 126.5L1028.5 126.5L1017.5 126.5L1006.5 126.5L995.5 126.5L984.5 126.5L973.5 126.5L962.5 126.5L951.5 126.5L940.5 126.5L929.5 126.5L918.5 115.5L907.5 115.5L896.5 115.5L885.5 115.5L874.5 115.5L863.5 115.5L852.5 115.5L841.5 115.5L830.5 115.5L819.5 115.5L808.5 115.5L797.5 115.5L786.5 115.5L775.5 115.5L764.5 126.5L753.5 126.5L742.5 126.5L731.5 126.5L720.5 126.5L709.5 115.5L698.5 115.5L687.5 115.5L676.5 115.5L665.5 115.5L654.5 115.5L643.5 126.5L632.5 126.5L621.5 126.5L610.5 126.5L599.5 126.5L588.5 126.5L577.5 126.5L566.5 126.5L555.5 126.5L544.5 126.5L533.5 126.5L522.5 126.5L511.5 126.5L500.5 126.5L489.5 126.5L478.5 126.5L467.5 126.5L456.5 126.5L445.5 126.5L434.5 126.5L423.5 126.5L412.5 115.5L401.5 115.5L390.5 115.5L379.5 115.5L368.5 115.5L357.5 115.5L346.5 115.5L335.5 115.5L324.5 115.5L313.5 115.5L302.5 115.5L291.5 115.5L280.5 115.5L269.5 115.5L258.5 115.5L247.5 115.5L236.5 115.5L225.5 115.5L214.5 115.5L203.5 115.5L192.5 115.5L181.5 115.5L170.5 104.5L159.5 104.5L148.5 104.5" stroke="rgba(253, 230, 138, 0.48)" stroke-width="1.83"></path>
            <path d="M145.75 104.5 a2.75 2.75 0 1 0 5.5 0 a2.75 2.75 0 1 0 -5.5 0zM1080.75 115.5 a2.75 2.75 0 1 0 5.5 0 a2.75 2.75 0 1 0 -5.5 0zM596.75 137.5 a2.75 2.75 0 1 0 5.5 0 a2.75 2.75 0 1 0 -5.5 0zM310.75 93.5 a2.75 2.75 0 1 0 5.5 0 a2.75 2.75 0 1 0 -5.5 0zM123.75 137.5 a2.75 2.75 0 1 0 5.5 0 a2.75 2.75 0 1 0 -5.5 0zM464.75 93.5 a2.75 2.75 0 1 0 5.5 0 a2.75 2.75 0 1 0 -5.5 0zM123.75 115.5 a2.75 2.75 0 1 0 5.5 0 a2.75 2.75 0 1 0 -5.5 0zM420.75 115.5 a2.75 2.75 0 1 0 5.5 0 a2.75 2.75 0 1 0 -5.5 0zM1388.75 159.5 a2.75 2.75 0 1 0 5.5 0 a2.75 2.75 0 1 0 -5.5 0zM310.75 137.5 a2.75 2.75 0 1 0 5.5 0 a2.75 2.75 0 1 0 -5.5 0zM640.75 93.5 a2.75 2.75 0 1 0 5.5 0 a2.75 2.75 0 1 0 -5.5 0zM695.75 137.5 a2.75 2.75 0 1 0 5.5 0 a2.75 2.75 0 1 0 -5.5 0zM607.75 137.5 a2.75 2.75 0 1 0 5.5 0 a2.75 2.75 0 1 0 -5.5 0zM1399.75 159.5 a2.75 2.75 0 1 0 5.5 0 a2.75 2.75 0 1 0 -5.5 0zM123.75 104.5 a2.75 2.75 0 1 0 5.5 0 a2.75 2.75 0 1 0 -5.5 0zM772.75 137.5 a2.75 2.75 0 1 0 5.5 0 a2.75 2.75 0 1 0 -5.5 0zM640.75 137.5 a2.75 2.75 0 1 0 5.5 0 a2.75 2.75 0 1 0 -5.5 0zM376.75 126.5 a2.75 2.75 0 1 0 5.5 0 a2.75 2.75 0 1 0 -5.5 0zM1223.75 115.5 a2.75 2.75 0 1 0 5.5 0 a2.75 2.75 0 1 0 -5.5 0zM156.75 71.5 a2.75 2.75 0 1 0 5.5 0 a2.75 2.75 0 1 0 -5.5 0zM717.75 115.5 a2.75 2.75 0 1 0 5.5 0 a2.75 2.75 0 1 0 -5.5 0zM123.75 60.5 a2.75 2.75 0 1 0 5.5 0 a2.75 2.75 0 1 0 -5.5 0zM211.75 104.5 a2.75 2.75 0 1 0 5.5 0 a2.75 2.75 0 1 0 -5.5 0zM640.75 115.5 a2.75 2.75 0 1 0 5.5 0 a2.75 2.75 0 1 0 -5.5 0zM1091.75 137.5 a2.75 2.75 0 1 0 5.5 0 a2.75 2.75 0 1 0 -5.5 0zM1102.75 126.5 a2.75 2.75 0 1 0 5.5 0 a2.75 2.75 0 1 0 -5.5 0zM387.75 126.5 a2.75 2.75 0 1 0 5.5 0 a2.75 2.75 0 1 0 -5.5 0zM794.75 137.5 a2.75 2.75 0 1 0 5.5 0 a2.75 2.75 0 1 0 -5.5 0zM750.75 115.5 a2.75 2.75 0 1 0 5.5 0 a2.75 2.75 0 1 0 -5.5 0zM409.75 126.5 a2.75 2.75 0 1 0 5.5 0 a2.75 2.75 0 1 0 -5.5 0z" fill="rgba(253, 230, 138, 0.48)"></path>
            <path d="M885.5 434.5L874.5 445.5L863.5 445.5L852.5 445.5L841.5 456.5L830.5 456.5L819.5 456.5L808.5 467.5L797.5 478.5L786.5 478.5L775.5 478.5L764.5 489.5L753.5 489.5L742.5 489.5L731.5 489.5L720.5 489.5M1413.5 401.5L1402.5 412.5L1391.5 412.5L1380.5 423.5L1369.5 423.5L1358.5 423.5L1347.5 434.5M1094.5 434.5L1083.5 445.5L1072.5 456.5L1061.5 456.5L1050.5 467.5M1380.5 401.5L1369.5 412.5L1358.5 412.5L1347.5 412.5L1336.5 412.5L1325.5 412.5L1314.5 412.5L1303.5 412.5L1292.5 412.5M1149.5 434.5L1138.5 445.5L1127.5 445.5L1116.5 445.5L1105.5 445.5L1094.5 445.5M1171.5 434.5L1160.5 445.5L1149.5 445.5L1138.5 456.5L1127.5 467.5L1116.5 467.5L1105.5 467.5L1094.5 467.5L1083.5 467.5M907.5 434.5L896.5 445.5L885.5 445.5L874.5 456.5L863.5 456.5L852.5 456.5M1061.5 434.5L1050.5 445.5L1039.5 445.5L1028.5 445.5L1017.5 456.5M1182.5 434.5L1171.5 445.5L1160.5 456.5L1149.5 456.5L1138.5 467.5M1435.5 401.5L1424.5 412.5L1413.5 423.5L1402.5 423.5L1391.5 423.5L1380.5 434.5M940.5 445.5L929.5 445.5L918.5 445.5L907.5 445.5L896.5 456.5L885.5 456.5L874.5 467.5L863.5 467.5L852.5 467.5L841.5 467.5L830.5 478.5L819.5 478.5L808.5 478.5L797.5 489.5L786.5 489.5M1193.5 423.5L1182.5 423.5M973.5 445.5L962.5 456.5L951.5 456.5L940.5 456.5L929.5 456.5L918.5 456.5L907.5 456.5L896.5 467.5L885.5 467.5L874.5 478.5L863.5 478.5L852.5 478.5L841.5 478.5M1446.5 401.5L1435.5 401.5L1424.5 401.5L1413.5 401.5L1402.5 401.5L1391.5 401.5L1380.5 401.5L1369.5 401.5L1358.5 401.5L1347.5 401.5L1336.5 401.5L1325.5 401.5L1314.5 401.5L1303.5 401.5L1292.5 401.5L1281.5 401.5L1270.5 401.5L1259.5 412.5L1248.5 412.5L1237.5 423.5L1226.5 423.5L1215.5 423.5L1204.5 423.5L1193.5 423.5L1182.5 434.5L1171.5 434.5L1160.5 434.5L1149.5 434.5L1138.5 434.5L1127.5 434.5L1116.5 434.5L1105.5 434.5L1094.5 434.5L1083.5 434.5L1072.5 434.5L1061.5 434.5L1050.5 434.5L1039.5 434.5L1028.5 434.5L1017.5 434.5L1006.5 434.5L995.5 445.5L984.5 445.5L973.5 445.5L962.5 445.5L951.5 445.5L940.5 445.5L929.5 434.5L918.5 434.5L907.5 434.5L896.5 434.5L885.5 434.5L874.5 434.5" stroke="rgba(253, 230, 138, 0.48)" stroke-width="1.83"></path>
            <path d="M871.75 434.5 a2.75 2.75 0 1 0 5.5 0 a2.75 2.75 0 1 0 -5.5 0zM717.75 489.5 a2.75 2.75 0 1 0 5.5 0 a2.75 2.75 0 1 0 -5.5 0zM1344.75 434.5 a2.75 2.75 0 1 0 5.5 0 a2.75 2.75 0 1 0 -5.5 0zM1047.75 467.5 a2.75 2.75 0 1 0 5.5 0 a2.75 2.75 0 1 0 -5.5 0zM1289.75 412.5 a2.75 2.75 0 1 0 5.5 0 a2.75 2.75 0 1 0 -5.5 0zM1091.75 445.5 a2.75 2.75 0 1 0 5.5 0 a2.75 2.75 0 1 0 -5.5 0zM1080.75 467.5 a2.75 2.75 0 1 0 5.5 0 a2.75 2.75 0 1 0 -5.5 0zM849.75 456.5 a2.75 2.75 0 1 0 5.5 0 a2.75 2.75 0 1 0 -5.5 0zM1014.75 456.5 a2.75 2.75 0 1 0 5.5 0 a2.75 2.75 0 1 0 -5.5 0zM1135.75 467.5 a2.75 2.75 0 1 0 5.5 0 a2.75 2.75 0 1 0 -5.5 0zM1377.75 434.5 a2.75 2.75 0 1 0 5.5 0 a2.75 2.75 0 1 0 -5.5 0zM783.75 489.5 a2.75 2.75 0 1 0 5.5 0 a2.75 2.75 0 1 0 -5.5 0zM1179.75 423.5 a2.75 2.75 0 1 0 5.5 0 a2.75 2.75 0 1 0 -5.5 0zM838.75 478.5 a2.75 2.75 0 1 0 5.5 0 a2.75 2.75 0 1 0 -5.5 0z" fill="rgba(253, 230, 138, 0.48)"></path>
            <path d="M1204.5 104.5L1193.5 93.5L1182.5 93.5L1171.5 93.5L1160.5 82.5L1149.5 82.5L1138.5 82.5M1435.5 148.5L1424.5 137.5L1413.5 137.5M1072.5 115.5L1061.5 104.5L1050.5 104.5L1039.5 104.5L1028.5 104.5L1017.5 104.5L1006.5 104.5L995.5 104.5L984.5 104.5L973.5 104.5M1094.5 104.5L1083.5 93.5M1237.5 104.5L1226.5 93.5L1215.5 93.5L1204.5 82.5L1193.5 82.5L1182.5 82.5L1171.5 82.5L1160.5 71.5L1149.5 60.5L1138.5 60.5L1127.5 60.5L1116.5 60.5L1105.5 60.5L1094.5 60.5L1083.5 60.5M885.5 104.5L874.5 93.5L863.5 93.5L852.5 93.5L841.5 104.5M1138.5 104.5L1127.5 93.5L1116.5 93.5L1105.5 93.5L1094.5 93.5L1083.5 82.5L1072.5 82.5L1061.5 82.5L1050.5 82.5L1039.5 93.5L1028.5 93.5L1017.5 93.5L1006.5 93.5L995.5 93.5L984.5 93.5L973.5 93.5L962.5 93.5L951.5 93.5M1402.5 148.5L1391.5 137.5L1380.5 137.5L1369.5 137.5L1358.5 126.5L1347.5 126.5L1336.5 126.5L1325.5 126.5L1314.5 126.5L1303.5 115.5L1292.5 104.5L1281.5 104.5M1259.5 104.5L1248.5 93.5L1237.5 93.5L1226.5 82.5L1215.5 71.5L1204.5 71.5L1193.5 71.5L1182.5 71.5L1171.5 71.5L1160.5 60.5L1149.5 49.5L1138.5 49.5L1127.5 49.5L1116.5 49.5L1105.5 49.5L1094.5 49.5L1083.5 38.5L1072.5 38.5M1160.5 104.5L1149.5 93.5L1138.5 93.5M951.5 115.5L940.5 104.5L929.5 104.5L918.5 93.5L907.5 93.5M896.5 104.5L885.5 93.5M962.5 115.5L951.5 104.5M1446.5 148.5L1435.5 148.5L1424.5 148.5L1413.5 148.5L1402.5 148.5L1391.5 148.5L1380.5 148.5L1369.5 148.5L1358.5 137.5L1347.5 137.5L1336.5 137.5L1325.5 137.5L1314.5 137.5L1303.5 126.5L1292.5 126.5L1281.5 126.5L1270.5 115.5L1259.5 104.5L1248.5 104.5L1237.5 104.5L1226.5 104.5L1215.5 104.5L1204.5 104.5L1193.5 104.5L1182.5 104.5L1171.5 104.5L1160.5 104.5L1149.5 104.5L1138.5 104.5L1127.5 104.5L1116.5 104.5L1105.5 104.5L1094.5 104.5L1083.5 104.5L1072.5 115.5L1061.5 115.5L1050.5 115.5L1039.5 115.5L1028.5 115.5L1017.5 115.5L1006.5 115.5L995.5 115.5L984.5 115.5L973.5 115.5L962.5 115.5L951.5 115.5L940.5 115.5L929.5 115.5L918.5 104.5L907.5 104.5L896.5 104.5L885.5 104.5L874.5 104.5" stroke="rgba(251, 191, 36, 0.37)" stroke-width="1.83"></path>
            <path d="M871.75 104.5 a2.75 2.75 0 1 0 5.5 0 a2.75 2.75 0 1 0 -5.5 0zM1135.75 82.5 a2.75 2.75 0 1 0 5.5 0 a2.75 2.75 0 1 0 -5.5 0zM1410.75 137.5 a2.75 2.75 0 1 0 5.5 0 a2.75 2.75 0 1 0 -5.5 0zM970.75 104.5 a2.75 2.75 0 1 0 5.5 0 a2.75 2.75 0 1 0 -5.5 0zM1080.75 93.5 a2.75 2.75 0 1 0 5.5 0 a2.75 2.75 0 1 0 -5.5 0zM1080.75 60.5 a2.75 2.75 0 1 0 5.5 0 a2.75 2.75 0 1 0 -5.5 0zM838.75 104.5 a2.75 2.75 0 1 0 5.5 0 a2.75 2.75 0 1 0 -5.5 0zM948.75 93.5 a2.75 2.75 0 1 0 5.5 0 a2.75 2.75 0 1 0 -5.5 0zM1278.75 104.5 a2.75 2.75 0 1 0 5.5 0 a2.75 2.75 0 1 0 -5.5 0zM1069.75 38.5 a2.75 2.75 0 1 0 5.5 0 a2.75 2.75 0 1 0 -5.5 0zM1135.75 93.5 a2.75 2.75 0 1 0 5.5 0 a2.75 2.75 0 1 0 -5.5 0zM904.75 93.5 a2.75 2.75 0 1 0 5.5 0 a2.75 2.75 0 1 0 -5.5 0zM882.75 93.5 a2.75 2.75 0 1 0 5.5 0 a2.75 2.75 0 1 0 -5.5 0zM948.75 104.5 a2.75 2.75 0 1 0 5.5 0 a2.75 2.75 0 1 0 -5.5 0z" fill="rgba(251, 191, 36, 0.37)"></path>
        </g>
    </g>
    <defs>
        <mask id="SvgjsMask1864">
            <rect width="1440" height="560" fill="#ffffff"></rect>
        </mask>
        <mask id="SvgjsMask1865">
            <rect width="1440" height="560" fill="white"></rect>
            <path d="M422.12 324.5 a1.38 1.38 0 1 0 2.76 0 a1.38 1.38 0 1 0 -2.76 0zM1181.12 280.5 a1.38 1.38 0 1 0 2.76 0 a1.38 1.38 0 1 0 -2.76 0zM917.12 302.5 a1.38 1.38 0 1 0 2.76 0 a1.38 1.38 0 1 0 -2.76 0zM1302.12 280.5 a1.38 1.38 0 1 0 2.76 0 a1.38 1.38 0 1 0 -2.76 0zM1060.12 269.5 a1.38 1.38 0 1 0 2.76 0 a1.38 1.38 0 1 0 -2.76 0zM554.12 214.5 a1.38 1.38 0 1 0 2.76 0 a1.38 1.38 0 1 0 -2.76 0zM642.12 302.5 a1.38 1.38 0 1 0 2.76 0 a1.38 1.38 0 1 0 -2.76 0zM851.12 258.5 a1.38 1.38 0 1 0 2.76 0 a1.38 1.38 0 1 0 -2.76 0zM642.12 291.5 a1.38 1.38 0 1 0 2.76 0 a1.38 1.38 0 1 0 -2.76 0zM1313.12 280.5 a1.38 1.38 0 1 0 2.76 0 a1.38 1.38 0 1 0 -2.76 0zM895.12 313.5 a1.38 1.38 0 1 0 2.76 0 a1.38 1.38 0 1 0 -2.76 0zM983.12 269.5 a1.38 1.38 0 1 0 2.76 0 a1.38 1.38 0 1 0 -2.76 0zM433.12 302.5 a1.38 1.38 0 1 0 2.76 0 a1.38 1.38 0 1 0 -2.76 0zM741.12 313.5 a1.38 1.38 0 1 0 2.76 0 a1.38 1.38 0 1 0 -2.76 0zM961.12 258.5 a1.38 1.38 0 1 0 2.76 0 a1.38 1.38 0 1 0 -2.76 0zM983.12 247.5 a1.38 1.38 0 1 0 2.76 0 a1.38 1.38 0 1 0 -2.76 0zM389.12 313.5 a1.38 1.38 0 1 0 2.76 0 a1.38 1.38 0 1 0 -2.76 0zM763.12 302.5 a1.38 1.38 0 1 0 2.76 0 a1.38 1.38 0 1 0 -2.76 0zM587.12 324.5 a1.38 1.38 0 1 0 2.76 0 a1.38 1.38 0 1 0 -2.76 0zM521.12 335.5 a1.38 1.38 0 1 0 2.76 0 a1.38 1.38 0 1 0 -2.76 0zM1115.12 280.5 a1.38 1.38 0 1 0 2.76 0 a1.38 1.38 0 1 0 -2.76 0zM950.12 280.5 a1.38 1.38 0 1 0 2.76 0 a1.38 1.38 0 1 0 -2.76 0zM785.12 280.5 a1.38 1.38 0 1 0 2.76 0 a1.38 1.38 0 1 0 -2.76 0zM1335.12 269.5 a1.38 1.38 0 1 0 2.76 0 a1.38 1.38 0 1 0 -2.76 0z" fill="black"></path>
            <path d="M1159.12 269.5 a1.38 1.38 0 1 0 2.76 0 a1.38 1.38 0 1 0 -2.76 0zM1357.12 269.5 a1.38 1.38 0 1 0 2.76 0 a1.38 1.38 0 1 0 -2.76 0zM1203.12 247.5 a1.38 1.38 0 1 0 2.76 0 a1.38 1.38 0 1 0 -2.76 0zM1137.12 258.5 a1.38 1.38 0 1 0 2.76 0 a1.38 1.38 0 1 0 -2.76 0zM1181.12 247.5 a1.38 1.38 0 1 0 2.76 0 a1.38 1.38 0 1 0 -2.76 0zM1313.12 247.5 a1.38 1.38 0 1 0 2.76 0 a1.38 1.38 0 1 0 -2.76 0zM1214.12 247.5 a1.38 1.38 0 1 0 2.76 0 a1.38 1.38 0 1 0 -2.76 0z" fill="black"></path>
            <path d="M1181.12 291.5 a1.38 1.38 0 1 0 2.76 0 a1.38 1.38 0 1 0 -2.76 0zM1258.12 302.5 a1.38 1.38 0 1 0 2.76 0 a1.38 1.38 0 1 0 -2.76 0zM1291.12 302.5 a1.38 1.38 0 1 0 2.76 0 a1.38 1.38 0 1 0 -2.76 0zM1159.12 302.5 a1.38 1.38 0 1 0 2.76 0 a1.38 1.38 0 1 0 -2.76 0zM1313.12 302.5 a1.38 1.38 0 1 0 2.76 0 a1.38 1.38 0 1 0 -2.76 0zM1181.12 313.5 a1.38 1.38 0 1 0 2.76 0 a1.38 1.38 0 1 0 -2.76 0zM1225.12 302.5 a1.38 1.38 0 1 0 2.76 0 a1.38 1.38 0 1 0 -2.76 0z" fill="black"></path>
            <path d="M664.12 214.5 a1.38 1.38 0 1 0 2.76 0 a1.38 1.38 0 1 0 -2.76 0zM1016.12 236.5 a1.38 1.38 0 1 0 2.76 0 a1.38 1.38 0 1 0 -2.76 0zM818.12 225.5 a1.38 1.38 0 1 0 2.76 0 a1.38 1.38 0 1 0 -2.76 0zM895.12 247.5 a1.38 1.38 0 1 0 2.76 0 a1.38 1.38 0 1 0 -2.76 0zM1093.12 236.5 a1.38 1.38 0 1 0 2.76 0 a1.38 1.38 0 1 0 -2.76 0zM1225.12 225.5 a1.38 1.38 0 1 0 2.76 0 a1.38 1.38 0 1 0 -2.76 0zM774.12 225.5 a1.38 1.38 0 1 0 2.76 0 a1.38 1.38 0 1 0 -2.76 0zM653.12 225.5 a1.38 1.38 0 1 0 2.76 0 a1.38 1.38 0 1 0 -2.76 0zM1027.12 236.5 a1.38 1.38 0 1 0 2.76 0 a1.38 1.38 0 1 0 -2.76 0zM686.12 236.5 a1.38 1.38 0 1 0 2.76 0 a1.38 1.38 0 1 0 -2.76 0zM664.12 203.5 a1.38 1.38 0 1 0 2.76 0 a1.38 1.38 0 1 0 -2.76 0zM928.12 247.5 a1.38 1.38 0 1 0 2.76 0 a1.38 1.38 0 1 0 -2.76 0zM1137.12 236.5 a1.38 1.38 0 1 0 2.76 0 a1.38 1.38 0 1 0 -2.76 0zM730.12 236.5 a1.38 1.38 0 1 0 2.76 0 a1.38 1.38 0 1 0 -2.76 0zM686.12 203.5 a1.38 1.38 0 1 0 2.76 0 a1.38 1.38 0 1 0 -2.76 0zM1148.12 236.5 a1.38 1.38 0 1 0 2.76 0 a1.38 1.38 0 1 0 -2.76 0zM708.12 247.5 a1.38 1.38 0 1 0 2.76 0 a1.38 1.38 0 1 0 -2.76 0zM752.12 258.5 a1.38 1.38 0 1 0 2.76 0 a1.38 1.38 0 1 0 -2.76 0zM697.12 203.5 a1.38 1.38 0 1 0 2.76 0 a1.38 1.38 0 1 0 -2.76 0z" fill="black"></path>
            <path d="M1236.12 313.5 a1.38 1.38 0 1 0 2.76 0 a1.38 1.38 0 1 0 -2.76 0zM1258.12 313.5 a1.38 1.38 0 1 0 2.76 0 a1.38 1.38 0 1 0 -2.76 0zM1269.12 313.5 a1.38 1.38 0 1 0 2.76 0 a1.38 1.38 0 1 0 -2.76 0zM1203.12 324.5 a1.38 1.38 0 1 0 2.76 0 a1.38 1.38 0 1 0 -2.76 0zM1247.12 324.5 a1.38 1.38 0 1 0 2.76 0 a1.38 1.38 0 1 0 -2.76 0z" fill="black"></path>
            <path d="M1346.12 236.5 a1.38 1.38 0 1 0 2.76 0 a1.38 1.38 0 1 0 -2.76 0z" fill="black"></path>
            <path d="M378.12 357.5 a1.38 1.38 0 1 0 2.76 0 a1.38 1.38 0 1 0 -2.76 0zM422.12 357.5 a1.38 1.38 0 1 0 2.76 0 a1.38 1.38 0 1 0 -2.76 0zM642.12 335.5 a1.38 1.38 0 1 0 2.76 0 a1.38 1.38 0 1 0 -2.76 0zM301.12 368.5 a1.38 1.38 0 1 0 2.76 0 a1.38 1.38 0 1 0 -2.76 0zM972.12 313.5 a1.38 1.38 0 1 0 2.76 0 a1.38 1.38 0 1 0 -2.76 0zM1071.12 346.5 a1.38 1.38 0 1 0 2.76 0 a1.38 1.38 0 1 0 -2.76 0zM697.12 324.5 a1.38 1.38 0 1 0 2.76 0 a1.38 1.38 0 1 0 -2.76 0zM994.12 335.5 a1.38 1.38 0 1 0 2.76 0 a1.38 1.38 0 1 0 -2.76 0zM686.12 346.5 a1.38 1.38 0 1 0 2.76 0 a1.38 1.38 0 1 0 -2.76 0zM785.12 324.5 a1.38 1.38 0 1 0 2.76 0 a1.38 1.38 0 1 0 -2.76 0zM818.12 324.5 a1.38 1.38 0 1 0 2.76 0 a1.38 1.38 0 1 0 -2.76 0zM433.12 346.5 a1.38 1.38 0 1 0 2.76 0 a1.38 1.38 0 1 0 -2.76 0zM554.12 368.5 a1.38 1.38 0 1 0 2.76 0 a1.38 1.38 0 1 0 -2.76 0zM400.12 357.5 a1.38 1.38 0 1 0 2.76 0 a1.38 1.38 0 1 0 -2.76 0zM708.12 346.5 a1.38 1.38 0 1 0 2.76 0 a1.38 1.38 0 1 0 -2.76 0zM1027.12 335.5 a1.38 1.38 0 1 0 2.76 0 a1.38 1.38 0 1 0 -2.76 0zM1049.12 335.5 a1.38 1.38 0 1 0 2.76 0 a1.38 1.38 0 1 0 -2.76 0zM1126.12 313.5 a1.38 1.38 0 1 0 2.76 0 a1.38 1.38 0 1 0 -2.76 0zM1093.12 346.5 a1.38 1.38 0 1 0 2.76 0 a1.38 1.38 0 1 0 -2.76 0zM1049.12 346.5 a1.38 1.38 0 1 0 2.76 0 a1.38 1.38 0 1 0 -2.76 0zM312.12 357.5 a1.38 1.38 0 1 0 2.76 0 a1.38 1.38 0 1 0 -2.76 0zM950.12 313.5 a1.38 1.38 0 1 0 2.76 0 a1.38 1.38 0 1 0 -2.76 0zM961.12 302.5 a1.38 1.38 0 1 0 2.76 0 a1.38 1.38 0 1 0 -2.76 0zM125.12 357.5 a1.38 1.38 0 1 0 2.76 0 a1.38 1.38 0 1 0 -2.76 0zM1159.12 313.5 a1.38 1.38 0 1 0 2.76 0 a1.38 1.38 0 1 0 -2.76 0z" fill="black"></path>
            <path d="M1313.12 225.5 a1.38 1.38 0 1 0 2.76 0 a1.38 1.38 0 1 0 -2.76 0z" fill="black"></path>
            <path d="M741.12 346.5 a1.38 1.38 0 1 0 2.76 0 a1.38 1.38 0 1 0 -2.76 0zM752.12 357.5 a1.38 1.38 0 1 0 2.76 0 a1.38 1.38 0 1 0 -2.76 0zM1225.12 357.5 a1.38 1.38 0 1 0 2.76 0 a1.38 1.38 0 1 0 -2.76 0zM829.12 357.5 a1.38 1.38 0 1 0 2.76 0 a1.38 1.38 0 1 0 -2.76 0zM917.12 368.5 a1.38 1.38 0 1 0 2.76 0 a1.38 1.38 0 1 0 -2.76 0zM950.12 368.5 a1.38 1.38 0 1 0 2.76 0 a1.38 1.38 0 1 0 -2.76 0zM840.12 346.5 a1.38 1.38 0 1 0 2.76 0 a1.38 1.38 0 1 0 -2.76 0zM884.12 346.5 a1.38 1.38 0 1 0 2.76 0 a1.38 1.38 0 1 0 -2.76 0zM1005.12 368.5 a1.38 1.38 0 1 0 2.76 0 a1.38 1.38 0 1 0 -2.76 0zM1016.12 368.5 a1.38 1.38 0 1 0 2.76 0 a1.38 1.38 0 1 0 -2.76 0zM1126.12 357.5 a1.38 1.38 0 1 0 2.76 0 a1.38 1.38 0 1 0 -2.76 0zM1357.12 335.5 a1.38 1.38 0 1 0 2.76 0 a1.38 1.38 0 1 0 -2.76 0zM1104.12 346.5 a1.38 1.38 0 1 0 2.76 0 a1.38 1.38 0 1 0 -2.76 0zM983.12 346.5 a1.38 1.38 0 1 0 2.76 0 a1.38 1.38 0 1 0 -2.76 0zM928.12 346.5 a1.38 1.38 0 1 0 2.76 0 a1.38 1.38 0 1 0 -2.76 0z" fill="black"></path>
            <path d="M598.12 181.5 a1.38 1.38 0 1 0 2.76 0 a1.38 1.38 0 1 0 -2.76 0zM1049.12 225.5 a1.38 1.38 0 1 0 2.76 0 a1.38 1.38 0 1 0 -2.76 0zM1016.12 203.5 a1.38 1.38 0 1 0 2.76 0 a1.38 1.38 0 1 0 -2.76 0zM906.12 225.5 a1.38 1.38 0 1 0 2.76 0 a1.38 1.38 0 1 0 -2.76 0zM609.12 192.5 a1.38 1.38 0 1 0 2.76 0 a1.38 1.38 0 1 0 -2.76 0zM730.12 214.5 a1.38 1.38 0 1 0 2.76 0 a1.38 1.38 0 1 0 -2.76 0zM1060.12 236.5 a1.38 1.38 0 1 0 2.76 0 a1.38 1.38 0 1 0 -2.76 0zM785.12 203.5 a1.38 1.38 0 1 0 2.76 0 a1.38 1.38 0 1 0 -2.76 0zM862.12 203.5 a1.38 1.38 0 1 0 2.76 0 a1.38 1.38 0 1 0 -2.76 0zM829.12 192.5 a1.38 1.38 0 1 0 2.76 0 a1.38 1.38 0 1 0 -2.76 0zM950.12 203.5 a1.38 1.38 0 1 0 2.76 0 a1.38 1.38 0 1 0 -2.76 0zM708.12 203.5 a1.38 1.38 0 1 0 2.76 0 a1.38 1.38 0 1 0 -2.76 0zM1115.12 225.5 a1.38 1.38 0 1 0 2.76 0 a1.38 1.38 0 1 0 -2.76 0zM1082.12 203.5 a1.38 1.38 0 1 0 2.76 0 a1.38 1.38 0 1 0 -2.76 0zM796.12 203.5 a1.38 1.38 0 1 0 2.76 0 a1.38 1.38 0 1 0 -2.76 0zM1060.12 225.5 a1.38 1.38 0 1 0 2.76 0 a1.38 1.38 0 1 0 -2.76 0zM290.12 159.5 a1.38 1.38 0 1 0 2.76 0 a1.38 1.38 0 1 0 -2.76 0zM631.12 214.5 a1.38 1.38 0 1 0 2.76 0 a1.38 1.38 0 1 0 -2.76 0zM961.12 192.5 a1.38 1.38 0 1 0 2.76 0 a1.38 1.38 0 1 0 -2.76 0zM719.12 203.5 a1.38 1.38 0 1 0 2.76 0 a1.38 1.38 0 1 0 -2.76 0z" fill="black"></path>
            <path d="M400.12 379.5 a1.38 1.38 0 1 0 2.76 0 a1.38 1.38 0 1 0 -2.76 0zM785.12 379.5 a1.38 1.38 0 1 0 2.76 0 a1.38 1.38 0 1 0 -2.76 0zM609.12 412.5 a1.38 1.38 0 1 0 2.76 0 a1.38 1.38 0 1 0 -2.76 0zM235.12 412.5 a1.38 1.38 0 1 0 2.76 0 a1.38 1.38 0 1 0 -2.76 0zM774.12 401.5 a1.38 1.38 0 1 0 2.76 0 a1.38 1.38 0 1 0 -2.76 0zM345.12 423.5 a1.38 1.38 0 1 0 2.76 0 a1.38 1.38 0 1 0 -2.76 0zM1049.12 379.5 a1.38 1.38 0 1 0 2.76 0 a1.38 1.38 0 1 0 -2.76 0zM466.12 390.5 a1.38 1.38 0 1 0 2.76 0 a1.38 1.38 0 1 0 -2.76 0zM1258.12 357.5 a1.38 1.38 0 1 0 2.76 0 a1.38 1.38 0 1 0 -2.76 0zM1379.12 335.5 a1.38 1.38 0 1 0 2.76 0 a1.38 1.38 0 1 0 -2.76 0zM620.12 368.5 a1.38 1.38 0 1 0 2.76 0 a1.38 1.38 0 1 0 -2.76 0zM708.12 390.5 a1.38 1.38 0 1 0 2.76 0 a1.38 1.38 0 1 0 -2.76 0zM719.12 390.5 a1.38 1.38 0 1 0 2.76 0 a1.38 1.38 0 1 0 -2.76 0zM433.12 423.5 a1.38 1.38 0 1 0 2.76 0 a1.38 1.38 0 1 0 -2.76 0zM1181.12 368.5 a1.38 1.38 0 1 0 2.76 0 a1.38 1.38 0 1 0 -2.76 0zM807.12 401.5 a1.38 1.38 0 1 0 2.76 0 a1.38 1.38 0 1 0 -2.76 0zM576.12 390.5 a1.38 1.38 0 1 0 2.76 0 a1.38 1.38 0 1 0 -2.76 0zM840.12 401.5 a1.38 1.38 0 1 0 2.76 0 a1.38 1.38 0 1 0 -2.76 0zM191.12 423.5 a1.38 1.38 0 1 0 2.76 0 a1.38 1.38 0 1 0 -2.76 0zM213.12 390.5 a1.38 1.38 0 1 0 2.76 0 a1.38 1.38 0 1 0 -2.76 0zM928.12 390.5 a1.38 1.38 0 1 0 2.76 0 a1.38 1.38 0 1 0 -2.76 0zM576.12 412.5 a1.38 1.38 0 1 0 2.76 0 a1.38 1.38 0 1 0 -2.76 0zM1159.12 357.5 a1.38 1.38 0 1 0 2.76 0 a1.38 1.38 0 1 0 -2.76 0zM1038.12 368.5 a1.38 1.38 0 1 0 2.76 0 a1.38 1.38 0 1 0 -2.76 0zM741.12 390.5 a1.38 1.38 0 1 0 2.76 0 a1.38 1.38 0 1 0 -2.76 0z" fill="black"></path>
            <path d="M510.12 159.5 a1.38 1.38 0 1 0 2.76 0 a1.38 1.38 0 1 0 -2.76 0zM576.12 137.5 a1.38 1.38 0 1 0 2.76 0 a1.38 1.38 0 1 0 -2.76 0zM587.12 137.5 a1.38 1.38 0 1 0 2.76 0 a1.38 1.38 0 1 0 -2.76 0zM730.12 181.5 a1.38 1.38 0 1 0 2.76 0 a1.38 1.38 0 1 0 -2.76 0zM983.12 192.5 a1.38 1.38 0 1 0 2.76 0 a1.38 1.38 0 1 0 -2.76 0zM235.12 148.5 a1.38 1.38 0 1 0 2.76 0 a1.38 1.38 0 1 0 -2.76 0zM763.12 181.5 a1.38 1.38 0 1 0 2.76 0 a1.38 1.38 0 1 0 -2.76 0zM356.12 137.5 a1.38 1.38 0 1 0 2.76 0 a1.38 1.38 0 1 0 -2.76 0zM774.12 181.5 a1.38 1.38 0 1 0 2.76 0 a1.38 1.38 0 1 0 -2.76 0zM1104.12 203.5 a1.38 1.38 0 1 0 2.76 0 a1.38 1.38 0 1 0 -2.76 0zM895.12 192.5 a1.38 1.38 0 1 0 2.76 0 a1.38 1.38 0 1 0 -2.76 0zM1214.12 192.5 a1.38 1.38 0 1 0 2.76 0 a1.38 1.38 0 1 0 -2.76 0zM521.12 170.5 a1.38 1.38 0 1 0 2.76 0 a1.38 1.38 0 1 0 -2.76 0zM554.12 181.5 a1.38 1.38 0 1 0 2.76 0 a1.38 1.38 0 1 0 -2.76 0zM1291.12 192.5 a1.38 1.38 0 1 0 2.76 0 a1.38 1.38 0 1 0 -2.76 0zM840.12 192.5 a1.38 1.38 0 1 0 2.76 0 a1.38 1.38 0 1 0 -2.76 0zM851.12 192.5 a1.38 1.38 0 1 0 2.76 0 a1.38 1.38 0 1 0 -2.76 0zM906.12 192.5 a1.38 1.38 0 1 0 2.76 0 a1.38 1.38 0 1 0 -2.76 0zM917.12 192.5 a1.38 1.38 0 1 0 2.76 0 a1.38 1.38 0 1 0 -2.76 0zM1214.12 181.5 a1.38 1.38 0 1 0 2.76 0 a1.38 1.38 0 1 0 -2.76 0zM994.12 192.5 a1.38 1.38 0 1 0 2.76 0 a1.38 1.38 0 1 0 -2.76 0zM796.12 159.5 a1.38 1.38 0 1 0 2.76 0 a1.38 1.38 0 1 0 -2.76 0z" fill="black"></path>
            <path d="M488.12 423.5 a1.38 1.38 0 1 0 2.76 0 a1.38 1.38 0 1 0 -2.76 0zM873.12 412.5 a1.38 1.38 0 1 0 2.76 0 a1.38 1.38 0 1 0 -2.76 0zM1016.12 401.5 a1.38 1.38 0 1 0 2.76 0 a1.38 1.38 0 1 0 -2.76 0zM1049.12 401.5 a1.38 1.38 0 1 0 2.76 0 a1.38 1.38 0 1 0 -2.76 0zM422.12 445.5 a1.38 1.38 0 1 0 2.76 0 a1.38 1.38 0 1 0 -2.76 0zM268.12 456.5 a1.38 1.38 0 1 0 2.76 0 a1.38 1.38 0 1 0 -2.76 0zM631.12 412.5 a1.38 1.38 0 1 0 2.76 0 a1.38 1.38 0 1 0 -2.76 0zM686.12 401.5 a1.38 1.38 0 1 0 2.76 0 a1.38 1.38 0 1 0 -2.76 0zM851.12 401.5 a1.38 1.38 0 1 0 2.76 0 a1.38 1.38 0 1 0 -2.76 0zM1159.12 379.5 a1.38 1.38 0 1 0 2.76 0 a1.38 1.38 0 1 0 -2.76 0zM950.12 412.5 a1.38 1.38 0 1 0 2.76 0 a1.38 1.38 0 1 0 -2.76 0zM653.12 412.5 a1.38 1.38 0 1 0 2.76 0 a1.38 1.38 0 1 0 -2.76 0zM587.12 412.5 a1.38 1.38 0 1 0 2.76 0 a1.38 1.38 0 1 0 -2.76 0zM939.12 390.5 a1.38 1.38 0 1 0 2.76 0 a1.38 1.38 0 1 0 -2.76 0zM961.12 412.5 a1.38 1.38 0 1 0 2.76 0 a1.38 1.38 0 1 0 -2.76 0zM1159.12 401.5 a1.38 1.38 0 1 0 2.76 0 a1.38 1.38 0 1 0 -2.76 0zM983.12 412.5 a1.38 1.38 0 1 0 2.76 0 a1.38 1.38 0 1 0 -2.76 0zM1203.12 379.5 a1.38 1.38 0 1 0 2.76 0 a1.38 1.38 0 1 0 -2.76 0zM1104.12 390.5 a1.38 1.38 0 1 0 2.76 0 a1.38 1.38 0 1 0 -2.76 0z" fill="black"></path>
            <path d="M1324.12 181.5 a1.38 1.38 0 1 0 2.76 0 a1.38 1.38 0 1 0 -2.76 0zM1335.12 192.5 a1.38 1.38 0 1 0 2.76 0 a1.38 1.38 0 1 0 -2.76 0z" fill="black"></path>
            <path d="M1104.12 412.5 a1.38 1.38 0 1 0 2.76 0 a1.38 1.38 0 1 0 -2.76 0zM1137.12 412.5 a1.38 1.38 0 1 0 2.76 0 a1.38 1.38 0 1 0 -2.76 0zM1148.12 412.5 a1.38 1.38 0 1 0 2.76 0 a1.38 1.38 0 1 0 -2.76 0zM1126.12 401.5 a1.38 1.38 0 1 0 2.76 0 a1.38 1.38 0 1 0 -2.76 0zM1170.12 401.5 a1.38 1.38 0 1 0 2.76 0 a1.38 1.38 0 1 0 -2.76 0z" fill="black"></path>
            <path d="M884.12 170.5 a1.38 1.38 0 1 0 2.76 0 a1.38 1.38 0 1 0 -2.76 0zM1126.12 181.5 a1.38 1.38 0 1 0 2.76 0 a1.38 1.38 0 1 0 -2.76 0zM1203.12 170.5 a1.38 1.38 0 1 0 2.76 0 a1.38 1.38 0 1 0 -2.76 0zM1225.12 181.5 a1.38 1.38 0 1 0 2.76 0 a1.38 1.38 0 1 0 -2.76 0zM1214.12 159.5 a1.38 1.38 0 1 0 2.76 0 a1.38 1.38 0 1 0 -2.76 0zM906.12 159.5 a1.38 1.38 0 1 0 2.76 0 a1.38 1.38 0 1 0 -2.76 0zM1016.12 159.5 a1.38 1.38 0 1 0 2.76 0 a1.38 1.38 0 1 0 -2.76 0zM1038.12 159.5 a1.38 1.38 0 1 0 2.76 0 a1.38 1.38 0 1 0 -2.76 0zM1060.12 170.5 a1.38 1.38 0 1 0 2.76 0 a1.38 1.38 0 1 0 -2.76 0zM1302.12 181.5 a1.38 1.38 0 1 0 2.76 0 a1.38 1.38 0 1 0 -2.76 0zM774.12 148.5 a1.38 1.38 0 1 0 2.76 0 a1.38 1.38 0 1 0 -2.76 0zM1082.12 159.5 a1.38 1.38 0 1 0 2.76 0 a1.38 1.38 0 1 0 -2.76 0zM1137.12 159.5 a1.38 1.38 0 1 0 2.76 0 a1.38 1.38 0 1 0 -2.76 0zM1247.12 192.5 a1.38 1.38 0 1 0 2.76 0 a1.38 1.38 0 1 0 -2.76 0z" fill="black"></path>
            <path d="M631.12 434.5 a1.38 1.38 0 1 0 2.76 0 a1.38 1.38 0 1 0 -2.76 0zM532.12 445.5 a1.38 1.38 0 1 0 2.76 0 a1.38 1.38 0 1 0 -2.76 0zM961.12 434.5 a1.38 1.38 0 1 0 2.76 0 a1.38 1.38 0 1 0 -2.76 0zM1280.12 390.5 a1.38 1.38 0 1 0 2.76 0 a1.38 1.38 0 1 0 -2.76 0zM1082.12 412.5 a1.38 1.38 0 1 0 2.76 0 a1.38 1.38 0 1 0 -2.76 0zM697.12 445.5 a1.38 1.38 0 1 0 2.76 0 a1.38 1.38 0 1 0 -2.76 0zM664.12 434.5 a1.38 1.38 0 1 0 2.76 0 a1.38 1.38 0 1 0 -2.76 0zM719.12 467.5 a1.38 1.38 0 1 0 2.76 0 a1.38 1.38 0 1 0 -2.76 0zM752.12 467.5 a1.38 1.38 0 1 0 2.76 0 a1.38 1.38 0 1 0 -2.76 0zM1401.12 379.5 a1.38 1.38 0 1 0 2.76 0 a1.38 1.38 0 1 0 -2.76 0zM829.12 434.5 a1.38 1.38 0 1 0 2.76 0 a1.38 1.38 0 1 0 -2.76 0zM1412.12 379.5 a1.38 1.38 0 1 0 2.76 0 a1.38 1.38 0 1 0 -2.76 0zM1225.12 412.5 a1.38 1.38 0 1 0 2.76 0 a1.38 1.38 0 1 0 -2.76 0zM763.12 478.5 a1.38 1.38 0 1 0 2.76 0 a1.38 1.38 0 1 0 -2.76 0zM1368.12 390.5 a1.38 1.38 0 1 0 2.76 0 a1.38 1.38 0 1 0 -2.76 0z" fill="black"></path>
            <path d="M1423.12 181.5 a1.38 1.38 0 1 0 2.76 0 a1.38 1.38 0 1 0 -2.76 0z" fill="black"></path>
            <path d="M1390.12 379.5 a1.38 1.38 0 1 0 2.76 0 a1.38 1.38 0 1 0 -2.76 0zM1390.12 390.5 a1.38 1.38 0 1 0 2.76 0 a1.38 1.38 0 1 0 -2.76 0z" fill="black"></path>
            <path d="M917.12 126.5 a1.38 1.38 0 1 0 2.76 0 a1.38 1.38 0 1 0 -2.76 0zM1181.12 148.5 a1.38 1.38 0 1 0 2.76 0 a1.38 1.38 0 1 0 -2.76 0zM1258.12 159.5 a1.38 1.38 0 1 0 2.76 0 a1.38 1.38 0 1 0 -2.76 0zM961.12 148.5 a1.38 1.38 0 1 0 2.76 0 a1.38 1.38 0 1 0 -2.76 0zM1247.12 148.5 a1.38 1.38 0 1 0 2.76 0 a1.38 1.38 0 1 0 -2.76 0zM939.12 148.5 a1.38 1.38 0 1 0 2.76 0 a1.38 1.38 0 1 0 -2.76 0zM983.12 137.5 a1.38 1.38 0 1 0 2.76 0 a1.38 1.38 0 1 0 -2.76 0zM994.12 137.5 a1.38 1.38 0 1 0 2.76 0 a1.38 1.38 0 1 0 -2.76 0zM1049.12 137.5 a1.38 1.38 0 1 0 2.76 0 a1.38 1.38 0 1 0 -2.76 0zM1137.12 137.5 a1.38 1.38 0 1 0 2.76 0 a1.38 1.38 0 1 0 -2.76 0zM1302.12 159.5 a1.38 1.38 0 1 0 2.76 0 a1.38 1.38 0 1 0 -2.76 0zM1148.12 148.5 a1.38 1.38 0 1 0 2.76 0 a1.38 1.38 0 1 0 -2.76 0zM1214.12 148.5 a1.38 1.38 0 1 0 2.76 0 a1.38 1.38 0 1 0 -2.76 0z" fill="black"></path>
            <path d="M147.12 104.5 a1.38 1.38 0 1 0 2.76 0 a1.38 1.38 0 1 0 -2.76 0zM1082.12 115.5 a1.38 1.38 0 1 0 2.76 0 a1.38 1.38 0 1 0 -2.76 0zM598.12 137.5 a1.38 1.38 0 1 0 2.76 0 a1.38 1.38 0 1 0 -2.76 0zM312.12 93.5 a1.38 1.38 0 1 0 2.76 0 a1.38 1.38 0 1 0 -2.76 0zM125.12 137.5 a1.38 1.38 0 1 0 2.76 0 a1.38 1.38 0 1 0 -2.76 0zM466.12 93.5 a1.38 1.38 0 1 0 2.76 0 a1.38 1.38 0 1 0 -2.76 0zM125.12 115.5 a1.38 1.38 0 1 0 2.76 0 a1.38 1.38 0 1 0 -2.76 0zM422.12 115.5 a1.38 1.38 0 1 0 2.76 0 a1.38 1.38 0 1 0 -2.76 0zM1390.12 159.5 a1.38 1.38 0 1 0 2.76 0 a1.38 1.38 0 1 0 -2.76 0zM312.12 137.5 a1.38 1.38 0 1 0 2.76 0 a1.38 1.38 0 1 0 -2.76 0zM642.12 93.5 a1.38 1.38 0 1 0 2.76 0 a1.38 1.38 0 1 0 -2.76 0zM697.12 137.5 a1.38 1.38 0 1 0 2.76 0 a1.38 1.38 0 1 0 -2.76 0zM609.12 137.5 a1.38 1.38 0 1 0 2.76 0 a1.38 1.38 0 1 0 -2.76 0zM1401.12 159.5 a1.38 1.38 0 1 0 2.76 0 a1.38 1.38 0 1 0 -2.76 0zM125.12 104.5 a1.38 1.38 0 1 0 2.76 0 a1.38 1.38 0 1 0 -2.76 0zM774.12 137.5 a1.38 1.38 0 1 0 2.76 0 a1.38 1.38 0 1 0 -2.76 0zM642.12 137.5 a1.38 1.38 0 1 0 2.76 0 a1.38 1.38 0 1 0 -2.76 0zM378.12 126.5 a1.38 1.38 0 1 0 2.76 0 a1.38 1.38 0 1 0 -2.76 0zM1225.12 115.5 a1.38 1.38 0 1 0 2.76 0 a1.38 1.38 0 1 0 -2.76 0zM158.12 71.5 a1.38 1.38 0 1 0 2.76 0 a1.38 1.38 0 1 0 -2.76 0zM719.12 115.5 a1.38 1.38 0 1 0 2.76 0 a1.38 1.38 0 1 0 -2.76 0zM125.12 60.5 a1.38 1.38 0 1 0 2.76 0 a1.38 1.38 0 1 0 -2.76 0zM213.12 104.5 a1.38 1.38 0 1 0 2.76 0 a1.38 1.38 0 1 0 -2.76 0zM642.12 115.5 a1.38 1.38 0 1 0 2.76 0 a1.38 1.38 0 1 0 -2.76 0zM1093.12 137.5 a1.38 1.38 0 1 0 2.76 0 a1.38 1.38 0 1 0 -2.76 0zM1104.12 126.5 a1.38 1.38 0 1 0 2.76 0 a1.38 1.38 0 1 0 -2.76 0zM389.12 126.5 a1.38 1.38 0 1 0 2.76 0 a1.38 1.38 0 1 0 -2.76 0zM796.12 137.5 a1.38 1.38 0 1 0 2.76 0 a1.38 1.38 0 1 0 -2.76 0zM752.12 115.5 a1.38 1.38 0 1 0 2.76 0 a1.38 1.38 0 1 0 -2.76 0zM411.12 126.5 a1.38 1.38 0 1 0 2.76 0 a1.38 1.38 0 1 0 -2.76 0z" fill="black"></path>
            <path d="M873.12 434.5 a1.38 1.38 0 1 0 2.76 0 a1.38 1.38 0 1 0 -2.76 0zM719.12 489.5 a1.38 1.38 0 1 0 2.76 0 a1.38 1.38 0 1 0 -2.76 0zM1346.12 434.5 a1.38 1.38 0 1 0 2.76 0 a1.38 1.38 0 1 0 -2.76 0zM1049.12 467.5 a1.38 1.38 0 1 0 2.76 0 a1.38 1.38 0 1 0 -2.76 0zM1291.12 412.5 a1.38 1.38 0 1 0 2.76 0 a1.38 1.38 0 1 0 -2.76 0zM1093.12 445.5 a1.38 1.38 0 1 0 2.76 0 a1.38 1.38 0 1 0 -2.76 0zM1082.12 467.5 a1.38 1.38 0 1 0 2.76 0 a1.38 1.38 0 1 0 -2.76 0zM851.12 456.5 a1.38 1.38 0 1 0 2.76 0 a1.38 1.38 0 1 0 -2.76 0zM1016.12 456.5 a1.38 1.38 0 1 0 2.76 0 a1.38 1.38 0 1 0 -2.76 0zM1137.12 467.5 a1.38 1.38 0 1 0 2.76 0 a1.38 1.38 0 1 0 -2.76 0zM1379.12 434.5 a1.38 1.38 0 1 0 2.76 0 a1.38 1.38 0 1 0 -2.76 0zM785.12 489.5 a1.38 1.38 0 1 0 2.76 0 a1.38 1.38 0 1 0 -2.76 0zM1181.12 423.5 a1.38 1.38 0 1 0 2.76 0 a1.38 1.38 0 1 0 -2.76 0zM840.12 478.5 a1.38 1.38 0 1 0 2.76 0 a1.38 1.38 0 1 0 -2.76 0z" fill="black"></path>
            <path d="M873.12 104.5 a1.38 1.38 0 1 0 2.76 0 a1.38 1.38 0 1 0 -2.76 0zM1137.12 82.5 a1.38 1.38 0 1 0 2.76 0 a1.38 1.38 0 1 0 -2.76 0zM1412.12 137.5 a1.38 1.38 0 1 0 2.76 0 a1.38 1.38 0 1 0 -2.76 0zM972.12 104.5 a1.38 1.38 0 1 0 2.76 0 a1.38 1.38 0 1 0 -2.76 0zM1082.12 93.5 a1.38 1.38 0 1 0 2.76 0 a1.38 1.38 0 1 0 -2.76 0zM1082.12 60.5 a1.38 1.38 0 1 0 2.76 0 a1.38 1.38 0 1 0 -2.76 0zM840.12 104.5 a1.38 1.38 0 1 0 2.76 0 a1.38 1.38 0 1 0 -2.76 0zM950.12 93.5 a1.38 1.38 0 1 0 2.76 0 a1.38 1.38 0 1 0 -2.76 0zM1280.12 104.5 a1.38 1.38 0 1 0 2.76 0 a1.38 1.38 0 1 0 -2.76 0zM1071.12 38.5 a1.38 1.38 0 1 0 2.76 0 a1.38 1.38 0 1 0 -2.76 0zM1137.12 93.5 a1.38 1.38 0 1 0 2.76 0 a1.38 1.38 0 1 0 -2.76 0zM906.12 93.5 a1.38 1.38 0 1 0 2.76 0 a1.38 1.38 0 1 0 -2.76 0zM884.12 93.5 a1.38 1.38 0 1 0 2.76 0 a1.38 1.38 0 1 0 -2.76 0zM950.12 104.5 a1.38 1.38 0 1 0 2.76 0 a1.38 1.38 0 1 0 -2.76 0z" fill="black"></path>
        </mask>
    </defs>
</svg>
