<svg xmlns="http://www.w3.org/2000/svg" version="1.1" xmlns:xlink="http://www.w3.org/1999/xlink" xmlns:svgjs="http://svgjs.dev/svgjs" width="1440" height="560" preserveAspectRatio="none" viewBox="0 0 1440 560"><g mask="url(&quot;#SvgjsMask1244&quot;)" fill="none"><g mask="url(&quot;#SvgjsMask1245&quot;)"><path d="M87.5 367.5L122.5 332.5M52.5 367.5L87.5 332.5M-17.5 297.5L17.5 332.5L52.5 367.5L87.5 367.5L122.5 367.5L157.5 367.5" stroke="rgba(251, 191, 36, 0.62)" stroke-width="5.83"></path><path d="M148.75 367.5 a8.75 8.75 0 1 0 17.5 0 a8.75 8.75 0 1 0 -17.5 0zM113.75 332.5 a8.75 8.75 0 1 0 17.5 0 a8.75 8.75 0 1 0 -17.5 0zM78.75 332.5 a8.75 8.75 0 1 0 17.5 0 a8.75 8.75 0 1 0 -17.5 0z" fill="rgba(251, 191, 36, 0.62)"></path><path d="M962.5 367.5L997.5 402.5L1032.5 402.5L1067.5 402.5L1102.5 402.5L1137.5 402.5L1172.5 402.5L1207.5 402.5L1242.5 402.5L1277.5 402.5L1312.5 402.5L1347.5 402.5L1382.5 402.5M1172.5 367.5L1207.5 332.5L1242.5 332.5L1277.5 332.5L1312.5 332.5L1347.5 332.5L1382.5 332.5M1067.5 332.5L1102.5 332.5M787.5 367.5L822.5 402.5L857.5 402.5L892.5 402.5L927.5 402.5L962.5 402.5M192.5 297.5L227.5 332.5L262.5 332.5L297.5 332.5L332.5 332.5L367.5 332.5L402.5 332.5M227.5 297.5L262.5 262.5M297.5 297.5L332.5 262.5L367.5 262.5L402.5 262.5L437.5 262.5M717.5 332.5L752.5 297.5L787.5 297.5L822.5 297.5L857.5 297.5L892.5 297.5L927.5 297.5M892.5 367.5L927.5 332.5L962.5 332.5L997.5 332.5M-17.5 262.5L17.5 262.5L52.5 262.5L87.5 262.5L122.5 262.5L157.5 297.5L192.5 297.5L227.5 297.5L262.5 297.5L297.5 297.5L332.5 297.5L367.5 297.5L402.5 297.5L437.5 297.5L472.5 297.5L507.5 297.5L542.5 297.5L577.5 297.5L612.5 297.5L647.5 297.5L682.5 297.5L717.5 332.5L752.5 332.5L787.5 367.5L822.5 367.5L857.5 367.5L892.5 367.5L927.5 367.5L962.5 367.5L997.5 367.5L1032.5 332.5L1067.5 332.5L1102.5 367.5L1137.5 367.5L1172.5 367.5L1207.5 367.5L1242.5 367.5L1277.5 367.5" stroke="rgba(253, 230, 138, 0.68)" stroke-width="5.83"></path><path d="M1268.75 367.5 a8.75 8.75 0 1 0 17.5 0 a8.75 8.75 0 1 0 -17.5 0zM1373.75 402.5 a8.75 8.75 0 1 0 17.5 0 a8.75 8.75 0 1 0 -17.5 0zM1373.75 332.5 a8.75 8.75 0 1 0 17.5 0 a8.75 8.75 0 1 0 -17.5 0zM1093.75 332.5 a8.75 8.75 0 1 0 17.5 0 a8.75 8.75 0 1 0 -17.5 0zM953.75 402.5 a8.75 8.75 0 1 0 17.5 0 a8.75 8.75 0 1 0 -17.5 0zM393.75 332.5 a8.75 8.75 0 1 0 17.5 0 a8.75 8.75 0 1 0 -17.5 0zM253.75 262.5 a8.75 8.75 0 1 0 17.5 0 a8.75 8.75 0 1 0 -17.5 0zM428.75 262.5 a8.75 8.75 0 1 0 17.5 0 a8.75 8.75 0 1 0 -17.5 0zM918.75 297.5 a8.75 8.75 0 1 0 17.5 0 a8.75 8.75 0 1 0 -17.5 0zM988.75 332.5 a8.75 8.75 0 1 0 17.5 0 a8.75 8.75 0 1 0 -17.5 0z" fill="rgba(253, 230, 138, 0.68)"></path><path d="M1137.5 437.5L1172.5 472.5L1207.5 507.5L1242.5 507.5L1277.5 507.5L1312.5 507.5L1347.5 507.5M367.5 367.5L402.5 402.5L437.5 402.5L472.5 437.5L507.5 437.5L542.5 437.5L577.5 437.5L612.5 437.5L647.5 437.5M577.5 402.5L612.5 367.5L647.5 367.5L682.5 367.5L717.5 367.5L752.5 367.5L787.5 402.5M227.5 402.5L262.5 367.5M927.5 437.5L962.5 472.5L997.5 472.5L1032.5 472.5L1067.5 472.5M717.5 437.5L752.5 472.5L787.5 472.5L822.5 472.5L857.5 472.5M192.5 402.5L227.5 437.5L262.5 437.5L297.5 437.5M297.5 367.5L332.5 402.5L367.5 402.5L402.5 437.5L437.5 437.5L472.5 472.5L507.5 472.5L542.5 472.5M1172.5 437.5L1207.5 437.5L1242.5 437.5M-17.5 332.5L17.5 367.5L52.5 402.5L87.5 402.5L122.5 402.5L157.5 402.5L192.5 402.5L227.5 402.5L262.5 402.5L297.5 367.5L332.5 367.5L367.5 367.5L402.5 367.5L437.5 367.5L472.5 402.5L507.5 402.5L542.5 402.5L577.5 402.5L612.5 402.5L647.5 402.5L682.5 437.5L717.5 437.5L752.5 437.5L787.5 437.5L822.5 437.5L857.5 437.5L892.5 437.5L927.5 437.5L962.5 437.5L997.5 437.5L1032.5 437.5L1067.5 437.5L1102.5 437.5L1137.5 437.5L1172.5 437.5L1207.5 472.5L1242.5 472.5" stroke="rgba(253, 230, 138, 0.68)" stroke-width="5.83"></path><path d="M1233.75 472.5 a8.75 8.75 0 1 0 17.5 0 a8.75 8.75 0 1 0 -17.5 0zM1338.75 507.5 a8.75 8.75 0 1 0 17.5 0 a8.75 8.75 0 1 0 -17.5 0zM638.75 437.5 a8.75 8.75 0 1 0 17.5 0 a8.75 8.75 0 1 0 -17.5 0zM778.75 402.5 a8.75 8.75 0 1 0 17.5 0 a8.75 8.75 0 1 0 -17.5 0zM253.75 367.5 a8.75 8.75 0 1 0 17.5 0 a8.75 8.75 0 1 0 -17.5 0zM1058.75 472.5 a8.75 8.75 0 1 0 17.5 0 a8.75 8.75 0 1 0 -17.5 0zM848.75 472.5 a8.75 8.75 0 1 0 17.5 0 a8.75 8.75 0 1 0 -17.5 0zM288.75 437.5 a8.75 8.75 0 1 0 17.5 0 a8.75 8.75 0 1 0 -17.5 0zM533.75 472.5 a8.75 8.75 0 1 0 17.5 0 a8.75 8.75 0 1 0 -17.5 0zM1233.75 437.5 a8.75 8.75 0 1 0 17.5 0 a8.75 8.75 0 1 0 -17.5 0z" fill="rgba(253, 230, 138, 0.68)"></path><path d="M262.5 227.5L297.5 192.5M227.5 227.5L262.5 192.5L297.5 157.5L332.5 157.5M192.5 227.5L227.5 262.5M-17.5 227.5L17.5 227.5L52.5 227.5L87.5 227.5L122.5 227.5L157.5 227.5L192.5 227.5L227.5 227.5L262.5 227.5L297.5 227.5L332.5 227.5L367.5 227.5L402.5 227.5L437.5 227.5" stroke="rgba(251, 191, 36, 0.62)" stroke-width="5.83"></path><path d="M428.75 227.5 a8.75 8.75 0 1 0 17.5 0 a8.75 8.75 0 1 0 -17.5 0zM288.75 192.5 a8.75 8.75 0 1 0 17.5 0 a8.75 8.75 0 1 0 -17.5 0zM323.75 157.5 a8.75 8.75 0 1 0 17.5 0 a8.75 8.75 0 1 0 -17.5 0zM218.75 262.5 a8.75 8.75 0 1 0 17.5 0 a8.75 8.75 0 1 0 -17.5 0z" fill="rgba(251, 191, 36, 0.62)"></path><path d="M157.5 437.5L192.5 437.5M227.5 472.5L262.5 472.5L297.5 472.5L332.5 472.5L367.5 472.5M-17.5 367.5L17.5 402.5L52.5 437.5L87.5 437.5L122.5 437.5L157.5 437.5L192.5 472.5L227.5 472.5L262.5 507.5L297.5 507.5" stroke="rgba(251, 191, 36, 0.62)" stroke-width="5.83"></path><path d="M288.75 507.5 a8.75 8.75 0 1 0 17.5 0 a8.75 8.75 0 1 0 -17.5 0zM183.75 437.5 a8.75 8.75 0 1 0 17.5 0 a8.75 8.75 0 1 0 -17.5 0zM358.75 472.5 a8.75 8.75 0 1 0 17.5 0 a8.75 8.75 0 1 0 -17.5 0z" fill="rgba(251, 191, 36, 0.62)"></path><path d="M87.5 192.5L122.5 192.5L157.5 192.5L192.5 192.5M262.5 122.5L297.5 122.5M437.5 122.5L472.5 87.5L507.5 87.5L542.5 87.5M192.5 157.5L227.5 157.5L262.5 157.5M507.5 122.5L542.5 157.5L577.5 157.5L612.5 157.5L647.5 192.5M332.5 87.5L367.5 122.5L402.5 122.5L437.5 157.5L472.5 157.5L507.5 157.5L542.5 192.5M927.5 157.5L962.5 192.5L997.5 192.5L1032.5 227.5M-17.5 192.5L17.5 192.5L52.5 192.5L87.5 192.5L122.5 157.5L157.5 157.5L192.5 157.5L227.5 122.5L262.5 122.5L297.5 87.5L332.5 87.5L367.5 87.5L402.5 87.5L437.5 122.5L472.5 122.5L507.5 122.5L542.5 122.5L577.5 122.5L612.5 122.5L647.5 157.5L682.5 157.5L717.5 157.5L752.5 157.5L787.5 157.5L822.5 157.5L857.5 157.5L892.5 157.5L927.5 157.5L962.5 157.5L997.5 157.5L1032.5 157.5" stroke="rgba(253, 230, 138, 0.68)" stroke-width="5.83"></path><path d="M1023.75 157.5 a8.75 8.75 0 1 0 17.5 0 a8.75 8.75 0 1 0 -17.5 0zM183.75 192.5 a8.75 8.75 0 1 0 17.5 0 a8.75 8.75 0 1 0 -17.5 0zM288.75 122.5 a8.75 8.75 0 1 0 17.5 0 a8.75 8.75 0 1 0 -17.5 0zM533.75 87.5 a8.75 8.75 0 1 0 17.5 0 a8.75 8.75 0 1 0 -17.5 0zM253.75 157.5 a8.75 8.75 0 1 0 17.5 0 a8.75 8.75 0 1 0 -17.5 0zM638.75 192.5 a8.75 8.75 0 1 0 17.5 0 a8.75 8.75 0 1 0 -17.5 0zM533.75 192.5 a8.75 8.75 0 1 0 17.5 0 a8.75 8.75 0 1 0 -17.5 0zM1023.75 227.5 a8.75 8.75 0 1 0 17.5 0 a8.75 8.75 0 1 0 -17.5 0z" fill="rgba(253, 230, 138, 0.68)"></path><path d="M122.5 472.5L157.5 507.5M52.5 472.5L87.5 507.5M-17.5 402.5L17.5 437.5L52.5 472.5L87.5 472.5L122.5 472.5L157.5 472.5L192.5 507.5L227.5 507.5" stroke="rgba(251, 191, 36, 0.62)" stroke-width="5.83"></path><path d="M218.75 507.5 a8.75 8.75 0 1 0 17.5 0 a8.75 8.75 0 1 0 -17.5 0zM148.75 507.5 a8.75 8.75 0 1 0 17.5 0 a8.75 8.75 0 1 0 -17.5 0zM78.75 507.5 a8.75 8.75 0 1 0 17.5 0 a8.75 8.75 0 1 0 -17.5 0z" fill="rgba(251, 191, 36, 0.62)"></path><path d="M52.5 157.5L87.5 122.5M122.5 122.5L157.5 87.5L192.5 87.5M17.5 157.5L52.5 122.5L87.5 87.5M-17.5 157.5L17.5 157.5L52.5 157.5L87.5 157.5L122.5 122.5L157.5 122.5L192.5 122.5L227.5 87.5L262.5 87.5" stroke="rgba(253, 230, 138, 0.68)" stroke-width="5.83"></path><path d="M253.75 87.5 a8.75 8.75 0 1 0 17.5 0 a8.75 8.75 0 1 0 -17.5 0zM78.75 122.5 a8.75 8.75 0 1 0 17.5 0 a8.75 8.75 0 1 0 -17.5 0zM183.75 87.5 a8.75 8.75 0 1 0 17.5 0 a8.75 8.75 0 1 0 -17.5 0zM78.75 87.5 a8.75 8.75 0 1 0 17.5 0 a8.75 8.75 0 1 0 -17.5 0z" fill="rgba(253, 230, 138, 0.68)"></path></g></g><defs><mask id="SvgjsMask1244"><rect width="1440" height="560" fill="#ffffff"></rect></mask><mask id="SvgjsMask1245"><rect width="1440" height="560" fill="white"></rect><path d="M153.12 367.5 a4.38 4.38 0 1 0 8.76 0 a4.38 4.38 0 1 0 -8.76 0zM118.12 332.5 a4.38 4.38 0 1 0 8.76 0 a4.38 4.38 0 1 0 -8.76 0zM83.12 332.5 a4.38 4.38 0 1 0 8.76 0 a4.38 4.38 0 1 0 -8.76 0z" fill="black"></path><path d="M1273.12 367.5 a4.38 4.38 0 1 0 8.76 0 a4.38 4.38 0 1 0 -8.76 0zM1378.12 402.5 a4.38 4.38 0 1 0 8.76 0 a4.38 4.38 0 1 0 -8.76 0zM1378.12 332.5 a4.38 4.38 0 1 0 8.76 0 a4.38 4.38 0 1 0 -8.76 0zM1098.12 332.5 a4.38 4.38 0 1 0 8.76 0 a4.38 4.38 0 1 0 -8.76 0zM958.12 402.5 a4.38 4.38 0 1 0 8.76 0 a4.38 4.38 0 1 0 -8.76 0zM398.12 332.5 a4.38 4.38 0 1 0 8.76 0 a4.38 4.38 0 1 0 -8.76 0zM258.12 262.5 a4.38 4.38 0 1 0 8.76 0 a4.38 4.38 0 1 0 -8.76 0zM433.12 262.5 a4.38 4.38 0 1 0 8.76 0 a4.38 4.38 0 1 0 -8.76 0zM923.12 297.5 a4.38 4.38 0 1 0 8.76 0 a4.38 4.38 0 1 0 -8.76 0zM993.12 332.5 a4.38 4.38 0 1 0 8.76 0 a4.38 4.38 0 1 0 -8.76 0z" fill="black"></path><path d="M1238.12 472.5 a4.38 4.38 0 1 0 8.76 0 a4.38 4.38 0 1 0 -8.76 0zM1343.12 507.5 a4.38 4.38 0 1 0 8.76 0 a4.38 4.38 0 1 0 -8.76 0zM643.12 437.5 a4.38 4.38 0 1 0 8.76 0 a4.38 4.38 0 1 0 -8.76 0zM783.12 402.5 a4.38 4.38 0 1 0 8.76 0 a4.38 4.38 0 1 0 -8.76 0zM258.12 367.5 a4.38 4.38 0 1 0 8.76 0 a4.38 4.38 0 1 0 -8.76 0zM1063.12 472.5 a4.38 4.38 0 1 0 8.76 0 a4.38 4.38 0 1 0 -8.76 0zM853.12 472.5 a4.38 4.38 0 1 0 8.76 0 a4.38 4.38 0 1 0 -8.76 0zM293.12 437.5 a4.38 4.38 0 1 0 8.76 0 a4.38 4.38 0 1 0 -8.76 0zM538.12 472.5 a4.38 4.38 0 1 0 8.76 0 a4.38 4.38 0 1 0 -8.76 0zM1238.12 437.5 a4.38 4.38 0 1 0 8.76 0 a4.38 4.38 0 1 0 -8.76 0z" fill="black"></path><path d="M433.12 227.5 a4.38 4.38 0 1 0 8.76 0 a4.38 4.38 0 1 0 -8.76 0zM293.12 192.5 a4.38 4.38 0 1 0 8.76 0 a4.38 4.38 0 1 0 -8.76 0zM328.12 157.5 a4.38 4.38 0 1 0 8.76 0 a4.38 4.38 0 1 0 -8.76 0zM223.12 262.5 a4.38 4.38 0 1 0 8.76 0 a4.38 4.38 0 1 0 -8.76 0z" fill="black"></path><path d="M293.12 507.5 a4.38 4.38 0 1 0 8.76 0 a4.38 4.38 0 1 0 -8.76 0zM188.12 437.5 a4.38 4.38 0 1 0 8.76 0 a4.38 4.38 0 1 0 -8.76 0zM363.12 472.5 a4.38 4.38 0 1 0 8.76 0 a4.38 4.38 0 1 0 -8.76 0z" fill="black"></path><path d="M1028.12 157.5 a4.38 4.38 0 1 0 8.76 0 a4.38 4.38 0 1 0 -8.76 0zM188.12 192.5 a4.38 4.38 0 1 0 8.76 0 a4.38 4.38 0 1 0 -8.76 0zM293.12 122.5 a4.38 4.38 0 1 0 8.76 0 a4.38 4.38 0 1 0 -8.76 0zM538.12 87.5 a4.38 4.38 0 1 0 8.76 0 a4.38 4.38 0 1 0 -8.76 0zM258.12 157.5 a4.38 4.38 0 1 0 8.76 0 a4.38 4.38 0 1 0 -8.76 0zM643.12 192.5 a4.38 4.38 0 1 0 8.76 0 a4.38 4.38 0 1 0 -8.76 0zM538.12 192.5 a4.38 4.38 0 1 0 8.76 0 a4.38 4.38 0 1 0 -8.76 0zM1028.12 227.5 a4.38 4.38 0 1 0 8.76 0 a4.38 4.38 0 1 0 -8.76 0z" fill="black"></path><path d="M223.12 507.5 a4.38 4.38 0 1 0 8.76 0 a4.38 4.38 0 1 0 -8.76 0zM153.12 507.5 a4.38 4.38 0 1 0 8.76 0 a4.38 4.38 0 1 0 -8.76 0zM83.12 507.5 a4.38 4.38 0 1 0 8.76 0 a4.38 4.38 0 1 0 -8.76 0z" fill="black"></path><path d="M258.12 87.5 a4.38 4.38 0 1 0 8.76 0 a4.38 4.38 0 1 0 -8.76 0zM83.12 122.5 a4.38 4.38 0 1 0 8.76 0 a4.38 4.38 0 1 0 -8.76 0zM188.12 87.5 a4.38 4.38 0 1 0 8.76 0 a4.38 4.38 0 1 0 -8.76 0zM83.12 87.5 a4.38 4.38 0 1 0 8.76 0 a4.38 4.38 0 1 0 -8.76 0z" fill="black"></path></mask></defs></svg>