<svg xmlns="http://www.w3.org/2000/svg" version="1.1" xmlns:xlink="http://www.w3.org/1999/xlink" xmlns:svgjs="http://svgjs.dev/svgjs" width="1440" height="560" preserveAspectRatio="none" viewBox="0 0 1440 560"><g mask="url(&quot;#SvgjsMask1698&quot;)" fill="none"><g mask="url(&quot;#SvgjsMask1699&quot;)"><path d="M713 575L667 529L667 483M713 621L713 575L713 529" stroke="rgba(253, 230, 138, 0.48)" stroke-width="7.67"></path><path d="M701.5 529 a11.5 11.5 0 1 0 23 0 a11.5 11.5 0 1 0 -23 0zM655.5 483 a11.5 11.5 0 1 0 23 0 a11.5 11.5 0 1 0 -23 0z" fill="rgba(253, 230, 138, 0.48)"></path><path d="M759 621L759 575L759 529L759 483" stroke="rgba(251, 191, 36, 0.37)" stroke-width="7.67"></path><path d="M747.5 483 a11.5 11.5 0 1 0 23 0 a11.5 11.5 0 1 0 -23 0z" fill="rgba(251, 191, 36, 0.37)"></path><path d="M805 529L851 483L851 437L851 391M805 437L759 391L759 345M805 621L805 575L805 529L805 483L805 437L805 391" stroke="rgba(251, 191, 36, 0.37)" stroke-width="7.67"></path><path d="M793.5 391 a11.5 11.5 0 1 0 23 0 a11.5 11.5 0 1 0 -23 0zM839.5 391 a11.5 11.5 0 1 0 23 0 a11.5 11.5 0 1 0 -23 0zM747.5 345 a11.5 11.5 0 1 0 23 0 a11.5 11.5 0 1 0 -23 0z" fill="rgba(251, 191, 36, 0.37)"></path><path d="M897 575L851 529M851 621L897 575L897 529L897 483" stroke="rgba(251, 191, 36, 0.37)" stroke-width="7.67"></path><path d="M885.5 483 a11.5 11.5 0 1 0 23 0 a11.5 11.5 0 1 0 -23 0zM839.5 529 a11.5 11.5 0 1 0 23 0 a11.5 11.5 0 1 0 -23 0z" fill="rgba(251, 191, 36, 0.37)"></path><path d="M575 621L529 575" stroke="rgba(253, 230, 138, 0.48)" stroke-width="7.67"></path><path d="M517.5 575 a11.5 11.5 0 1 0 23 0 a11.5 11.5 0 1 0 -23 0z" fill="rgba(253, 230, 138, 0.48)"></path><path d="M943 621L943 575L943 529L943 483" stroke="rgba(253, 230, 138, 0.48)" stroke-width="7.67"></path><path d="M931.5 483 a11.5 11.5 0 1 0 23 0 a11.5 11.5 0 1 0 -23 0z" fill="rgba(253, 230, 138, 0.48)"></path><path d="M483 483L529 437L529 391M483 529L529 483L575 437M483 621L483 575L483 529L483 483L483 437L483 391" stroke="rgba(253, 230, 138, 0.48)" stroke-width="7.67"></path><path d="M471.5 391 a11.5 11.5 0 1 0 23 0 a11.5 11.5 0 1 0 -23 0zM517.5 391 a11.5 11.5 0 1 0 23 0 a11.5 11.5 0 1 0 -23 0zM563.5 437 a11.5 11.5 0 1 0 23 0 a11.5 11.5 0 1 0 -23 0z" fill="rgba(253, 230, 138, 0.48)"></path><path d="M989 483L1035 437L1035 391L1035 345M989 575L1035 529L1035 483L1081 437L1081 391M989 621L989 575L989 529L989 483L989 437" stroke="rgba(251, 191, 36, 0.37)" stroke-width="7.67"></path><path d="M977.5 437 a11.5 11.5 0 1 0 23 0 a11.5 11.5 0 1 0 -23 0zM1023.5 345 a11.5 11.5 0 1 0 23 0 a11.5 11.5 0 1 0 -23 0zM1069.5 391 a11.5 11.5 0 1 0 23 0 a11.5 11.5 0 1 0 -23 0z" fill="rgba(251, 191, 36, 0.37)"></path><path d="M437 621L391 575" stroke="rgba(251, 191, 36, 0.37)" stroke-width="7.67"></path><path d="M379.5 575 a11.5 11.5 0 1 0 23 0 a11.5 11.5 0 1 0 -23 0z" fill="rgba(251, 191, 36, 0.37)"></path></g></g><defs><mask id="SvgjsMask1698"><rect width="1440" height="560" fill="#ffffff"></rect></mask><mask id="SvgjsMask1699"><rect width="1440" height="560" fill="white"></rect><path d="M707.25 529 a5.75 5.75 0 1 0 11.5 0 a5.75 5.75 0 1 0 -11.5 0zM661.25 483 a5.75 5.75 0 1 0 11.5 0 a5.75 5.75 0 1 0 -11.5 0z" fill="black"></path><path d="M753.25 483 a5.75 5.75 0 1 0 11.5 0 a5.75 5.75 0 1 0 -11.5 0z" fill="black"></path><path d="M799.25 391 a5.75 5.75 0 1 0 11.5 0 a5.75 5.75 0 1 0 -11.5 0zM845.25 391 a5.75 5.75 0 1 0 11.5 0 a5.75 5.75 0 1 0 -11.5 0zM753.25 345 a5.75 5.75 0 1 0 11.5 0 a5.75 5.75 0 1 0 -11.5 0z" fill="black"></path><path d="M891.25 483 a5.75 5.75 0 1 0 11.5 0 a5.75 5.75 0 1 0 -11.5 0zM845.25 529 a5.75 5.75 0 1 0 11.5 0 a5.75 5.75 0 1 0 -11.5 0z" fill="black"></path><path d="M523.25 575 a5.75 5.75 0 1 0 11.5 0 a5.75 5.75 0 1 0 -11.5 0z" fill="black"></path><path d="M937.25 483 a5.75 5.75 0 1 0 11.5 0 a5.75 5.75 0 1 0 -11.5 0z" fill="black"></path><path d="M477.25 391 a5.75 5.75 0 1 0 11.5 0 a5.75 5.75 0 1 0 -11.5 0zM523.25 391 a5.75 5.75 0 1 0 11.5 0 a5.75 5.75 0 1 0 -11.5 0zM569.25 437 a5.75 5.75 0 1 0 11.5 0 a5.75 5.75 0 1 0 -11.5 0z" fill="black"></path><path d="M983.25 437 a5.75 5.75 0 1 0 11.5 0 a5.75 5.75 0 1 0 -11.5 0zM1029.25 345 a5.75 5.75 0 1 0 11.5 0 a5.75 5.75 0 1 0 -11.5 0zM1075.25 391 a5.75 5.75 0 1 0 11.5 0 a5.75 5.75 0 1 0 -11.5 0z" fill="black"></path><path d="M385.25 575 a5.75 5.75 0 1 0 11.5 0 a5.75 5.75 0 1 0 -11.5 0z" fill="black"></path></mask></defs></svg>